<?xml version="1.0" encoding="utf-8"?>
<svg xmlns="http://www.w3.org/2000/svg" xmlns:xlink="http://www.w3.org/1999/xlink" width="600" height="400" viewBox="0 0 2400 1600">
<defs>
  <clipPath id="clip740">
    <rect x="0" y="0" width="2400" height="1600"/>
  </clipPath>
</defs>
<path clip-path="url(#clip740)" d="M0 1600 L2400 1600 L2400 0 L0 0  Z" fill="#ffffff" fill-rule="evenodd" fill-opacity="1"/>
<defs>
  <clipPath id="clip741">
    <rect x="480" y="0" width="1681" height="1600"/>
  </clipPath>
</defs>
<path clip-path="url(#clip740)" d="M247.459 1410.9 L2352.76 1410.9 L2352.76 123.472 L247.459 123.472  Z" fill="#ffffff" fill-rule="evenodd" fill-opacity="1"/>
<defs>
  <clipPath id="clip742">
    <rect x="247" y="123" width="2106" height="1288"/>
  </clipPath>
</defs>
<polyline clip-path="url(#clip742)" style="stroke:#000000; stroke-linecap:round; stroke-linejoin:round; stroke-width:2; stroke-opacity:0.05; fill:none" points="261.481,1410.9 261.481,123.472 "/>
<polyline clip-path="url(#clip742)" style="stroke:#000000; stroke-linecap:round; stroke-linejoin:round; stroke-width:2; stroke-opacity:0.05; fill:none" points="659.912,1410.9 659.912,123.472 "/>
<polyline clip-path="url(#clip742)" style="stroke:#000000; stroke-linecap:round; stroke-linejoin:round; stroke-width:2; stroke-opacity:0.05; fill:none" points="862.227,1410.9 862.227,123.472 "/>
<polyline clip-path="url(#clip742)" style="stroke:#000000; stroke-linecap:round; stroke-linejoin:round; stroke-width:2; stroke-opacity:0.05; fill:none" points="1005.77,1410.9 1005.77,123.472 "/>
<polyline clip-path="url(#clip742)" style="stroke:#000000; stroke-linecap:round; stroke-linejoin:round; stroke-width:2; stroke-opacity:0.05; fill:none" points="1117.11,1410.9 1117.11,123.472 "/>
<polyline clip-path="url(#clip742)" style="stroke:#000000; stroke-linecap:round; stroke-linejoin:round; stroke-width:2; stroke-opacity:0.05; fill:none" points="1208.09,1410.9 1208.09,123.472 "/>
<polyline clip-path="url(#clip742)" style="stroke:#000000; stroke-linecap:round; stroke-linejoin:round; stroke-width:2; stroke-opacity:0.05; fill:none" points="1285,1410.9 1285,123.472 "/>
<polyline clip-path="url(#clip742)" style="stroke:#000000; stroke-linecap:round; stroke-linejoin:round; stroke-width:2; stroke-opacity:0.05; fill:none" points="1351.63,1410.9 1351.63,123.472 "/>
<polyline clip-path="url(#clip742)" style="stroke:#000000; stroke-linecap:round; stroke-linejoin:round; stroke-width:2; stroke-opacity:0.05; fill:none" points="1410.4,1410.9 1410.4,123.472 "/>
<polyline clip-path="url(#clip742)" style="stroke:#000000; stroke-linecap:round; stroke-linejoin:round; stroke-width:2; stroke-opacity:0.05; fill:none" points="1808.83,1410.9 1808.83,123.472 "/>
<polyline clip-path="url(#clip742)" style="stroke:#000000; stroke-linecap:round; stroke-linejoin:round; stroke-width:2; stroke-opacity:0.05; fill:none" points="2011.15,1410.9 2011.15,123.472 "/>
<polyline clip-path="url(#clip742)" style="stroke:#000000; stroke-linecap:round; stroke-linejoin:round; stroke-width:2; stroke-opacity:0.05; fill:none" points="2154.69,1410.9 2154.69,123.472 "/>
<polyline clip-path="url(#clip742)" style="stroke:#000000; stroke-linecap:round; stroke-linejoin:round; stroke-width:2; stroke-opacity:0.05; fill:none" points="2266.03,1410.9 2266.03,123.472 "/>
<polyline clip-path="url(#clip742)" style="stroke:#000000; stroke-linecap:round; stroke-linejoin:round; stroke-width:2; stroke-opacity:0.05; fill:none" points="247.459,1364.49 2352.76,1364.49 "/>
<polyline clip-path="url(#clip742)" style="stroke:#000000; stroke-linecap:round; stroke-linejoin:round; stroke-width:2; stroke-opacity:0.05; fill:none" points="247.459,1259.78 2352.76,1259.78 "/>
<polyline clip-path="url(#clip742)" style="stroke:#000000; stroke-linecap:round; stroke-linejoin:round; stroke-width:2; stroke-opacity:0.05; fill:none" points="247.459,1207.42 2352.76,1207.42 "/>
<polyline clip-path="url(#clip742)" style="stroke:#000000; stroke-linecap:round; stroke-linejoin:round; stroke-width:2; stroke-opacity:0.05; fill:none" points="247.459,1155.07 2352.76,1155.07 "/>
<polyline clip-path="url(#clip742)" style="stroke:#000000; stroke-linecap:round; stroke-linejoin:round; stroke-width:2; stroke-opacity:0.05; fill:none" points="247.459,1102.71 2352.76,1102.71 "/>
<polyline clip-path="url(#clip742)" style="stroke:#000000; stroke-linecap:round; stroke-linejoin:round; stroke-width:2; stroke-opacity:0.05; fill:none" points="247.459,998.001 2352.76,998.001 "/>
<polyline clip-path="url(#clip742)" style="stroke:#000000; stroke-linecap:round; stroke-linejoin:round; stroke-width:2; stroke-opacity:0.05; fill:none" points="247.459,945.646 2352.76,945.646 "/>
<polyline clip-path="url(#clip742)" style="stroke:#000000; stroke-linecap:round; stroke-linejoin:round; stroke-width:2; stroke-opacity:0.05; fill:none" points="247.459,893.29 2352.76,893.29 "/>
<polyline clip-path="url(#clip742)" style="stroke:#000000; stroke-linecap:round; stroke-linejoin:round; stroke-width:2; stroke-opacity:0.05; fill:none" points="247.459,840.935 2352.76,840.935 "/>
<polyline clip-path="url(#clip742)" style="stroke:#000000; stroke-linecap:round; stroke-linejoin:round; stroke-width:2; stroke-opacity:0.05; fill:none" points="247.459,736.225 2352.76,736.225 "/>
<polyline clip-path="url(#clip742)" style="stroke:#000000; stroke-linecap:round; stroke-linejoin:round; stroke-width:2; stroke-opacity:0.05; fill:none" points="247.459,683.869 2352.76,683.869 "/>
<polyline clip-path="url(#clip742)" style="stroke:#000000; stroke-linecap:round; stroke-linejoin:round; stroke-width:2; stroke-opacity:0.05; fill:none" points="247.459,631.514 2352.76,631.514 "/>
<polyline clip-path="url(#clip742)" style="stroke:#000000; stroke-linecap:round; stroke-linejoin:round; stroke-width:2; stroke-opacity:0.05; fill:none" points="247.459,579.159 2352.76,579.159 "/>
<polyline clip-path="url(#clip742)" style="stroke:#000000; stroke-linecap:round; stroke-linejoin:round; stroke-width:2; stroke-opacity:0.05; fill:none" points="247.459,474.449 2352.76,474.449 "/>
<polyline clip-path="url(#clip742)" style="stroke:#000000; stroke-linecap:round; stroke-linejoin:round; stroke-width:2; stroke-opacity:0.05; fill:none" points="247.459,422.093 2352.76,422.093 "/>
<polyline clip-path="url(#clip742)" style="stroke:#000000; stroke-linecap:round; stroke-linejoin:round; stroke-width:2; stroke-opacity:0.05; fill:none" points="247.459,369.738 2352.76,369.738 "/>
<polyline clip-path="url(#clip742)" style="stroke:#000000; stroke-linecap:round; stroke-linejoin:round; stroke-width:2; stroke-opacity:0.05; fill:none" points="247.459,317.383 2352.76,317.383 "/>
<polyline clip-path="url(#clip742)" style="stroke:#000000; stroke-linecap:round; stroke-linejoin:round; stroke-width:2; stroke-opacity:0.05; fill:none" points="247.459,212.672 2352.76,212.672 "/>
<polyline clip-path="url(#clip742)" style="stroke:#000000; stroke-linecap:round; stroke-linejoin:round; stroke-width:2; stroke-opacity:0.05; fill:none" points="247.459,160.317 2352.76,160.317 "/>
<polyline clip-path="url(#clip742)" style="stroke:#000000; stroke-linecap:round; stroke-linejoin:round; stroke-width:2; stroke-opacity:0.1; fill:none" points="314.053,1410.9 314.053,123.472 "/>
<polyline clip-path="url(#clip742)" style="stroke:#000000; stroke-linecap:round; stroke-linejoin:round; stroke-width:2; stroke-opacity:0.1; fill:none" points="1462.97,1410.9 1462.97,123.472 "/>
<polyline clip-path="url(#clip742)" style="stroke:#000000; stroke-linecap:round; stroke-linejoin:round; stroke-width:2; stroke-opacity:0.1; fill:none" points="247.459,1312.13 2352.76,1312.13 "/>
<polyline clip-path="url(#clip742)" style="stroke:#000000; stroke-linecap:round; stroke-linejoin:round; stroke-width:2; stroke-opacity:0.1; fill:none" points="247.459,1050.36 2352.76,1050.36 "/>
<polyline clip-path="url(#clip742)" style="stroke:#000000; stroke-linecap:round; stroke-linejoin:round; stroke-width:2; stroke-opacity:0.1; fill:none" points="247.459,788.58 2352.76,788.58 "/>
<polyline clip-path="url(#clip742)" style="stroke:#000000; stroke-linecap:round; stroke-linejoin:round; stroke-width:2; stroke-opacity:0.1; fill:none" points="247.459,526.804 2352.76,526.804 "/>
<polyline clip-path="url(#clip742)" style="stroke:#000000; stroke-linecap:round; stroke-linejoin:round; stroke-width:2; stroke-opacity:0.1; fill:none" points="247.459,265.028 2352.76,265.028 "/>
<polyline clip-path="url(#clip740)" style="stroke:#000000; stroke-linecap:round; stroke-linejoin:round; stroke-width:4; stroke-opacity:1; fill:none" points="247.459,1410.9 2352.76,1410.9 "/>
<polyline clip-path="url(#clip740)" style="stroke:#000000; stroke-linecap:round; stroke-linejoin:round; stroke-width:4; stroke-opacity:1; fill:none" points="314.053,1410.9 314.053,1392 "/>
<polyline clip-path="url(#clip740)" style="stroke:#000000; stroke-linecap:round; stroke-linejoin:round; stroke-width:4; stroke-opacity:1; fill:none" points="1462.97,1410.9 1462.97,1392 "/>
<polyline clip-path="url(#clip740)" style="stroke:#000000; stroke-linecap:round; stroke-linejoin:round; stroke-width:4; stroke-opacity:1; fill:none" points="261.481,1410.9 261.481,1401.45 "/>
<polyline clip-path="url(#clip740)" style="stroke:#000000; stroke-linecap:round; stroke-linejoin:round; stroke-width:4; stroke-opacity:1; fill:none" points="659.912,1410.9 659.912,1401.45 "/>
<polyline clip-path="url(#clip740)" style="stroke:#000000; stroke-linecap:round; stroke-linejoin:round; stroke-width:4; stroke-opacity:1; fill:none" points="862.227,1410.9 862.227,1401.45 "/>
<polyline clip-path="url(#clip740)" style="stroke:#000000; stroke-linecap:round; stroke-linejoin:round; stroke-width:4; stroke-opacity:1; fill:none" points="1005.77,1410.9 1005.77,1401.45 "/>
<polyline clip-path="url(#clip740)" style="stroke:#000000; stroke-linecap:round; stroke-linejoin:round; stroke-width:4; stroke-opacity:1; fill:none" points="1117.11,1410.9 1117.11,1401.45 "/>
<polyline clip-path="url(#clip740)" style="stroke:#000000; stroke-linecap:round; stroke-linejoin:round; stroke-width:4; stroke-opacity:1; fill:none" points="1208.09,1410.9 1208.09,1401.45 "/>
<polyline clip-path="url(#clip740)" style="stroke:#000000; stroke-linecap:round; stroke-linejoin:round; stroke-width:4; stroke-opacity:1; fill:none" points="1285,1410.9 1285,1401.45 "/>
<polyline clip-path="url(#clip740)" style="stroke:#000000; stroke-linecap:round; stroke-linejoin:round; stroke-width:4; stroke-opacity:1; fill:none" points="1351.63,1410.9 1351.63,1401.45 "/>
<polyline clip-path="url(#clip740)" style="stroke:#000000; stroke-linecap:round; stroke-linejoin:round; stroke-width:4; stroke-opacity:1; fill:none" points="1410.4,1410.9 1410.4,1401.45 "/>
<polyline clip-path="url(#clip740)" style="stroke:#000000; stroke-linecap:round; stroke-linejoin:round; stroke-width:4; stroke-opacity:1; fill:none" points="1808.83,1410.9 1808.83,1401.45 "/>
<polyline clip-path="url(#clip740)" style="stroke:#000000; stroke-linecap:round; stroke-linejoin:round; stroke-width:4; stroke-opacity:1; fill:none" points="2011.15,1410.9 2011.15,1401.45 "/>
<polyline clip-path="url(#clip740)" style="stroke:#000000; stroke-linecap:round; stroke-linejoin:round; stroke-width:4; stroke-opacity:1; fill:none" points="2154.69,1410.9 2154.69,1401.45 "/>
<polyline clip-path="url(#clip740)" style="stroke:#000000; stroke-linecap:round; stroke-linejoin:round; stroke-width:4; stroke-opacity:1; fill:none" points="2266.03,1410.9 2266.03,1401.45 "/>
<path clip-path="url(#clip740)" d="M267.629 1485.02 L275.267 1485.02 L275.267 1458.66 L266.957 1460.32 L266.957 1456.06 L275.221 1454.4 L279.897 1454.4 L279.897 1485.02 L287.536 1485.02 L287.536 1488.96 L267.629 1488.96 L267.629 1485.02 Z" fill="#000000" fill-rule="nonzero" fill-opacity="1" /><path clip-path="url(#clip740)" d="M306.98 1457.48 Q303.369 1457.48 301.541 1461.04 Q299.735 1464.58 299.735 1471.71 Q299.735 1478.82 301.541 1482.38 Q303.369 1485.92 306.98 1485.92 Q310.615 1485.92 312.42 1482.38 Q314.249 1478.82 314.249 1471.71 Q314.249 1464.58 312.42 1461.04 Q310.615 1457.48 306.98 1457.48 M306.98 1453.77 Q312.79 1453.77 315.846 1458.38 Q318.925 1462.96 318.925 1471.71 Q318.925 1480.44 315.846 1485.04 Q312.79 1489.63 306.98 1489.63 Q301.17 1489.63 298.091 1485.04 Q295.036 1480.44 295.036 1471.71 Q295.036 1462.96 298.091 1458.38 Q301.17 1453.77 306.98 1453.77 Z" fill="#000000" fill-rule="nonzero" fill-opacity="1" /><path clip-path="url(#clip740)" d="M319.47 1458.35 L325.677 1458.35 L325.677 1436.93 L318.925 1438.28 L318.925 1434.82 L325.639 1433.47 L329.438 1433.47 L329.438 1458.35 L335.645 1458.35 L335.645 1461.55 L319.47 1461.55 L319.47 1458.35 Z" fill="#000000" fill-rule="nonzero" fill-opacity="1" /><path clip-path="url(#clip740)" d="M351.443 1435.97 Q348.509 1435.97 347.023 1438.86 Q345.556 1441.74 345.556 1447.53 Q345.556 1453.31 347.023 1456.2 Q348.509 1459.08 351.443 1459.08 Q354.396 1459.08 355.863 1456.2 Q357.349 1453.31 357.349 1447.53 Q357.349 1441.74 355.863 1438.86 Q354.396 1435.97 351.443 1435.97 M351.443 1432.96 Q356.164 1432.96 358.647 1436.7 Q361.148 1440.43 361.148 1447.53 Q361.148 1454.62 358.647 1458.37 Q356.164 1462.09 351.443 1462.09 Q346.723 1462.09 344.221 1458.37 Q341.738 1454.62 341.738 1447.53 Q341.738 1440.43 344.221 1436.7 Q346.723 1432.96 351.443 1432.96 Z" fill="#000000" fill-rule="nonzero" fill-opacity="1" /><path clip-path="url(#clip740)" d="M1417.05 1485.02 L1424.69 1485.02 L1424.69 1458.66 L1416.38 1460.32 L1416.38 1456.06 L1424.64 1454.4 L1429.32 1454.4 L1429.32 1485.02 L1436.95 1485.02 L1436.95 1488.96 L1417.05 1488.96 L1417.05 1485.02 Z" fill="#000000" fill-rule="nonzero" fill-opacity="1" /><path clip-path="url(#clip740)" d="M1456.4 1457.48 Q1452.79 1457.48 1450.96 1461.04 Q1449.15 1464.58 1449.15 1471.71 Q1449.15 1478.82 1450.96 1482.38 Q1452.79 1485.92 1456.4 1485.92 Q1460.03 1485.92 1461.84 1482.38 Q1463.67 1478.82 1463.67 1471.71 Q1463.67 1464.58 1461.84 1461.04 Q1460.03 1457.48 1456.4 1457.48 M1456.4 1453.77 Q1462.21 1453.77 1465.26 1458.38 Q1468.34 1462.96 1468.34 1471.71 Q1468.34 1480.44 1465.26 1485.04 Q1462.21 1489.63 1456.4 1489.63 Q1450.59 1489.63 1447.51 1485.04 Q1444.45 1480.44 1444.45 1471.71 Q1444.45 1462.96 1447.51 1458.38 Q1450.59 1453.77 1456.4 1453.77 Z" fill="#000000" fill-rule="nonzero" fill-opacity="1" /><path clip-path="url(#clip740)" d="M1468.89 1458.35 L1475.1 1458.35 L1475.1 1436.93 L1468.34 1438.28 L1468.34 1434.82 L1475.06 1433.47 L1478.86 1433.47 L1478.86 1458.35 L1485.06 1458.35 L1485.06 1461.55 L1468.89 1461.55 L1468.89 1458.35 Z" fill="#000000" fill-rule="nonzero" fill-opacity="1" /><path clip-path="url(#clip740)" d="M1493.4 1458.35 L1499.6 1458.35 L1499.6 1436.93 L1492.85 1438.28 L1492.85 1434.82 L1499.56 1433.47 L1503.36 1433.47 L1503.36 1458.35 L1509.57 1458.35 L1509.57 1461.55 L1493.4 1461.55 L1493.4 1458.35 Z" fill="#000000" fill-rule="nonzero" fill-opacity="1" /><path clip-path="url(#clip740)" d="M986.091 1520.47 L992.52 1520.47 L992.52 1567.99 L986.091 1567.99 L986.091 1520.47 Z" fill="#000000" fill-rule="nonzero" fill-opacity="1" /><path clip-path="url(#clip740)" d="M1034.69 1546.47 L1034.69 1567.99 L1028.84 1567.99 L1028.84 1546.66 Q1028.84 1541.6 1026.86 1539.09 Q1024.89 1536.57 1020.94 1536.57 Q1016.2 1536.57 1013.46 1539.59 Q1010.73 1542.62 1010.73 1547.84 L1010.73 1567.99 L1004.84 1567.99 L1004.84 1532.34 L1010.73 1532.34 L1010.73 1537.88 Q1012.83 1534.66 1015.66 1533.07 Q1018.52 1531.48 1022.25 1531.48 Q1028.39 1531.48 1031.54 1535.3 Q1034.69 1539.09 1034.69 1546.47 Z" fill="#000000" fill-rule="nonzero" fill-opacity="1" /><path clip-path="url(#clip740)" d="M1052.17 1522.22 L1052.17 1532.34 L1064.23 1532.34 L1064.23 1536.89 L1052.17 1536.89 L1052.17 1556.24 Q1052.17 1560.6 1053.34 1561.84 Q1054.55 1563.08 1058.21 1563.08 L1064.23 1563.08 L1064.23 1567.99 L1058.21 1567.99 Q1051.43 1567.99 1048.86 1565.47 Q1046.28 1562.93 1046.28 1556.24 L1046.28 1536.89 L1041.98 1536.89 L1041.98 1532.34 L1046.28 1532.34 L1046.28 1522.22 L1052.17 1522.22 Z" fill="#000000" fill-rule="nonzero" fill-opacity="1" /><path clip-path="url(#clip740)" d="M1102.42 1548.7 L1102.42 1551.56 L1075.5 1551.56 Q1075.88 1557.61 1079.13 1560.79 Q1082.4 1563.94 1088.23 1563.94 Q1091.6 1563.94 1094.75 1563.12 Q1097.94 1562.29 1101.06 1560.63 L1101.06 1566.17 Q1097.9 1567.51 1094.59 1568.21 Q1091.28 1568.91 1087.88 1568.91 Q1079.35 1568.91 1074.35 1563.94 Q1069.39 1558.98 1069.39 1550.51 Q1069.39 1541.76 1074.1 1536.63 Q1078.84 1531.48 1086.86 1531.48 Q1094.05 1531.48 1098.22 1536.13 Q1102.42 1540.74 1102.42 1548.7 M1096.57 1546.98 Q1096.5 1542.17 1093.86 1539.31 Q1091.25 1536.44 1086.92 1536.44 Q1082.02 1536.44 1079.06 1539.21 Q1076.13 1541.98 1075.69 1547.01 L1096.57 1546.98 Z" fill="#000000" fill-rule="nonzero" fill-opacity="1" /><path clip-path="url(#clip740)" d="M1132.69 1537.81 Q1131.71 1537.24 1130.53 1536.98 Q1129.38 1536.7 1127.98 1536.7 Q1123.02 1536.7 1120.34 1539.95 Q1117.7 1543.16 1117.7 1549.21 L1117.7 1567.99 L1111.81 1567.99 L1111.81 1532.34 L1117.7 1532.34 L1117.7 1537.88 Q1119.55 1534.63 1122.51 1533.07 Q1125.47 1531.48 1129.7 1531.48 Q1130.31 1531.48 1131.04 1531.57 Q1131.77 1531.64 1132.66 1531.8 L1132.69 1537.81 Z" fill="#000000" fill-rule="nonzero" fill-opacity="1" /><path clip-path="url(#clip740)" d="M1155.04 1550.07 Q1147.94 1550.07 1145.2 1551.69 Q1142.46 1553.31 1142.46 1557.23 Q1142.46 1560.35 1144.5 1562.19 Q1146.57 1564.01 1150.1 1564.01 Q1154.97 1564.01 1157.9 1560.57 Q1160.86 1557.1 1160.86 1551.37 L1160.86 1550.07 L1155.04 1550.07 M1166.72 1547.65 L1166.72 1567.99 L1160.86 1567.99 L1160.86 1562.58 Q1158.86 1565.82 1155.86 1567.38 Q1152.87 1568.91 1148.54 1568.91 Q1143.07 1568.91 1139.82 1565.85 Q1136.61 1562.77 1136.61 1557.61 Q1136.61 1551.59 1140.62 1548.54 Q1144.66 1545.48 1152.65 1545.48 L1160.86 1545.48 L1160.86 1544.91 Q1160.86 1540.87 1158.19 1538.67 Q1155.55 1536.44 1150.74 1536.44 Q1147.68 1536.44 1144.79 1537.18 Q1141.89 1537.91 1139.22 1539.37 L1139.22 1533.96 Q1142.43 1532.72 1145.46 1532.12 Q1148.48 1531.48 1151.34 1531.48 Q1159.08 1531.48 1162.9 1535.49 Q1166.72 1539.5 1166.72 1547.65 Z" fill="#000000" fill-rule="nonzero" fill-opacity="1" /><path clip-path="url(#clip740)" d="M1204.43 1533.71 L1204.43 1539.18 Q1201.95 1537.81 1199.44 1537.14 Q1196.95 1536.44 1194.41 1536.44 Q1188.71 1536.44 1185.56 1540.07 Q1182.41 1543.67 1182.41 1550.19 Q1182.41 1556.72 1185.56 1560.35 Q1188.71 1563.94 1194.41 1563.94 Q1196.95 1563.94 1199.44 1563.28 Q1201.95 1562.58 1204.43 1561.21 L1204.43 1566.62 Q1201.98 1567.76 1199.34 1568.34 Q1196.73 1568.91 1193.77 1568.91 Q1185.72 1568.91 1180.98 1563.85 Q1176.23 1558.79 1176.23 1550.19 Q1176.23 1541.47 1181.01 1536.48 Q1185.81 1531.48 1194.15 1531.48 Q1196.86 1531.48 1199.44 1532.05 Q1202.02 1532.59 1204.43 1533.71 Z" fill="#000000" fill-rule="nonzero" fill-opacity="1" /><path clip-path="url(#clip740)" d="M1220.41 1522.22 L1220.41 1532.34 L1232.48 1532.34 L1232.48 1536.89 L1220.41 1536.89 L1220.41 1556.24 Q1220.41 1560.6 1221.59 1561.84 Q1222.8 1563.08 1226.46 1563.08 L1232.48 1563.08 L1232.48 1567.99 L1226.46 1567.99 Q1219.68 1567.99 1217.1 1565.47 Q1214.52 1562.93 1214.52 1556.24 L1214.52 1536.89 L1210.23 1536.89 L1210.23 1532.34 L1214.52 1532.34 L1214.52 1522.22 L1220.41 1522.22 Z" fill="#000000" fill-rule="nonzero" fill-opacity="1" /><path clip-path="url(#clip740)" d="M1240.18 1532.34 L1246.03 1532.34 L1246.03 1567.99 L1240.18 1567.99 L1240.18 1532.34 M1240.18 1518.46 L1246.03 1518.46 L1246.03 1525.88 L1240.18 1525.88 L1240.18 1518.46 Z" fill="#000000" fill-rule="nonzero" fill-opacity="1" /><path clip-path="url(#clip740)" d="M1272.1 1536.44 Q1267.39 1536.44 1264.65 1540.14 Q1261.92 1543.8 1261.92 1550.19 Q1261.92 1556.59 1264.62 1560.28 Q1267.36 1563.94 1272.1 1563.94 Q1276.78 1563.94 1279.52 1560.25 Q1282.26 1556.56 1282.26 1550.19 Q1282.26 1543.86 1279.52 1540.17 Q1276.78 1536.44 1272.1 1536.44 M1272.1 1531.48 Q1279.74 1531.48 1284.1 1536.44 Q1288.46 1541.41 1288.46 1550.19 Q1288.46 1558.95 1284.1 1563.94 Q1279.74 1568.91 1272.1 1568.91 Q1264.43 1568.91 1260.07 1563.94 Q1255.74 1558.95 1255.74 1550.19 Q1255.74 1541.41 1260.07 1536.44 Q1264.43 1531.48 1272.1 1531.48 Z" fill="#000000" fill-rule="nonzero" fill-opacity="1" /><path clip-path="url(#clip740)" d="M1327.8 1546.47 L1327.8 1567.99 L1321.95 1567.99 L1321.95 1546.66 Q1321.95 1541.6 1319.97 1539.09 Q1318 1536.57 1314.05 1536.57 Q1309.31 1536.57 1306.57 1539.59 Q1303.83 1542.62 1303.83 1547.84 L1303.83 1567.99 L1297.95 1567.99 L1297.95 1532.34 L1303.83 1532.34 L1303.83 1537.88 Q1305.94 1534.66 1308.77 1533.07 Q1311.63 1531.48 1315.36 1531.48 Q1321.5 1531.48 1324.65 1535.3 Q1327.8 1539.09 1327.8 1546.47 Z" fill="#000000" fill-rule="nonzero" fill-opacity="1" /><path clip-path="url(#clip740)" d="M1362.21 1533.39 L1362.21 1538.93 Q1359.73 1537.65 1357.05 1537.02 Q1354.38 1536.38 1351.51 1536.38 Q1347.15 1536.38 1344.96 1537.72 Q1342.79 1539.05 1342.79 1541.73 Q1342.79 1543.76 1344.35 1544.94 Q1345.91 1546.09 1350.62 1547.14 L1352.63 1547.58 Q1358.87 1548.92 1361.48 1551.37 Q1364.12 1553.79 1364.12 1558.15 Q1364.12 1563.12 1360.17 1566.01 Q1356.26 1568.91 1349.38 1568.91 Q1346.52 1568.91 1343.4 1568.34 Q1340.31 1567.79 1336.87 1566.68 L1336.87 1560.63 Q1340.12 1562.32 1343.27 1563.18 Q1346.42 1564.01 1349.51 1564.01 Q1353.65 1564.01 1355.87 1562.61 Q1358.1 1561.17 1358.1 1558.6 Q1358.1 1556.21 1356.48 1554.94 Q1354.89 1553.66 1349.45 1552.49 L1347.41 1552.01 Q1341.97 1550.86 1339.55 1548.51 Q1337.13 1546.12 1337.13 1541.98 Q1337.13 1536.95 1340.69 1534.22 Q1344.26 1531.48 1350.81 1531.48 Q1354.06 1531.48 1356.92 1531.96 Q1359.79 1532.43 1362.21 1533.39 Z" fill="#000000" fill-rule="nonzero" fill-opacity="1" /><path clip-path="url(#clip740)" d="M1408.23 1518.52 Q1403.97 1525.84 1401.9 1533.01 Q1399.83 1540.17 1399.83 1547.52 Q1399.83 1554.87 1401.9 1562.1 Q1404 1569.29 1408.23 1576.58 L1403.14 1576.58 Q1398.37 1569.1 1395.98 1561.87 Q1393.62 1554.65 1393.62 1547.52 Q1393.62 1540.42 1395.98 1533.23 Q1398.33 1526.04 1403.14 1518.52 L1408.23 1518.52 Z" fill="#000000" fill-rule="nonzero" fill-opacity="1" /><path clip-path="url(#clip740)" d="M1463.76 1523.67 Q1463.76 1524.99 1462.63 1524.99 Q1458.99 1525.12 1457.51 1526.34 Q1456.06 1527.54 1455.51 1529.85 L1446.3 1566.6 Q1445.98 1567.76 1445.78 1567.89 Q1445.59 1567.99 1445.24 1567.99 Q1444.79 1567.99 1444.53 1567.76 Q1444.3 1567.54 1443.98 1566.73 L1427.56 1527.89 Q1427.43 1527.63 1427.27 1527.28 Q1427.11 1526.92 1426.98 1526.7 L1418.25 1561.51 Q1417.99 1562.51 1417.99 1563.03 Q1417.99 1564.28 1418.86 1565.09 Q1419.76 1565.86 1422.34 1565.96 Q1423.66 1565.96 1423.66 1566.67 Q1423.66 1567.99 1422.47 1567.99 Q1421.37 1567.99 1419.09 1567.89 Q1416.8 1567.79 1415.67 1567.79 Q1414.58 1567.79 1412.35 1567.89 Q1410.13 1567.99 1409.07 1567.99 Q1408.23 1567.99 1408.23 1567.25 Q1408.23 1566.67 1408.46 1566.38 Q1408.68 1566.05 1408.88 1566.02 Q1409.07 1565.96 1409.36 1565.96 Q1411.29 1565.89 1412.61 1565.51 Q1413.93 1565.12 1414.67 1564.38 Q1415.45 1563.64 1415.8 1562.9 Q1416.19 1562.12 1416.48 1561 L1425.3 1525.57 Q1425.3 1524.99 1420.83 1524.99 Q1420.05 1524.99 1419.73 1524.96 Q1419.44 1524.93 1419.21 1524.77 Q1418.99 1524.6 1418.99 1524.25 Q1418.99 1523.35 1419.38 1523.16 Q1419.76 1522.93 1420.89 1522.93 L1429.75 1522.93 Q1430.87 1522.93 1431.16 1523.12 Q1431.45 1523.28 1431.84 1524.19 L1446.43 1558.61 L1453.8 1529.27 Q1454 1528.69 1454 1527.89 Q1454 1526.6 1453.03 1525.83 Q1452.1 1525.02 1449.52 1524.99 Q1448.33 1524.99 1448.33 1524.25 Q1448.33 1523.64 1448.55 1523.35 Q1448.81 1523.03 1449.01 1522.99 Q1449.23 1522.93 1449.52 1522.93 Q1450.62 1522.93 1452.87 1523.03 Q1455.12 1523.12 1456.25 1523.12 Q1457.35 1523.12 1459.57 1523.03 Q1461.82 1522.93 1462.92 1522.93 Q1463.3 1522.93 1463.5 1523.12 Q1463.72 1523.28 1463.76 1523.48 L1463.76 1523.67 Z" fill="#000000" fill-rule="nonzero" fill-opacity="1" /><path clip-path="url(#clip740)" d="M1515.61 1566.99 Q1515.28 1567.37 1514.7 1567.37 Q1514.16 1567.37 1513.77 1566.99 L1500.12 1553.33 L1486.46 1566.99 Q1486.07 1567.37 1485.49 1567.37 Q1484.95 1567.37 1484.59 1566.99 Q1484.21 1566.63 1484.21 1566.09 Q1484.21 1565.54 1484.59 1565.15 L1498.25 1551.5 L1484.59 1537.84 Q1484.21 1537.45 1484.21 1536.91 Q1484.21 1536.33 1484.59 1536.01 Q1484.95 1535.62 1485.49 1535.62 Q1486.07 1535.62 1486.46 1536.01 L1500.12 1549.66 L1513.77 1536.01 Q1514.16 1535.62 1514.7 1535.62 Q1515.28 1535.62 1515.61 1536.01 Q1515.99 1536.33 1515.99 1536.91 Q1515.99 1537.45 1515.61 1537.84 L1501.95 1551.5 L1515.61 1565.15 Q1515.99 1565.54 1515.99 1566.12 Q1515.99 1566.67 1515.61 1566.99 Z" fill="#000000" fill-rule="nonzero" fill-opacity="1" /><path clip-path="url(#clip740)" d="M1602.6 1523.67 Q1602.6 1524.99 1601.47 1524.99 Q1597.83 1525.12 1596.35 1526.34 Q1594.9 1527.54 1594.35 1529.85 L1585.14 1566.6 Q1584.82 1567.76 1584.63 1567.89 Q1584.43 1567.99 1584.08 1567.99 Q1583.63 1567.99 1583.37 1567.76 Q1583.14 1567.54 1582.82 1566.73 L1566.4 1527.89 Q1566.27 1527.63 1566.11 1527.28 Q1565.95 1526.92 1565.82 1526.7 L1557.09 1561.51 Q1556.83 1562.51 1556.83 1563.03 Q1556.83 1564.28 1557.7 1565.09 Q1558.6 1565.86 1561.18 1565.96 Q1562.5 1565.96 1562.5 1566.67 Q1562.5 1567.99 1561.31 1567.99 Q1560.21 1567.99 1557.93 1567.89 Q1555.64 1567.79 1554.51 1567.79 Q1553.42 1567.79 1551.2 1567.89 Q1548.97 1567.99 1547.91 1567.99 Q1547.07 1567.99 1547.07 1567.25 Q1547.07 1566.67 1547.3 1566.38 Q1547.52 1566.05 1547.72 1566.02 Q1547.91 1565.96 1548.2 1565.96 Q1550.13 1565.89 1551.45 1565.51 Q1552.77 1565.12 1553.51 1564.38 Q1554.29 1563.64 1554.64 1562.9 Q1555.03 1562.12 1555.32 1561 L1564.14 1525.57 Q1564.14 1524.99 1559.67 1524.99 Q1558.89 1524.99 1558.57 1524.96 Q1558.28 1524.93 1558.06 1524.77 Q1557.83 1524.6 1557.83 1524.25 Q1557.83 1523.35 1558.22 1523.16 Q1558.6 1522.93 1559.73 1522.93 L1568.59 1522.93 Q1569.71 1522.93 1570 1523.12 Q1570.29 1523.28 1570.68 1524.19 L1585.27 1558.61 L1592.64 1529.27 Q1592.84 1528.69 1592.84 1527.89 Q1592.84 1526.6 1591.87 1525.83 Q1590.94 1525.02 1588.36 1524.99 Q1587.17 1524.99 1587.17 1524.25 Q1587.17 1523.64 1587.4 1523.35 Q1587.65 1523.03 1587.85 1522.99 Q1588.07 1522.93 1588.36 1522.93 Q1589.46 1522.93 1591.71 1523.03 Q1593.97 1523.12 1595.09 1523.12 Q1596.19 1523.12 1598.41 1523.03 Q1600.66 1522.93 1601.76 1522.93 Q1602.15 1522.93 1602.34 1523.12 Q1602.56 1523.28 1602.6 1523.48 L1602.6 1523.67 Z" fill="#000000" fill-rule="nonzero" fill-opacity="1" /><path clip-path="url(#clip740)" d="M1599.51 1518.52 L1604.61 1518.52 Q1609.38 1526.04 1611.74 1533.23 Q1614.12 1540.42 1614.12 1547.52 Q1614.12 1554.65 1611.74 1561.87 Q1609.38 1569.1 1604.61 1576.58 L1599.51 1576.58 Q1603.75 1569.29 1605.82 1562.1 Q1607.92 1554.87 1607.92 1547.52 Q1607.92 1540.17 1605.82 1533.01 Q1603.75 1525.84 1599.51 1518.52 Z" fill="#000000" fill-rule="nonzero" fill-opacity="1" /><polyline clip-path="url(#clip740)" style="stroke:#000000; stroke-linecap:round; stroke-linejoin:round; stroke-width:4; stroke-opacity:1; fill:none" points="247.459,1410.9 247.459,123.472 "/>
<polyline clip-path="url(#clip740)" style="stroke:#000000; stroke-linecap:round; stroke-linejoin:round; stroke-width:4; stroke-opacity:1; fill:none" points="247.459,1312.13 266.356,1312.13 "/>
<polyline clip-path="url(#clip740)" style="stroke:#000000; stroke-linecap:round; stroke-linejoin:round; stroke-width:4; stroke-opacity:1; fill:none" points="247.459,1050.36 266.356,1050.36 "/>
<polyline clip-path="url(#clip740)" style="stroke:#000000; stroke-linecap:round; stroke-linejoin:round; stroke-width:4; stroke-opacity:1; fill:none" points="247.459,788.58 266.356,788.58 "/>
<polyline clip-path="url(#clip740)" style="stroke:#000000; stroke-linecap:round; stroke-linejoin:round; stroke-width:4; stroke-opacity:1; fill:none" points="247.459,526.804 266.356,526.804 "/>
<polyline clip-path="url(#clip740)" style="stroke:#000000; stroke-linecap:round; stroke-linejoin:round; stroke-width:4; stroke-opacity:1; fill:none" points="247.459,265.028 266.356,265.028 "/>
<polyline clip-path="url(#clip740)" style="stroke:#000000; stroke-linecap:round; stroke-linejoin:round; stroke-width:4; stroke-opacity:1; fill:none" points="247.459,1364.49 256.908,1364.49 "/>
<polyline clip-path="url(#clip740)" style="stroke:#000000; stroke-linecap:round; stroke-linejoin:round; stroke-width:4; stroke-opacity:1; fill:none" points="247.459,1259.78 256.908,1259.78 "/>
<polyline clip-path="url(#clip740)" style="stroke:#000000; stroke-linecap:round; stroke-linejoin:round; stroke-width:4; stroke-opacity:1; fill:none" points="247.459,1207.42 256.908,1207.42 "/>
<polyline clip-path="url(#clip740)" style="stroke:#000000; stroke-linecap:round; stroke-linejoin:round; stroke-width:4; stroke-opacity:1; fill:none" points="247.459,1155.07 256.908,1155.07 "/>
<polyline clip-path="url(#clip740)" style="stroke:#000000; stroke-linecap:round; stroke-linejoin:round; stroke-width:4; stroke-opacity:1; fill:none" points="247.459,1102.71 256.908,1102.71 "/>
<polyline clip-path="url(#clip740)" style="stroke:#000000; stroke-linecap:round; stroke-linejoin:round; stroke-width:4; stroke-opacity:1; fill:none" points="247.459,998.001 256.908,998.001 "/>
<polyline clip-path="url(#clip740)" style="stroke:#000000; stroke-linecap:round; stroke-linejoin:round; stroke-width:4; stroke-opacity:1; fill:none" points="247.459,945.646 256.908,945.646 "/>
<polyline clip-path="url(#clip740)" style="stroke:#000000; stroke-linecap:round; stroke-linejoin:round; stroke-width:4; stroke-opacity:1; fill:none" points="247.459,893.29 256.908,893.29 "/>
<polyline clip-path="url(#clip740)" style="stroke:#000000; stroke-linecap:round; stroke-linejoin:round; stroke-width:4; stroke-opacity:1; fill:none" points="247.459,840.935 256.908,840.935 "/>
<polyline clip-path="url(#clip740)" style="stroke:#000000; stroke-linecap:round; stroke-linejoin:round; stroke-width:4; stroke-opacity:1; fill:none" points="247.459,736.225 256.908,736.225 "/>
<polyline clip-path="url(#clip740)" style="stroke:#000000; stroke-linecap:round; stroke-linejoin:round; stroke-width:4; stroke-opacity:1; fill:none" points="247.459,683.869 256.908,683.869 "/>
<polyline clip-path="url(#clip740)" style="stroke:#000000; stroke-linecap:round; stroke-linejoin:round; stroke-width:4; stroke-opacity:1; fill:none" points="247.459,631.514 256.908,631.514 "/>
<polyline clip-path="url(#clip740)" style="stroke:#000000; stroke-linecap:round; stroke-linejoin:round; stroke-width:4; stroke-opacity:1; fill:none" points="247.459,579.159 256.908,579.159 "/>
<polyline clip-path="url(#clip740)" style="stroke:#000000; stroke-linecap:round; stroke-linejoin:round; stroke-width:4; stroke-opacity:1; fill:none" points="247.459,474.449 256.908,474.449 "/>
<polyline clip-path="url(#clip740)" style="stroke:#000000; stroke-linecap:round; stroke-linejoin:round; stroke-width:4; stroke-opacity:1; fill:none" points="247.459,422.093 256.908,422.093 "/>
<polyline clip-path="url(#clip740)" style="stroke:#000000; stroke-linecap:round; stroke-linejoin:round; stroke-width:4; stroke-opacity:1; fill:none" points="247.459,369.738 256.908,369.738 "/>
<polyline clip-path="url(#clip740)" style="stroke:#000000; stroke-linecap:round; stroke-linejoin:round; stroke-width:4; stroke-opacity:1; fill:none" points="247.459,317.383 256.908,317.383 "/>
<polyline clip-path="url(#clip740)" style="stroke:#000000; stroke-linecap:round; stroke-linejoin:round; stroke-width:4; stroke-opacity:1; fill:none" points="247.459,212.672 256.908,212.672 "/>
<polyline clip-path="url(#clip740)" style="stroke:#000000; stroke-linecap:round; stroke-linejoin:round; stroke-width:4; stroke-opacity:1; fill:none" points="247.459,160.317 256.908,160.317 "/>
<path clip-path="url(#clip740)" d="M149.306 1325.48 L165.626 1325.48 L165.626 1329.41 L143.681 1329.41 L143.681 1325.48 Q146.343 1322.72 150.927 1318.09 Q155.533 1313.44 156.714 1312.1 Q158.959 1309.57 159.839 1307.84 Q160.741 1306.08 160.741 1304.39 Q160.741 1301.63 158.797 1299.9 Q156.876 1298.16 153.774 1298.16 Q151.575 1298.16 149.121 1298.93 Q146.691 1299.69 143.913 1301.24 L143.913 1296.52 Q146.737 1295.38 149.191 1294.81 Q151.644 1294.23 153.681 1294.23 Q159.052 1294.23 162.246 1296.91 Q165.44 1299.6 165.44 1304.09 Q165.44 1306.22 164.63 1308.14 Q163.843 1310.04 161.737 1312.63 Q161.158 1313.3 158.056 1316.52 Q154.954 1319.71 149.306 1325.48 Z" fill="#000000" fill-rule="nonzero" fill-opacity="1" /><path clip-path="url(#clip740)" d="M175.44 1323.53 L180.325 1323.53 L180.325 1329.41 L175.44 1329.41 L175.44 1323.53 Z" fill="#000000" fill-rule="nonzero" fill-opacity="1" /><path clip-path="url(#clip740)" d="M190.556 1294.85 L208.912 1294.85 L208.912 1298.79 L194.838 1298.79 L194.838 1307.26 Q195.857 1306.91 196.875 1306.75 Q197.894 1306.57 198.912 1306.57 Q204.699 1306.57 208.079 1309.74 Q211.459 1312.91 211.459 1318.32 Q211.459 1323.9 207.987 1327.01 Q204.514 1330.08 198.195 1330.08 Q196.019 1330.08 193.75 1329.71 Q191.505 1329.34 189.098 1328.6 L189.098 1323.9 Q191.181 1325.04 193.403 1325.59 Q195.625 1326.15 198.102 1326.15 Q202.107 1326.15 204.445 1324.04 Q206.783 1321.94 206.783 1318.32 Q206.783 1314.71 204.445 1312.61 Q202.107 1310.5 198.102 1310.5 Q196.227 1310.5 194.352 1310.92 Q192.5 1311.33 190.556 1312.21 L190.556 1294.85 Z" fill="#000000" fill-rule="nonzero" fill-opacity="1" /><path clip-path="url(#clip740)" d="M144.329 1033.08 L162.686 1033.08 L162.686 1037.01 L148.612 1037.01 L148.612 1045.48 Q149.63 1045.14 150.649 1044.97 Q151.667 1044.79 152.686 1044.79 Q158.473 1044.79 161.852 1047.96 Q165.232 1051.13 165.232 1056.55 Q165.232 1062.13 161.76 1065.23 Q158.288 1068.31 151.968 1068.31 Q149.792 1068.31 147.524 1067.94 Q145.279 1067.57 142.871 1066.83 L142.871 1062.13 Q144.954 1063.26 147.177 1063.82 Q149.399 1064.37 151.876 1064.37 Q155.88 1064.37 158.218 1062.27 Q160.556 1060.16 160.556 1056.55 Q160.556 1052.94 158.218 1050.83 Q155.88 1048.72 151.876 1048.72 Q150.001 1048.72 148.126 1049.14 Q146.274 1049.56 144.329 1050.44 L144.329 1033.08 Z" fill="#000000" fill-rule="nonzero" fill-opacity="1" /><path clip-path="url(#clip740)" d="M174.445 1061.76 L179.329 1061.76 L179.329 1067.64 L174.445 1067.64 L174.445 1061.76 Z" fill="#000000" fill-rule="nonzero" fill-opacity="1" /><path clip-path="url(#clip740)" d="M199.514 1036.15 Q195.903 1036.15 194.075 1039.72 Q192.269 1043.26 192.269 1050.39 Q192.269 1057.5 194.075 1061.06 Q195.903 1064.6 199.514 1064.6 Q203.149 1064.6 204.954 1061.06 Q206.783 1057.5 206.783 1050.39 Q206.783 1043.26 204.954 1039.72 Q203.149 1036.15 199.514 1036.15 M199.514 1032.45 Q205.324 1032.45 208.38 1037.06 Q211.459 1041.64 211.459 1050.39 Q211.459 1059.12 208.38 1063.72 Q205.324 1068.31 199.514 1068.31 Q193.704 1068.31 190.625 1063.72 Q187.57 1059.12 187.57 1050.39 Q187.57 1041.64 190.625 1037.06 Q193.704 1032.45 199.514 1032.45 Z" fill="#000000" fill-rule="nonzero" fill-opacity="1" /><path clip-path="url(#clip740)" d="M144.098 771.3 L166.32 771.3 L166.32 773.291 L153.774 805.86 L148.89 805.86 L160.695 775.235 L144.098 775.235 L144.098 771.3 Z" fill="#000000" fill-rule="nonzero" fill-opacity="1" /><path clip-path="url(#clip740)" d="M175.44 799.98 L180.325 799.98 L180.325 805.86 L175.44 805.86 L175.44 799.98 Z" fill="#000000" fill-rule="nonzero" fill-opacity="1" /><path clip-path="url(#clip740)" d="M190.556 771.3 L208.912 771.3 L208.912 775.235 L194.838 775.235 L194.838 783.707 Q195.857 783.36 196.875 783.198 Q197.894 783.013 198.912 783.013 Q204.699 783.013 208.079 786.184 Q211.459 789.355 211.459 794.772 Q211.459 800.351 207.987 803.453 Q204.514 806.531 198.195 806.531 Q196.019 806.531 193.75 806.161 Q191.505 805.791 189.098 805.05 L189.098 800.351 Q191.181 801.485 193.403 802.041 Q195.625 802.596 198.102 802.596 Q202.107 802.596 204.445 800.49 Q206.783 798.383 206.783 794.772 Q206.783 791.161 204.445 789.055 Q202.107 786.948 198.102 786.948 Q196.227 786.948 194.352 787.365 Q192.5 787.781 190.556 788.661 L190.556 771.3 Z" fill="#000000" fill-rule="nonzero" fill-opacity="1" /><path clip-path="url(#clip740)" d="M114.931 540.149 L122.57 540.149 L122.57 513.783 L114.26 515.45 L114.26 511.19 L122.524 509.524 L127.2 509.524 L127.2 540.149 L134.839 540.149 L134.839 544.084 L114.931 544.084 L114.931 540.149 Z" fill="#000000" fill-rule="nonzero" fill-opacity="1" /><path clip-path="url(#clip740)" d="M154.283 512.602 Q150.672 512.602 148.843 516.167 Q147.038 519.709 147.038 526.838 Q147.038 533.945 148.843 537.51 Q150.672 541.051 154.283 541.051 Q157.917 541.051 159.723 537.51 Q161.552 533.945 161.552 526.838 Q161.552 519.709 159.723 516.167 Q157.917 512.602 154.283 512.602 M154.283 508.899 Q160.093 508.899 163.149 513.505 Q166.227 518.089 166.227 526.838 Q166.227 535.565 163.149 540.172 Q160.093 544.755 154.283 544.755 Q148.473 544.755 145.394 540.172 Q142.339 535.565 142.339 526.838 Q142.339 518.089 145.394 513.505 Q148.473 508.899 154.283 508.899 Z" fill="#000000" fill-rule="nonzero" fill-opacity="1" /><path clip-path="url(#clip740)" d="M174.445 538.204 L179.329 538.204 L179.329 544.084 L174.445 544.084 L174.445 538.204 Z" fill="#000000" fill-rule="nonzero" fill-opacity="1" /><path clip-path="url(#clip740)" d="M199.514 512.602 Q195.903 512.602 194.075 516.167 Q192.269 519.709 192.269 526.838 Q192.269 533.945 194.075 537.51 Q195.903 541.051 199.514 541.051 Q203.149 541.051 204.954 537.51 Q206.783 533.945 206.783 526.838 Q206.783 519.709 204.954 516.167 Q203.149 512.602 199.514 512.602 M199.514 508.899 Q205.324 508.899 208.38 513.505 Q211.459 518.089 211.459 526.838 Q211.459 535.565 208.38 540.172 Q205.324 544.755 199.514 544.755 Q193.704 544.755 190.625 540.172 Q187.57 535.565 187.57 526.838 Q187.57 518.089 190.625 513.505 Q193.704 508.899 199.514 508.899 Z" fill="#000000" fill-rule="nonzero" fill-opacity="1" /><path clip-path="url(#clip740)" d="M115.927 278.372 L123.566 278.372 L123.566 252.007 L115.256 253.673 L115.256 249.414 L123.519 247.748 L128.195 247.748 L128.195 278.372 L135.834 278.372 L135.834 282.308 L115.927 282.308 L115.927 278.372 Z" fill="#000000" fill-rule="nonzero" fill-opacity="1" /><path clip-path="url(#clip740)" d="M149.306 278.372 L165.626 278.372 L165.626 282.308 L143.681 282.308 L143.681 278.372 Q146.343 275.618 150.927 270.988 Q155.533 266.335 156.714 264.993 Q158.959 262.47 159.839 260.734 Q160.741 258.974 160.741 257.285 Q160.741 254.53 158.797 252.794 Q156.876 251.058 153.774 251.058 Q151.575 251.058 149.121 251.822 Q146.691 252.585 143.913 254.136 L143.913 249.414 Q146.737 248.28 149.191 247.701 Q151.644 247.123 153.681 247.123 Q159.052 247.123 162.246 249.808 Q165.44 252.493 165.44 256.984 Q165.44 259.113 164.63 261.035 Q163.843 262.933 161.737 265.525 Q161.158 266.197 158.056 269.414 Q154.954 272.609 149.306 278.372 Z" fill="#000000" fill-rule="nonzero" fill-opacity="1" /><path clip-path="url(#clip740)" d="M175.44 276.428 L180.325 276.428 L180.325 282.308 L175.44 282.308 L175.44 276.428 Z" fill="#000000" fill-rule="nonzero" fill-opacity="1" /><path clip-path="url(#clip740)" d="M190.556 247.748 L208.912 247.748 L208.912 251.683 L194.838 251.683 L194.838 260.155 Q195.857 259.808 196.875 259.646 Q197.894 259.46 198.912 259.46 Q204.699 259.46 208.079 262.632 Q211.459 265.803 211.459 271.22 Q211.459 276.798 207.987 279.9 Q204.514 282.979 198.195 282.979 Q196.019 282.979 193.75 282.608 Q191.505 282.238 189.098 281.497 L189.098 276.798 Q191.181 277.933 193.403 278.488 Q195.625 279.044 198.102 279.044 Q202.107 279.044 204.445 276.937 Q206.783 274.831 206.783 271.22 Q206.783 267.609 204.445 265.502 Q202.107 263.396 198.102 263.396 Q196.227 263.396 194.352 263.812 Q192.5 264.229 190.556 265.109 L190.556 247.748 Z" fill="#000000" fill-rule="nonzero" fill-opacity="1" /><path clip-path="url(#clip740)" d="M18.0438 1329.63 L24.314 1329.63 Q22.5634 1333.29 21.704 1336.53 Q20.8447 1339.78 20.8447 1342.8 Q20.8447 1348.06 22.8817 1350.92 Q24.9187 1353.75 28.6745 1353.75 Q31.8255 1353.75 33.4488 1351.87 Q35.0402 1349.96 36.0269 1344.68 L36.8226 1340.8 Q38.1912 1333.6 41.6605 1330.2 Q45.098 1326.76 50.8908 1326.76 Q57.7976 1326.76 61.3624 1331.41 Q64.9272 1336.02 64.9272 1344.97 Q64.9272 1348.34 64.1633 1352.16 Q63.3994 1355.95 61.9035 1360.02 L55.2831 1360.02 Q57.4793 1356.11 58.5933 1352.35 Q59.7073 1348.6 59.7073 1344.97 Q59.7073 1339.46 57.543 1336.47 Q55.3786 1333.48 51.3682 1333.48 Q47.8671 1333.48 45.8937 1335.64 Q43.9204 1337.77 42.9337 1342.68 L42.1698 1346.59 Q40.7375 1353.78 37.682 1357 Q34.6264 1360.21 29.1837 1360.21 Q22.8817 1360.21 19.2532 1355.79 Q15.6248 1351.33 15.6248 1343.54 Q15.6248 1340.19 16.2295 1336.72 Q16.8343 1333.25 18.0438 1329.63 Z" fill="#000000" fill-rule="nonzero" fill-opacity="1" /><path clip-path="url(#clip740)" d="M58.657 1311.32 L77.5631 1311.32 L77.5631 1317.21 L28.3562 1317.21 L28.3562 1311.32 L33.7671 1311.32 Q30.5842 1309.48 29.0564 1306.68 Q27.4968 1303.85 27.4968 1299.93 Q27.4968 1293.44 32.6531 1289.4 Q37.8093 1285.32 46.212 1285.32 Q54.6147 1285.32 59.771 1289.4 Q64.9272 1293.44 64.9272 1299.93 Q64.9272 1303.85 63.3994 1306.68 Q61.8398 1309.48 58.657 1311.32 M46.212 1291.4 Q39.7508 1291.4 36.0905 1294.07 Q32.3984 1296.72 32.3984 1301.36 Q32.3984 1306.01 36.0905 1308.68 Q39.7508 1311.32 46.212 1311.32 Q52.6732 1311.32 56.3653 1308.68 Q60.0256 1306.01 60.0256 1301.36 Q60.0256 1296.72 56.3653 1294.07 Q52.6732 1291.4 46.212 1291.4 Z" fill="#000000" fill-rule="nonzero" fill-opacity="1" /><path clip-path="url(#clip740)" d="M44.7161 1245.12 L47.5806 1245.12 L47.5806 1272.05 Q53.6281 1271.67 56.8109 1268.42 Q59.9619 1265.14 59.9619 1259.32 Q59.9619 1255.94 59.1344 1252.79 Q58.3069 1249.61 56.6518 1246.49 L62.1899 1246.49 Q63.5267 1249.64 64.227 1252.95 Q64.9272 1256.26 64.9272 1259.67 Q64.9272 1268.2 59.9619 1273.19 Q54.9967 1278.16 46.5303 1278.16 Q37.7774 1278.16 32.6531 1273.45 Q27.4968 1268.71 27.4968 1260.69 Q27.4968 1253.49 32.1438 1249.32 Q36.7589 1245.12 44.7161 1245.12 M42.9973 1250.98 Q38.1912 1251.04 35.3266 1253.68 Q32.4621 1256.29 32.4621 1260.62 Q32.4621 1265.52 35.2312 1268.48 Q38.0002 1271.41 43.0292 1271.86 L42.9973 1250.98 Z" fill="#000000" fill-rule="nonzero" fill-opacity="1" /><path clip-path="url(#clip740)" d="M44.7161 1205.02 L47.5806 1205.02 L47.5806 1231.94 Q53.6281 1231.56 56.8109 1228.32 Q59.9619 1225.04 59.9619 1219.21 Q59.9619 1215.84 59.1344 1212.69 Q58.3069 1209.51 56.6518 1206.39 L62.1899 1206.39 Q63.5267 1209.54 64.227 1212.85 Q64.9272 1216.16 64.9272 1219.56 Q64.9272 1228.09 59.9619 1233.09 Q54.9967 1238.06 46.5303 1238.06 Q37.7774 1238.06 32.6531 1233.35 Q27.4968 1228.6 27.4968 1220.58 Q27.4968 1213.39 32.1438 1209.22 Q36.7589 1205.02 44.7161 1205.02 M42.9973 1210.87 Q38.1912 1210.94 35.3266 1213.58 Q32.4621 1216.19 32.4621 1220.52 Q32.4621 1225.42 35.2312 1228.38 Q38.0002 1231.31 43.0292 1231.75 L42.9973 1210.87 Z" fill="#000000" fill-rule="nonzero" fill-opacity="1" /><path clip-path="url(#clip740)" d="M33.7671 1171.95 L14.479 1171.95 L14.479 1166.09 L64.0042 1166.09 L64.0042 1171.95 L58.657 1171.95 Q61.8398 1173.79 63.3994 1176.63 Q64.9272 1179.43 64.9272 1183.37 Q64.9272 1189.84 59.771 1193.91 Q54.6147 1197.95 46.212 1197.95 Q37.8093 1197.95 32.6531 1193.91 Q27.4968 1189.84 27.4968 1183.37 Q27.4968 1179.43 29.0564 1176.63 Q30.5842 1173.79 33.7671 1171.95 M46.212 1191.9 Q52.6732 1191.9 56.3653 1189.26 Q60.0256 1186.59 60.0256 1181.94 Q60.0256 1177.3 56.3653 1174.62 Q52.6732 1171.95 46.212 1171.95 Q39.7508 1171.95 36.0905 1174.62 Q32.3984 1177.3 32.3984 1181.94 Q32.3984 1186.59 36.0905 1189.26 Q39.7508 1191.9 46.212 1191.9 Z" fill="#000000" fill-rule="nonzero" fill-opacity="1" /><path clip-path="url(#clip740)" d="M49.9359 1154.63 L28.3562 1154.63 L28.3562 1148.78 L49.7131 1148.78 Q54.7739 1148.78 57.3202 1146.8 Q59.8346 1144.83 59.8346 1140.88 Q59.8346 1136.14 56.8109 1133.4 Q53.7872 1130.63 48.5673 1130.63 L28.3562 1130.63 L28.3562 1124.78 L64.0042 1124.78 L64.0042 1130.63 L58.5296 1130.63 Q61.7762 1132.77 63.3676 1135.6 Q64.9272 1138.4 64.9272 1142.12 Q64.9272 1148.27 61.1078 1151.45 Q57.2883 1154.63 49.9359 1154.63 M27.4968 1139.9 L27.4968 1139.9 Z" fill="#000000" fill-rule="nonzero" fill-opacity="1" /><path clip-path="url(#clip740)" d="M58.657 1107.05 L77.5631 1107.05 L77.5631 1112.94 L28.3562 1112.94 L28.3562 1107.05 L33.7671 1107.05 Q30.5842 1105.2 29.0564 1102.4 Q27.4968 1099.57 27.4968 1095.65 Q27.4968 1089.16 32.6531 1085.12 Q37.8093 1081.05 46.212 1081.05 Q54.6147 1081.05 59.771 1085.12 Q64.9272 1089.16 64.9272 1095.65 Q64.9272 1099.57 63.3994 1102.4 Q61.8398 1105.2 58.657 1107.05 M46.212 1087.12 Q39.7508 1087.12 36.0905 1089.8 Q32.3984 1092.44 32.3984 1097.09 Q32.3984 1101.73 36.0905 1104.41 Q39.7508 1107.05 46.212 1107.05 Q52.6732 1107.05 56.3653 1104.41 Q60.0256 1101.73 60.0256 1097.09 Q60.0256 1092.44 56.3653 1089.8 Q52.6732 1087.12 46.212 1087.12 Z" fill="#000000" fill-rule="nonzero" fill-opacity="1" /><path clip-path="url(#clip740)" d="M14.5426 1036.55 Q21.8632 1040.81 29.0246 1042.88 Q36.186 1044.95 43.5384 1044.95 Q50.8908 1044.95 58.1159 1042.88 Q65.3091 1040.78 72.5979 1036.55 L72.5979 1041.64 Q65.1182 1046.42 57.8931 1048.8 Q50.668 1051.16 43.5384 1051.16 Q36.4406 1051.16 29.2474 1048.8 Q22.0542 1046.45 14.5426 1041.64 L14.5426 1036.55 Z" fill="#000000" fill-rule="nonzero" fill-opacity="1" /><path clip-path="url(#clip740)" d="M21.7677 1018.5 L58.7206 1018.5 L58.7206 1010.74 Q58.7206 1000.9 54.2646 996.35 Q49.8086 991.767 40.1964 991.767 Q30.6479 991.767 26.2237 996.35 Q21.7677 1000.9 21.7677 1010.74 L21.7677 1018.5 M16.4842 1024.93 L16.4842 1011.72 Q16.4842 997.909 22.2451 991.448 Q27.9743 984.987 40.1964 984.987 Q52.4822 984.987 58.2432 991.48 Q64.0042 997.973 64.0042 1011.72 L64.0042 1024.93 L16.4842 1024.93 Z" fill="#000000" fill-rule="nonzero" fill-opacity="1" /><path clip-path="url(#clip740)" d="M28.3562 974.993 L28.3562 969.136 L64.0042 969.136 L64.0042 974.993 L28.3562 974.993 M14.479 974.993 L14.479 969.136 L21.895 969.136 L21.895 974.993 L14.479 974.993 Z" fill="#000000" fill-rule="nonzero" fill-opacity="1" /><path clip-path="url(#clip740)" d="M33.8307 936.226 Q33.2578 937.212 33.0032 938.39 Q32.7167 939.536 32.7167 940.936 Q32.7167 945.902 35.9632 948.575 Q39.1779 951.217 45.2253 951.217 L64.0042 951.217 L64.0042 957.105 L28.3562 957.105 L28.3562 951.217 L33.8944 951.217 Q30.6479 949.371 29.0883 946.411 Q27.4968 943.451 27.4968 939.218 Q27.4968 938.613 27.5923 937.881 Q27.656 937.149 27.8151 936.258 L33.8307 936.226 Z" fill="#000000" fill-rule="nonzero" fill-opacity="1" /><path clip-path="url(#clip740)" d="M44.7161 901.023 L47.5806 901.023 L47.5806 927.95 Q53.6281 927.568 56.8109 924.322 Q59.9619 921.044 59.9619 915.219 Q59.9619 911.845 59.1344 908.694 Q58.3069 905.511 56.6518 902.392 L62.1899 902.392 Q63.5267 905.543 64.227 908.853 Q64.9272 912.163 64.9272 915.569 Q64.9272 924.099 59.9619 929.096 Q54.9967 934.061 46.5303 934.061 Q37.7774 934.061 32.6531 929.351 Q27.4968 924.608 27.4968 916.588 Q27.4968 909.394 32.1438 905.225 Q36.7589 901.023 44.7161 901.023 M42.9973 906.88 Q38.1912 906.943 35.3266 909.585 Q32.4621 912.195 32.4621 916.524 Q32.4621 921.425 35.2312 924.386 Q38.0002 927.314 43.0292 927.759 L42.9973 906.88 Z" fill="#000000" fill-rule="nonzero" fill-opacity="1" /><path clip-path="url(#clip740)" d="M29.7248 865.757 L35.1993 865.757 Q33.8307 868.24 33.1623 870.754 Q32.4621 873.237 32.4621 875.783 Q32.4621 881.481 36.0905 884.632 Q39.6872 887.783 46.212 887.783 Q52.7369 887.783 56.3653 884.632 Q59.9619 881.481 59.9619 875.783 Q59.9619 873.237 59.2935 870.754 Q58.5933 868.24 57.2247 865.757 L62.6355 865.757 Q63.7814 868.208 64.3543 870.85 Q64.9272 873.46 64.9272 876.42 Q64.9272 884.473 59.8664 889.215 Q54.8057 893.957 46.212 893.957 Q37.491 893.957 32.4939 889.183 Q27.4968 884.377 27.4968 876.038 Q27.4968 873.333 28.0697 870.754 Q28.6108 868.176 29.7248 865.757 Z" fill="#000000" fill-rule="nonzero" fill-opacity="1" /><path clip-path="url(#clip740)" d="M18.2347 849.779 L28.3562 849.779 L28.3562 837.716 L32.9077 837.716 L32.9077 849.779 L52.2594 849.779 Q56.6199 849.779 57.8613 848.602 Q59.1026 847.392 59.1026 843.732 L59.1026 837.716 L64.0042 837.716 L64.0042 843.732 Q64.0042 850.511 61.4897 853.09 Q58.9434 855.668 52.2594 855.668 L32.9077 855.668 L32.9077 859.965 L28.3562 859.965 L28.3562 855.668 L18.2347 855.668 L18.2347 849.779 Z" fill="#000000" fill-rule="nonzero" fill-opacity="1" /><path clip-path="url(#clip740)" d="M16.4842 815.627 L16.4842 775.428 L21.895 775.428 L21.895 792.297 L64.0042 792.297 L64.0042 798.758 L21.895 798.758 L21.895 815.627 L16.4842 815.627 Z" fill="#000000" fill-rule="nonzero" fill-opacity="1" /><path clip-path="url(#clip740)" d="M28.3562 771.481 L28.3562 765.625 L64.0042 765.625 L64.0042 771.481 L28.3562 771.481 M14.479 771.481 L14.479 765.625 L21.895 765.625 L21.895 771.481 L14.479 771.481 Z" fill="#000000" fill-rule="nonzero" fill-opacity="1" /><path clip-path="url(#clip740)" d="M35.1993 725.616 Q31.2526 723.42 29.3747 720.365 Q27.4968 717.309 27.4968 713.171 Q27.4968 707.601 31.4117 704.578 Q35.2948 701.554 42.4881 701.554 L64.0042 701.554 L64.0042 707.442 L42.679 707.442 Q37.5546 707.442 35.072 709.256 Q32.5894 711.071 32.5894 714.795 Q32.5894 719.346 35.6131 721.988 Q38.6368 724.63 43.8567 724.63 L64.0042 724.63 L64.0042 730.518 L42.679 730.518 Q37.5228 730.518 35.072 732.332 Q32.5894 734.146 32.5894 737.934 Q32.5894 742.422 35.6449 745.064 Q38.6686 747.705 43.8567 747.705 L64.0042 747.705 L64.0042 753.594 L28.3562 753.594 L28.3562 747.705 L33.8944 747.705 Q30.616 745.7 29.0564 742.899 Q27.4968 740.098 27.4968 736.247 Q27.4968 732.364 29.4702 729.659 Q31.4436 726.921 35.1993 725.616 Z" fill="#000000" fill-rule="nonzero" fill-opacity="1" /><path clip-path="url(#clip740)" d="M44.7161 659.381 L47.5806 659.381 L47.5806 686.308 Q53.6281 685.926 56.8109 682.68 Q59.9619 679.401 59.9619 673.577 Q59.9619 670.203 59.1344 667.052 Q58.3069 663.869 56.6518 660.75 L62.1899 660.75 Q63.5267 663.901 64.227 667.211 Q64.9272 670.521 64.9272 673.927 Q64.9272 682.457 59.9619 687.454 Q54.9967 692.419 46.5303 692.419 Q37.7774 692.419 32.6531 687.709 Q27.4968 682.966 27.4968 674.945 Q27.4968 667.752 32.1438 663.583 Q36.7589 659.381 44.7161 659.381 M42.9973 665.238 Q38.1912 665.301 35.3266 667.943 Q32.4621 670.553 32.4621 674.882 Q32.4621 679.783 35.2312 682.743 Q38.0002 685.672 43.0292 686.117 L42.9973 665.238 Z" fill="#000000" fill-rule="nonzero" fill-opacity="1" /><path clip-path="url(#clip740)" d="M16.4842 618.641 L16.4842 613.23 L70.0516 629.781 L70.0516 635.191 L16.4842 618.641 Z" fill="#000000" fill-rule="nonzero" fill-opacity="1" /><path clip-path="url(#clip740)" d="M20.8447 566.824 Q20.8447 573.826 26.0645 577.964 Q31.2844 582.07 40.2919 582.07 Q49.2675 582.07 54.4874 577.964 Q59.7073 573.826 59.7073 566.824 Q59.7073 559.821 54.4874 555.747 Q49.2675 551.642 40.2919 551.642 Q31.2844 551.642 26.0645 555.747 Q20.8447 559.821 20.8447 566.824 M15.6248 566.824 Q15.6248 556.83 22.3406 550.846 Q29.0246 544.862 40.2919 544.862 Q51.5274 544.862 58.2432 550.846 Q64.9272 556.83 64.9272 566.824 Q64.9272 576.85 58.2432 582.865 Q51.5592 588.849 40.2919 588.849 Q29.0246 588.849 22.3406 582.865 Q15.6248 576.85 15.6248 566.824 Z" fill="#000000" fill-rule="nonzero" fill-opacity="1" /><path clip-path="url(#clip740)" d="M29.7248 509.405 L35.1993 509.405 Q33.8307 511.888 33.1623 514.402 Q32.4621 516.885 32.4621 519.431 Q32.4621 525.128 36.0905 528.279 Q39.6872 531.43 46.212 531.43 Q52.7369 531.43 56.3653 528.279 Q59.9619 525.128 59.9619 519.431 Q59.9619 516.885 59.2935 514.402 Q58.5933 511.888 57.2247 509.405 L62.6355 509.405 Q63.7814 511.856 64.3543 514.498 Q64.9272 517.108 64.9272 520.068 Q64.9272 528.12 59.8664 532.863 Q54.8057 537.605 46.212 537.605 Q37.491 537.605 32.4939 532.831 Q27.4968 528.025 27.4968 519.686 Q27.4968 516.98 28.0697 514.402 Q28.6108 511.824 29.7248 509.405 Z" fill="#000000" fill-rule="nonzero" fill-opacity="1" /><path clip-path="url(#clip740)" d="M18.2347 493.427 L28.3562 493.427 L28.3562 481.364 L32.9077 481.364 L32.9077 493.427 L52.2594 493.427 Q56.6199 493.427 57.8613 492.25 Q59.1026 491.04 59.1026 487.38 L59.1026 481.364 L64.0042 481.364 L64.0042 487.38 Q64.0042 494.159 61.4897 496.737 Q58.9434 499.315 52.2594 499.315 L32.9077 499.315 L32.9077 503.612 L28.3562 503.612 L28.3562 499.315 L18.2347 499.315 L18.2347 493.427 Z" fill="#000000" fill-rule="nonzero" fill-opacity="1" /><path clip-path="url(#clip740)" d="M33.8307 453.005 Q33.2578 453.992 33.0032 455.169 Q32.7167 456.315 32.7167 457.716 Q32.7167 462.681 35.9632 465.354 Q39.1779 467.996 45.2253 467.996 L64.0042 467.996 L64.0042 473.884 L28.3562 473.884 L28.3562 467.996 L33.8944 467.996 Q30.6479 466.15 29.0883 463.19 Q27.4968 460.23 27.4968 455.997 Q27.4968 455.392 27.5923 454.66 Q27.656 453.928 27.8151 453.037 L33.8307 453.005 Z" fill="#000000" fill-rule="nonzero" fill-opacity="1" /><path clip-path="url(#clip740)" d="M44.7161 417.803 L47.5806 417.803 L47.5806 444.73 Q53.6281 444.348 56.8109 441.101 Q59.9619 437.823 59.9619 431.998 Q59.9619 428.624 59.1344 425.473 Q58.3069 422.29 56.6518 419.171 L62.1899 419.171 Q63.5267 422.322 64.227 425.632 Q64.9272 428.943 64.9272 432.348 Q64.9272 440.878 59.9619 445.875 Q54.9967 450.841 46.5303 450.841 Q37.7774 450.841 32.6531 446.13 Q27.4968 441.388 27.4968 433.367 Q27.4968 426.173 32.1438 422.004 Q36.7589 417.803 44.7161 417.803 M42.9973 423.659 Q38.1912 423.723 35.3266 426.364 Q32.4621 428.974 32.4621 433.303 Q32.4621 438.205 35.2312 441.165 Q38.0002 444.093 43.0292 444.539 L42.9973 423.659 Z" fill="#000000" fill-rule="nonzero" fill-opacity="1" /><path clip-path="url(#clip740)" d="M44.7161 377.699 L47.5806 377.699 L47.5806 404.626 Q53.6281 404.244 56.8109 400.997 Q59.9619 397.719 59.9619 391.894 Q59.9619 388.52 59.1344 385.369 Q58.3069 382.186 56.6518 379.067 L62.1899 379.067 Q63.5267 382.218 64.227 385.528 Q64.9272 388.839 64.9272 392.244 Q64.9272 400.774 59.9619 405.771 Q54.9967 410.737 46.5303 410.737 Q37.7774 410.737 32.6531 406.026 Q27.4968 401.284 27.4968 393.263 Q27.4968 386.07 32.1438 381.9 Q36.7589 377.699 44.7161 377.699 M42.9973 383.555 Q38.1912 383.619 35.3266 386.26 Q32.4621 388.87 32.4621 393.199 Q32.4621 398.101 35.2312 401.061 Q38.0002 403.989 43.0292 404.435 L42.9973 383.555 Z" fill="#000000" fill-rule="nonzero" fill-opacity="1" /><path clip-path="url(#clip740)" d="M16.4842 353.7 L16.4842 313.5 L21.895 313.5 L21.895 330.37 L64.0042 330.37 L64.0042 336.831 L21.895 336.831 L21.895 353.7 L16.4842 353.7 Z" fill="#000000" fill-rule="nonzero" fill-opacity="1" /><path clip-path="url(#clip740)" d="M28.3562 309.554 L28.3562 303.697 L64.0042 303.697 L64.0042 309.554 L28.3562 309.554 M14.479 309.554 L14.479 303.697 L21.895 303.697 L21.895 309.554 L14.479 309.554 Z" fill="#000000" fill-rule="nonzero" fill-opacity="1" /><path clip-path="url(#clip740)" d="M35.1993 263.689 Q31.2526 261.493 29.3747 258.437 Q27.4968 255.382 27.4968 251.244 Q27.4968 245.674 31.4117 242.65 Q35.2948 239.626 42.4881 239.626 L64.0042 239.626 L64.0042 245.515 L42.679 245.515 Q37.5546 245.515 35.072 247.329 Q32.5894 249.143 32.5894 252.867 Q32.5894 257.419 35.6131 260.06 Q38.6368 262.702 43.8567 262.702 L64.0042 262.702 L64.0042 268.59 L42.679 268.59 Q37.5228 268.59 35.072 270.405 Q32.5894 272.219 32.5894 276.006 Q32.5894 280.494 35.6449 283.136 Q38.6686 285.778 43.8567 285.778 L64.0042 285.778 L64.0042 291.666 L28.3562 291.666 L28.3562 285.778 L33.8944 285.778 Q30.616 283.773 29.0564 280.972 Q27.4968 278.171 27.4968 274.32 Q27.4968 270.436 29.4702 267.731 Q31.4436 264.994 35.1993 263.689 Z" fill="#000000" fill-rule="nonzero" fill-opacity="1" /><path clip-path="url(#clip740)" d="M44.7161 197.454 L47.5806 197.454 L47.5806 224.381 Q53.6281 223.999 56.8109 220.752 Q59.9619 217.474 59.9619 211.649 Q59.9619 208.275 59.1344 205.124 Q58.3069 201.941 56.6518 198.822 L62.1899 198.822 Q63.5267 201.973 64.227 205.283 Q64.9272 208.594 64.9272 211.999 Q64.9272 220.529 59.9619 225.526 Q54.9967 230.492 46.5303 230.492 Q37.7774 230.492 32.6531 225.781 Q27.4968 221.039 27.4968 213.018 Q27.4968 205.825 32.1438 201.655 Q36.7589 197.454 44.7161 197.454 M42.9973 203.31 Q38.1912 203.374 35.3266 206.016 Q32.4621 208.625 32.4621 212.954 Q32.4621 217.856 35.2312 220.816 Q38.0002 223.744 43.0292 224.19 L42.9973 203.31 Z" fill="#000000" fill-rule="nonzero" fill-opacity="1" /><path clip-path="url(#clip740)" d="M14.5426 188.764 L14.5426 183.672 Q22.0542 178.898 29.2474 176.542 Q36.4406 174.155 43.5384 174.155 Q50.668 174.155 57.8931 176.542 Q65.1182 178.898 72.5979 183.672 L72.5979 188.764 Q65.3091 184.531 58.1159 182.462 Q50.8908 180.362 43.5384 180.362 Q36.186 180.362 29.0246 182.462 Q21.8632 184.531 14.5426 188.764 Z" fill="#000000" fill-rule="nonzero" fill-opacity="1" /><path clip-path="url(#clip740)" d="M425.847 19.8221 Q416.935 19.8221 411.669 26.4655 Q406.443 33.109 406.443 44.5731 Q406.443 55.9966 411.669 62.6401 Q416.935 69.2836 425.847 69.2836 Q434.759 69.2836 439.944 62.6401 Q445.17 55.9966 445.17 44.5731 Q445.17 33.109 439.944 26.4655 Q434.759 19.8221 425.847 19.8221 M425.847 13.1786 Q438.567 13.1786 446.182 21.726 Q453.798 30.2329 453.798 44.5731 Q453.798 58.8728 446.182 67.4202 Q438.567 75.9271 425.847 75.9271 Q413.087 75.9271 405.43 67.4202 Q397.815 58.9133 397.815 44.5731 Q397.815 30.2329 405.43 21.726 Q413.087 13.1786 425.847 13.1786 Z" fill="#000000" fill-rule="nonzero" fill-opacity="1" /><path clip-path="url(#clip740)" d="M498.925 31.1241 L498.925 38.0916 Q495.765 36.3497 492.565 35.4991 Q489.406 34.6079 486.165 34.6079 Q478.914 34.6079 474.903 39.2259 Q470.893 43.8034 470.893 52.1078 Q470.893 60.4121 474.903 65.0301 Q478.914 69.6077 486.165 69.6077 Q489.406 69.6077 492.565 68.757 Q495.765 67.8658 498.925 66.1239 L498.925 73.0104 Q495.806 74.4687 492.444 75.1979 Q489.122 75.9271 485.355 75.9271 Q475.106 75.9271 469.07 69.4861 Q463.034 63.0452 463.034 52.1078 Q463.034 41.0083 469.111 34.6484 Q475.227 28.2884 485.841 28.2884 Q489.284 28.2884 492.565 29.0176 Q495.846 29.7063 498.925 31.1241 Z" fill="#000000" fill-rule="nonzero" fill-opacity="1" /><path clip-path="url(#clip740)" d="M519.261 16.5003 L519.261 29.3822 L534.614 29.3822 L534.614 35.175 L519.261 35.175 L519.261 59.8045 Q519.261 65.3542 520.76 66.9341 Q522.299 68.5139 526.957 68.5139 L534.614 68.5139 L534.614 74.7523 L526.957 74.7523 Q518.329 74.7523 515.048 71.5521 Q511.767 68.3114 511.767 59.8045 L511.767 35.175 L506.298 35.175 L506.298 29.3822 L511.767 29.3822 L511.767 16.5003 L519.261 16.5003 Z" fill="#000000" fill-rule="nonzero" fill-opacity="1" /><path clip-path="url(#clip740)" d="M570.707 36.3497 Q569.451 35.6206 567.953 35.2965 Q566.494 34.9319 564.712 34.9319 Q558.392 34.9319 554.99 39.0638 Q551.627 43.1553 551.627 50.852 L551.627 74.7523 L544.133 74.7523 L544.133 29.3822 L551.627 29.3822 L551.627 36.4308 Q553.977 32.2988 557.744 30.3139 Q561.512 28.2884 566.899 28.2884 Q567.669 28.2884 568.601 28.41 Q569.532 28.491 570.667 28.6935 L570.707 36.3497 Z" fill="#000000" fill-rule="nonzero" fill-opacity="1" /><path clip-path="url(#clip740)" d="M615.51 50.2038 L615.51 53.8496 L581.24 53.8496 Q581.726 61.5464 585.858 65.5973 Q590.03 69.6077 597.443 69.6077 Q601.737 69.6077 605.748 68.5544 Q609.798 67.5012 613.768 65.3947 L613.768 72.4433 Q609.758 74.1447 605.545 75.0359 Q601.332 75.9271 596.998 75.9271 Q586.141 75.9271 579.781 69.6077 Q573.462 63.2883 573.462 52.5128 Q573.462 41.3729 579.457 34.8509 Q585.493 28.2884 595.701 28.2884 Q604.856 28.2884 610.163 34.2028 Q615.51 40.0766 615.51 50.2038 M608.057 48.0163 Q607.976 41.8995 604.613 38.2537 Q601.292 34.6079 595.782 34.6079 Q589.544 34.6079 585.777 38.1321 Q582.05 41.6564 581.483 48.0569 L608.057 48.0163 Z" fill="#000000" fill-rule="nonzero" fill-opacity="1" /><path clip-path="url(#clip740)" d="M666.552 50.2038 L666.552 53.8496 L632.281 53.8496 Q632.767 61.5464 636.899 65.5973 Q641.071 69.6077 648.485 69.6077 Q652.779 69.6077 656.789 68.5544 Q660.84 67.5012 664.81 65.3947 L664.81 72.4433 Q660.799 74.1447 656.586 75.0359 Q652.373 75.9271 648.039 75.9271 Q637.183 75.9271 630.823 69.6077 Q624.503 63.2883 624.503 52.5128 Q624.503 41.3729 630.499 34.8509 Q636.534 28.2884 646.743 28.2884 Q655.898 28.2884 661.204 34.2028 Q666.552 40.0766 666.552 50.2038 M659.098 48.0163 Q659.017 41.8995 655.655 38.2537 Q652.333 34.6079 646.824 34.6079 Q640.585 34.6079 636.818 38.1321 Q633.091 41.6564 632.524 48.0569 L659.098 48.0163 Z" fill="#000000" fill-rule="nonzero" fill-opacity="1" /><path clip-path="url(#clip740)" d="M699.81 29.3822 L707.709 29.3822 L721.887 67.4607 L736.065 29.3822 L743.964 29.3822 L726.951 74.7523 L716.823 74.7523 L699.81 29.3822 Z" fill="#000000" fill-rule="nonzero" fill-opacity="1" /><path clip-path="url(#clip740)" d="M783.177 30.719 L783.177 37.7676 Q780.017 36.1472 776.615 35.337 Q773.212 34.5268 769.566 34.5268 Q764.016 34.5268 761.221 36.2282 Q758.467 37.9296 758.467 41.3324 Q758.467 43.9249 760.452 45.4238 Q762.436 46.8821 768.432 48.2189 L770.984 48.786 Q778.924 50.4874 782.245 53.6066 Q785.608 56.6853 785.608 62.235 Q785.608 68.5544 780.585 72.2408 Q775.602 75.9271 766.852 75.9271 Q763.206 75.9271 759.236 75.1979 Q755.307 74.5093 750.932 73.0914 L750.932 65.3947 Q755.064 67.5417 759.074 68.6354 Q763.085 69.6887 767.014 69.6887 Q772.28 69.6887 775.116 67.9063 Q777.951 66.0834 777.951 62.8021 Q777.951 59.764 775.885 58.1436 Q773.86 56.5232 766.933 55.0244 L764.34 54.4168 Q757.413 52.9584 754.335 49.9608 Q751.256 46.9226 751.256 41.6564 Q751.256 35.256 755.793 31.7722 Q760.33 28.2884 768.675 28.2884 Q772.807 28.2884 776.453 28.8961 Q780.098 29.5037 783.177 30.719 Z" fill="#000000" fill-rule="nonzero" fill-opacity="1" /><path clip-path="url(#clip740)" d="M798.53 64.463 L807.077 64.463 L807.077 74.7523 L798.53 74.7523 L798.53 64.463 Z" fill="#000000" fill-rule="nonzero" fill-opacity="1" /><path clip-path="url(#clip740)" d="M858.726 20.9968 L858.726 68.0278 L868.611 68.0278 Q881.128 68.0278 886.921 62.3565 Q892.754 56.6853 892.754 44.4515 Q892.754 32.2988 886.921 26.6681 Q881.128 20.9968 868.611 20.9968 L858.726 20.9968 M850.544 14.2723 L867.355 14.2723 Q884.936 14.2723 893.159 21.6044 Q901.382 28.8961 901.382 44.4515 Q901.382 60.088 893.119 67.4202 Q884.855 74.7523 867.355 74.7523 L850.544 74.7523 L850.544 14.2723 Z" fill="#000000" fill-rule="nonzero" fill-opacity="1" /><path clip-path="url(#clip740)" d="M914.102 29.3822 L921.556 29.3822 L921.556 74.7523 L914.102 74.7523 L914.102 29.3822 M914.102 11.7202 L921.556 11.7202 L921.556 21.1588 L914.102 21.1588 L914.102 11.7202 Z" fill="#000000" fill-rule="nonzero" fill-opacity="1" /><path clip-path="url(#clip740)" d="M963.442 36.3497 Q962.187 35.6206 960.688 35.2965 Q959.229 34.9319 957.447 34.9319 Q951.128 34.9319 947.725 39.0638 Q944.363 43.1553 944.363 50.852 L944.363 74.7523 L936.868 74.7523 L936.868 29.3822 L944.363 29.3822 L944.363 36.4308 Q946.712 32.2988 950.479 30.3139 Q954.247 28.2884 959.634 28.2884 Q960.404 28.2884 961.336 28.41 Q962.268 28.491 963.402 28.6935 L963.442 36.3497 Z" fill="#000000" fill-rule="nonzero" fill-opacity="1" /><path clip-path="url(#clip740)" d="M1008.25 50.2038 L1008.25 53.8496 L973.975 53.8496 Q974.461 61.5464 978.593 65.5973 Q982.765 69.6077 990.178 69.6077 Q994.472 69.6077 998.483 68.5544 Q1002.53 67.5012 1006.5 65.3947 L1006.5 72.4433 Q1002.49 74.1447 998.28 75.0359 Q994.067 75.9271 989.733 75.9271 Q978.876 75.9271 972.516 69.6077 Q966.197 63.2883 966.197 52.5128 Q966.197 41.3729 972.192 34.8509 Q978.228 28.2884 988.436 28.2884 Q997.591 28.2884 1002.9 34.2028 Q1008.25 40.0766 1008.25 50.2038 M1000.79 48.0163 Q1000.71 41.8995 997.348 38.2537 Q994.027 34.6079 988.517 34.6079 Q982.279 34.6079 978.512 38.1321 Q974.785 41.6564 974.218 48.0569 L1000.79 48.0163 Z" fill="#000000" fill-rule="nonzero" fill-opacity="1" /><path clip-path="url(#clip740)" d="M1053.13 31.1241 L1053.13 38.0916 Q1049.97 36.3497 1046.77 35.4991 Q1043.61 34.6079 1040.37 34.6079 Q1033.12 34.6079 1029.11 39.2259 Q1025.1 43.8034 1025.1 52.1078 Q1025.1 60.4121 1029.11 65.0301 Q1033.12 69.6077 1040.37 69.6077 Q1043.61 69.6077 1046.77 68.757 Q1049.97 67.8658 1053.13 66.1239 L1053.13 73.0104 Q1050.01 74.4687 1046.65 75.1979 Q1043.33 75.9271 1039.56 75.9271 Q1029.31 75.9271 1023.27 69.4861 Q1017.24 63.0452 1017.24 52.1078 Q1017.24 41.0083 1023.31 34.6484 Q1029.43 28.2884 1040.04 28.2884 Q1043.49 28.2884 1046.77 29.0176 Q1050.05 29.7063 1053.13 31.1241 Z" fill="#000000" fill-rule="nonzero" fill-opacity="1" /><path clip-path="url(#clip740)" d="M1073.46 16.5003 L1073.46 29.3822 L1088.82 29.3822 L1088.82 35.175 L1073.46 35.175 L1073.46 59.8045 Q1073.46 65.3542 1074.96 66.9341 Q1076.5 68.5139 1081.16 68.5139 L1088.82 68.5139 L1088.82 74.7523 L1081.16 74.7523 Q1072.53 74.7523 1069.25 71.5521 Q1065.97 68.3114 1065.97 59.8045 L1065.97 35.175 L1060.5 35.175 L1060.5 29.3822 L1065.97 29.3822 L1065.97 16.5003 L1073.46 16.5003 Z" fill="#000000" fill-rule="nonzero" fill-opacity="1" /><path clip-path="url(#clip740)" d="M1161.57 16.2573 L1161.57 24.2375 Q1156.91 22.0095 1152.78 20.9158 Q1148.65 19.8221 1144.8 19.8221 Q1138.12 19.8221 1134.47 22.4146 Q1130.87 25.0072 1130.87 29.7873 Q1130.87 33.7977 1133.26 35.8636 Q1135.69 37.8891 1142.41 39.1449 L1147.35 40.1576 Q1156.51 41.8995 1160.84 46.315 Q1165.22 50.6899 1165.22 58.0626 Q1165.22 66.853 1159.3 71.3901 Q1153.43 75.9271 1142.05 75.9271 Q1137.75 75.9271 1132.89 74.9549 Q1128.07 73.9826 1122.89 72.0787 L1122.89 63.6528 Q1127.87 66.448 1132.65 67.8658 Q1137.43 69.2836 1142.05 69.2836 Q1149.05 69.2836 1152.86 66.529 Q1156.67 63.7744 1156.67 58.6702 Q1156.67 54.2142 1153.92 51.7027 Q1151.2 49.1911 1144.96 47.9353 L1139.98 46.9631 Q1130.83 45.1402 1126.73 41.2513 Q1122.64 37.3625 1122.64 30.4354 Q1122.64 22.4146 1128.27 17.7966 Q1133.94 13.1786 1143.87 13.1786 Q1148.12 13.1786 1152.54 13.9482 Q1156.95 14.7179 1161.57 16.2573 Z" fill="#000000" fill-rule="nonzero" fill-opacity="1" /><path clip-path="url(#clip740)" d="M1195.24 34.6079 Q1189.24 34.6079 1185.76 39.3069 Q1182.27 43.9654 1182.27 52.1078 Q1182.27 60.2501 1185.72 64.9491 Q1189.2 69.6077 1195.24 69.6077 Q1201.19 69.6077 1204.67 64.9086 Q1208.16 60.2096 1208.16 52.1078 Q1208.16 44.0465 1204.67 39.3474 Q1201.19 34.6079 1195.24 34.6079 M1195.24 28.2884 Q1204.96 28.2884 1210.51 34.6079 Q1216.06 40.9273 1216.06 52.1078 Q1216.06 63.2477 1210.51 69.6077 Q1204.96 75.9271 1195.24 75.9271 Q1185.47 75.9271 1179.92 69.6077 Q1174.41 63.2477 1174.41 52.1078 Q1174.41 40.9273 1179.92 34.6079 Q1185.47 28.2884 1195.24 28.2884 Z" fill="#000000" fill-rule="nonzero" fill-opacity="1" /><path clip-path="url(#clip740)" d="M1228.41 11.7202 L1235.87 11.7202 L1235.87 74.7523 L1228.41 74.7523 L1228.41 11.7202 Z" fill="#000000" fill-rule="nonzero" fill-opacity="1" /><path clip-path="url(#clip740)" d="M1250.69 56.8473 L1250.69 29.3822 L1258.15 29.3822 L1258.15 56.5638 Q1258.15 63.0047 1260.66 66.2454 Q1263.17 69.4456 1268.19 69.4456 Q1274.23 69.4456 1277.71 65.5973 Q1281.24 61.7489 1281.24 55.1054 L1281.24 29.3822 L1288.69 29.3822 L1288.69 74.7523 L1281.24 74.7523 L1281.24 67.7848 Q1278.52 71.9167 1274.92 73.9421 Q1271.35 75.9271 1266.61 75.9271 Q1258.79 75.9271 1254.74 71.066 Q1250.69 66.2049 1250.69 56.8473 M1269.45 28.2884 L1269.45 28.2884 Z" fill="#000000" fill-rule="nonzero" fill-opacity="1" /><path clip-path="url(#clip740)" d="M1311.42 16.5003 L1311.42 29.3822 L1326.77 29.3822 L1326.77 35.175 L1311.42 35.175 L1311.42 59.8045 Q1311.42 65.3542 1312.91 66.9341 Q1314.45 68.5139 1319.11 68.5139 L1326.77 68.5139 L1326.77 74.7523 L1319.11 74.7523 Q1310.48 74.7523 1307.2 71.5521 Q1303.92 68.3114 1303.92 59.8045 L1303.92 35.175 L1298.45 35.175 L1298.45 29.3822 L1303.92 29.3822 L1303.92 16.5003 L1311.42 16.5003 Z" fill="#000000" fill-rule="nonzero" fill-opacity="1" /><path clip-path="url(#clip740)" d="M1336.57 29.3822 L1344.02 29.3822 L1344.02 74.7523 L1336.57 74.7523 L1336.57 29.3822 M1336.57 11.7202 L1344.02 11.7202 L1344.02 21.1588 L1336.57 21.1588 L1336.57 11.7202 Z" fill="#000000" fill-rule="nonzero" fill-opacity="1" /><path clip-path="url(#clip740)" d="M1377.2 34.6079 Q1371.21 34.6079 1367.72 39.3069 Q1364.24 43.9654 1364.24 52.1078 Q1364.24 60.2501 1367.68 64.9491 Q1371.17 69.6077 1377.2 69.6077 Q1383.16 69.6077 1386.64 64.9086 Q1390.12 60.2096 1390.12 52.1078 Q1390.12 44.0465 1386.64 39.3474 Q1383.16 34.6079 1377.2 34.6079 M1377.2 28.2884 Q1386.92 28.2884 1392.47 34.6079 Q1398.02 40.9273 1398.02 52.1078 Q1398.02 63.2477 1392.47 69.6077 Q1386.92 75.9271 1377.2 75.9271 Q1367.44 75.9271 1361.89 69.6077 Q1356.38 63.2477 1356.38 52.1078 Q1356.38 40.9273 1361.89 34.6079 Q1367.44 28.2884 1377.2 28.2884 Z" fill="#000000" fill-rule="nonzero" fill-opacity="1" /><path clip-path="url(#clip740)" d="M1448.09 47.3682 L1448.09 74.7523 L1440.64 74.7523 L1440.64 47.6113 Q1440.64 41.1703 1438.13 37.9701 Q1435.62 34.7699 1430.59 34.7699 Q1424.56 34.7699 1421.07 38.6182 Q1417.59 42.4666 1417.59 49.1101 L1417.59 74.7523 L1410.1 74.7523 L1410.1 29.3822 L1417.59 29.3822 L1417.59 36.4308 Q1420.26 32.3393 1423.87 30.3139 Q1427.51 28.2884 1432.25 28.2884 Q1440.07 28.2884 1444.08 33.1495 Q1448.09 37.9701 1448.09 47.3682 Z" fill="#000000" fill-rule="nonzero" fill-opacity="1" /><path clip-path="url(#clip740)" d="M1464.86 64.463 L1473.41 64.463 L1473.41 71.4306 L1466.77 84.3935 L1461.54 84.3935 L1464.86 71.4306 L1464.86 64.463 Z" fill="#000000" fill-rule="nonzero" fill-opacity="1" /><path clip-path="url(#clip740)" d="M1552.28 16.2573 L1552.28 24.2375 Q1547.62 22.0095 1543.49 20.9158 Q1539.36 19.8221 1535.51 19.8221 Q1528.83 19.8221 1525.18 22.4146 Q1521.58 25.0072 1521.58 29.7873 Q1521.58 33.7977 1523.97 35.8636 Q1526.4 37.8891 1533.12 39.1449 L1538.06 40.1576 Q1547.22 41.8995 1551.55 46.315 Q1555.93 50.6899 1555.93 58.0626 Q1555.93 66.853 1550.01 71.3901 Q1544.14 75.9271 1532.76 75.9271 Q1528.46 75.9271 1523.6 74.9549 Q1518.78 73.9826 1513.6 72.0787 L1513.6 63.6528 Q1518.58 66.448 1523.36 67.8658 Q1528.14 69.2836 1532.76 69.2836 Q1539.76 69.2836 1543.57 66.529 Q1547.38 63.7744 1547.38 58.6702 Q1547.38 54.2142 1544.63 51.7027 Q1541.91 49.1911 1535.67 47.9353 L1530.69 46.9631 Q1521.54 45.1402 1517.44 41.2513 Q1513.35 37.3625 1513.35 30.4354 Q1513.35 22.4146 1518.98 17.7966 Q1524.65 13.1786 1534.58 13.1786 Q1538.83 13.1786 1543.25 13.9482 Q1547.66 14.7179 1552.28 16.2573 Z" fill="#000000" fill-rule="nonzero" fill-opacity="1" /><path clip-path="url(#clip740)" d="M1575.57 67.9468 L1575.57 92.0092 L1568.08 92.0092 L1568.08 29.3822 L1575.57 29.3822 L1575.57 36.2687 Q1577.92 32.2178 1581.49 30.2734 Q1585.09 28.2884 1590.08 28.2884 Q1598.34 28.2884 1603.49 34.8509 Q1608.67 41.4134 1608.67 52.1078 Q1608.67 62.8021 1603.49 69.3646 Q1598.34 75.9271 1590.08 75.9271 Q1585.09 75.9271 1581.49 73.9826 Q1577.92 71.9977 1575.57 67.9468 M1600.93 52.1078 Q1600.93 43.8844 1597.53 39.2259 Q1594.17 34.5268 1588.25 34.5268 Q1582.34 34.5268 1578.94 39.2259 Q1575.57 43.8844 1575.57 52.1078 Q1575.57 60.3311 1578.94 65.0301 Q1582.34 69.6887 1588.25 69.6887 Q1594.17 69.6887 1597.53 65.0301 Q1600.93 60.3311 1600.93 52.1078 Z" fill="#000000" fill-rule="nonzero" fill-opacity="1" /><path clip-path="url(#clip740)" d="M1659.83 50.2038 L1659.83 53.8496 L1625.56 53.8496 Q1626.05 61.5464 1630.18 65.5973 Q1634.35 69.6077 1641.77 69.6077 Q1646.06 69.6077 1650.07 68.5544 Q1654.12 67.5012 1658.09 65.3947 L1658.09 72.4433 Q1654.08 74.1447 1649.87 75.0359 Q1645.66 75.9271 1641.32 75.9271 Q1630.46 75.9271 1624.1 69.6077 Q1617.78 63.2883 1617.78 52.5128 Q1617.78 41.3729 1623.78 34.8509 Q1629.82 28.2884 1640.02 28.2884 Q1649.18 28.2884 1654.49 34.2028 Q1659.83 40.0766 1659.83 50.2038 M1652.38 48.0163 Q1652.3 41.8995 1648.94 38.2537 Q1645.61 34.6079 1640.11 34.6079 Q1633.87 34.6079 1630.1 38.1321 Q1626.37 41.6564 1625.81 48.0569 L1652.38 48.0163 Z" fill="#000000" fill-rule="nonzero" fill-opacity="1" /><path clip-path="url(#clip740)" d="M1710.87 50.2038 L1710.87 53.8496 L1676.6 53.8496 Q1677.09 61.5464 1681.22 65.5973 Q1685.39 69.6077 1692.81 69.6077 Q1697.1 69.6077 1701.11 68.5544 Q1705.16 67.5012 1709.13 65.3947 L1709.13 72.4433 Q1705.12 74.1447 1700.91 75.0359 Q1696.7 75.9271 1692.36 75.9271 Q1681.51 75.9271 1675.15 69.6077 Q1668.83 63.2883 1668.83 52.5128 Q1668.83 41.3729 1674.82 34.8509 Q1680.86 28.2884 1691.07 28.2884 Q1700.22 28.2884 1705.53 34.2028 Q1710.87 40.0766 1710.87 50.2038 M1703.42 48.0163 Q1703.34 41.8995 1699.98 38.2537 Q1696.66 34.6079 1691.15 34.6079 Q1684.91 34.6079 1681.14 38.1321 Q1677.41 41.6564 1676.85 48.0569 L1703.42 48.0163 Z" fill="#000000" fill-rule="nonzero" fill-opacity="1" /><path clip-path="url(#clip740)" d="M1752.96 36.2687 L1752.96 11.7202 L1760.42 11.7202 L1760.42 74.7523 L1752.96 74.7523 L1752.96 67.9468 Q1750.61 71.9977 1747.01 73.9826 Q1743.44 75.9271 1738.42 75.9271 Q1730.2 75.9271 1725.01 69.3646 Q1719.87 62.8021 1719.87 52.1078 Q1719.87 41.4134 1725.01 34.8509 Q1730.2 28.2884 1738.42 28.2884 Q1743.44 28.2884 1747.01 30.2734 Q1750.61 32.2178 1752.96 36.2687 M1727.56 52.1078 Q1727.56 60.3311 1730.93 65.0301 Q1734.33 69.6887 1740.24 69.6887 Q1746.16 69.6887 1749.56 65.0301 Q1752.96 60.3311 1752.96 52.1078 Q1752.96 43.8844 1749.56 39.2259 Q1746.16 34.5268 1740.24 34.5268 Q1734.33 34.5268 1730.93 39.2259 Q1727.56 43.8844 1727.56 52.1078 Z" fill="#000000" fill-rule="nonzero" fill-opacity="1" /><path clip-path="url(#clip740)" d="M1775 56.8473 L1775 29.3822 L1782.45 29.3822 L1782.45 56.5638 Q1782.45 63.0047 1784.97 66.2454 Q1787.48 69.4456 1792.5 69.4456 Q1798.54 69.4456 1802.02 65.5973 Q1805.54 61.7489 1805.54 55.1054 L1805.54 29.3822 L1813 29.3822 L1813 74.7523 L1805.54 74.7523 L1805.54 67.7848 Q1802.83 71.9167 1799.22 73.9421 Q1795.66 75.9271 1790.92 75.9271 Q1783.1 75.9271 1779.05 71.066 Q1775 66.2049 1775 56.8473 M1793.76 28.2884 L1793.76 28.2884 Z" fill="#000000" fill-rule="nonzero" fill-opacity="1" /><path clip-path="url(#clip740)" d="M1835.56 67.9468 L1835.56 92.0092 L1828.07 92.0092 L1828.07 29.3822 L1835.56 29.3822 L1835.56 36.2687 Q1837.91 32.2178 1841.48 30.2734 Q1845.08 28.2884 1850.06 28.2884 Q1858.33 28.2884 1863.47 34.8509 Q1868.66 41.4134 1868.66 52.1078 Q1868.66 62.8021 1863.47 69.3646 Q1858.33 75.9271 1850.06 75.9271 Q1845.08 75.9271 1841.48 73.9826 Q1837.91 71.9977 1835.56 67.9468 M1860.92 52.1078 Q1860.92 43.8844 1857.52 39.2259 Q1854.16 34.5268 1848.24 34.5268 Q1842.33 34.5268 1838.92 39.2259 Q1835.56 43.8844 1835.56 52.1078 Q1835.56 60.3311 1838.92 65.0301 Q1842.33 69.6887 1848.24 69.6887 Q1854.16 69.6887 1857.52 65.0301 Q1860.92 60.3311 1860.92 52.1078 Z" fill="#000000" fill-rule="nonzero" fill-opacity="1" /><path clip-path="url(#clip740)" d="M1925.29 11.8013 Q1919.86 21.1183 1917.23 30.2329 Q1914.59 39.3474 1914.59 48.705 Q1914.59 58.0626 1917.23 67.2581 Q1919.9 76.4132 1925.29 85.6898 L1918.81 85.6898 Q1912.73 76.1701 1909.69 66.9746 Q1906.7 57.779 1906.7 48.705 Q1906.7 39.6715 1909.69 30.5164 Q1912.69 21.3614 1918.81 11.8013 L1925.29 11.8013 Z" fill="#000000" fill-rule="nonzero" fill-opacity="1" /><path clip-path="url(#clip740)" d="M1969.31 52.7411 Q1969.31 56.881 1967.18 61.0209 Q1965.05 65.1608 1961.56 68.358 Q1958.08 71.5142 1953.33 73.5636 Q1948.57 75.6131 1943.61 75.777 L1940.41 88.2788 Q1939.8 91.312 1939.47 91.6399 Q1939.14 91.9678 1938.65 91.9678 Q1937.63 91.9678 1937.63 91.0251 Q1937.63 90.7381 1939.47 83.647 L1941.44 75.777 Q1933.98 75.3672 1929.63 71.0633 Q1925.29 66.7594 1925.29 60.57 Q1925.29 56.3891 1927.42 52.2492 Q1929.59 48.0683 1933.08 44.9121 Q1936.6 41.7559 1941.36 39.7475 Q1946.11 37.739 1950.99 37.575 L1955.87 18.1871 Q1956.11 17.0804 1956.32 16.7935 Q1956.52 16.5065 1957.14 16.5065 Q1957.59 16.5065 1957.83 16.7115 Q1958.08 16.9164 1958.08 17.1214 L1958.12 17.3263 L1957.88 18.515 L1953.16 37.575 Q1957.34 37.862 1960.58 39.3376 Q1963.82 40.8132 1965.66 43.0266 Q1967.51 45.199 1968.41 47.6584 Q1969.31 50.1178 1969.31 52.7411 M1950.5 39.4196 Q1945.99 39.8294 1942.18 42.0429 Q1938.36 44.2563 1935.91 47.5354 Q1933.45 50.7736 1932.09 54.6676 Q1930.74 58.5206 1930.74 62.3326 Q1930.74 65.3248 1931.72 67.6202 Q1932.75 69.9156 1934.43 71.2272 Q1936.11 72.4979 1937.95 73.1947 Q1939.84 73.8505 1941.85 73.9325 L1950.5 39.4196 M1963.82 50.9785 Q1963.82 45.6499 1960.74 42.6577 Q1957.67 39.6655 1952.67 39.4196 L1944.02 73.9325 Q1947.67 73.6456 1950.87 72.129 Q1954.1 70.5714 1956.44 68.276 Q1958.78 65.9396 1960.46 63.0704 Q1962.14 60.1601 1962.96 57.0859 Q1963.82 53.9707 1963.82 50.9785 Z" fill="#000000" fill-rule="nonzero" fill-opacity="1" /><path clip-path="url(#clip740)" d="M1998.11 62.0046 Q1998.19 60.9799 1999.79 60.9799 L2051.23 60.9799 Q2053.65 60.9799 2053.69 61.9227 Q2053.69 62.9474 2051.39 62.9064 L2000.36 62.9064 Q1998.11 62.9474 1998.11 62.0046 M1998.11 45.6089 Q1998.11 44.5842 1999.87 44.6252 L2051.15 44.6252 Q2053.65 44.6252 2053.69 45.6089 Q2053.69 46.5517 2051.56 46.5517 L1999.79 46.5517 Q1998.11 46.5517 1998.11 45.6089 Z" fill="#000000" fill-rule="nonzero" fill-opacity="1" /><path clip-path="url(#clip740)" d="M2086.07 47.9043 Q2086.07 35.5666 2089.18 28.8443 Q2093.53 18.8429 2103.77 18.8429 Q2105.95 18.8429 2108.2 19.4578 Q2110.5 20.0316 2113.37 22.286 Q2116.28 24.5404 2118.04 28.2295 Q2121.4 35.3616 2121.4 47.9043 Q2121.4 60.1601 2118.28 66.8414 Q2113.73 76.5968 2103.69 76.5968 Q2099.92 76.5968 2096.07 74.6703 Q2092.26 72.7438 2089.84 68.112 Q2086.07 61.1849 2086.07 47.9043 M2093.03 46.8796 Q2093.03 59.5453 2093.94 64.587 Q2094.96 70.0385 2097.75 72.4159 Q2100.58 74.7523 2103.69 74.7523 Q2107.05 74.7523 2109.84 72.252 Q2112.67 69.7106 2113.53 64.2591 Q2114.47 58.8895 2114.43 46.8796 Q2114.43 35.1977 2113.61 30.5249 Q2112.5 25.0733 2109.55 22.9009 Q2106.64 20.6875 2103.69 20.6875 Q2102.59 20.6875 2101.4 21.0154 Q2100.25 21.3433 2098.57 22.286 Q2096.89 23.2288 2095.58 25.5652 Q2094.31 27.9016 2093.69 31.4266 Q2093.03 35.9765 2093.03 46.8796 Z" fill="#000000" fill-rule="nonzero" fill-opacity="1" /><path clip-path="url(#clip740)" d="M2128.91 73.3997 Q2127.64 72.047 2127.64 70.2845 Q2127.64 68.5219 2128.91 67.2513 Q2130.18 65.9396 2132.1 65.9396 Q2133.95 65.9396 2135.18 67.1693 Q2136.45 68.358 2136.45 70.3255 Q2136.45 72.252 2135.1 73.5226 Q2133.79 74.7523 2132.1 74.7523 Q2130.18 74.7523 2128.91 73.3997 Z" fill="#000000" fill-rule="nonzero" fill-opacity="1" /><path clip-path="url(#clip740)" d="M2142.24 26.8358 L2142.24 24.2125 Q2152.32 24.2125 2157.53 18.8429 Q2158.96 18.8429 2159.21 19.1709 Q2159.45 19.4988 2159.45 21.0154 L2159.45 68.112 Q2159.45 70.6124 2160.68 71.3912 Q2161.91 72.17 2167.28 72.17 L2169.94 72.17 L2169.94 74.7523 Q2166.99 74.5064 2156.34 74.5064 Q2145.68 74.5064 2142.77 74.7523 L2142.77 72.17 L2145.43 72.17 Q2150.72 72.17 2151.99 71.4322 Q2153.26 70.6534 2153.26 68.112 L2153.26 24.6224 Q2148.88 26.8358 2142.24 26.8358 Z" fill="#000000" fill-rule="nonzero" fill-opacity="1" /><path clip-path="url(#clip740)" d="M2183.81 11.8013 L2190.29 11.8013 Q2196.36 21.3614 2199.36 30.5164 Q2202.4 39.6715 2202.4 48.705 Q2202.4 57.779 2199.36 66.9746 Q2196.36 76.1701 2190.29 85.6898 L2183.81 85.6898 Q2189.19 76.4132 2191.83 67.2581 Q2194.5 58.0626 2194.5 48.705 Q2194.5 39.3474 2191.83 30.2329 Q2189.19 21.1183 2183.81 11.8013 Z" fill="#000000" fill-rule="nonzero" fill-opacity="1" /><polyline clip-path="url(#clip742)" style="stroke:#009af9; stroke-linecap:round; stroke-linejoin:round; stroke-width:4; stroke-opacity:1; fill:none" points="307.043,1374.46 1037.66,1113.86 2293.17,159.909 "/>
<path clip-path="url(#clip740)" d="M317.635 270.066 L580.595 270.066 L580.595 166.386 L317.635 166.386  Z" fill="#ffffff" fill-rule="evenodd" fill-opacity="1"/>
<polyline clip-path="url(#clip740)" style="stroke:#000000; stroke-linecap:round; stroke-linejoin:round; stroke-width:4; stroke-opacity:1; fill:none" points="317.635,270.066 580.595,270.066 580.595,166.386 317.635,166.386 317.635,270.066 "/>
<polyline clip-path="url(#clip740)" style="stroke:#009af9; stroke-linecap:round; stroke-linejoin:round; stroke-width:4; stroke-opacity:1; fill:none" points="341.027,218.226 481.381,218.226 "/>
<path clip-path="url(#clip740)" d="M518.615 237.914 Q516.81 242.543 515.097 243.955 Q513.384 245.367 510.514 245.367 L507.111 245.367 L507.111 241.803 L509.611 241.803 Q511.37 241.803 512.342 240.969 Q513.314 240.136 514.495 237.034 L515.259 235.09 L504.773 209.58 L509.287 209.58 L517.388 229.858 L525.49 209.58 L530.004 209.58 L518.615 237.914 Z" fill="#000000" fill-rule="nonzero" fill-opacity="1" /><path clip-path="url(#clip740)" d="M537.296 231.571 L544.935 231.571 L544.935 205.206 L536.624 206.872 L536.624 202.613 L544.888 200.946 L549.564 200.946 L549.564 231.571 L557.203 231.571 L557.203 235.506 L537.296 235.506 L537.296 231.571 Z" fill="#000000" fill-rule="nonzero" fill-opacity="1" /></svg>
