<?xml version="1.0" encoding="utf-8"?>
<svg xmlns="http://www.w3.org/2000/svg" xmlns:xlink="http://www.w3.org/1999/xlink" width="600" height="400" viewBox="0 0 2400 1600">
<defs>
  <clipPath id="clip770">
    <rect x="0" y="0" width="2400" height="1600"/>
  </clipPath>
</defs>
<path clip-path="url(#clip770)" d="M0 1600 L2400 1600 L2400 0 L0 0  Z" fill="#ffffff" fill-rule="evenodd" fill-opacity="1"/>
<defs>
  <clipPath id="clip771">
    <rect x="480" y="0" width="1681" height="1600"/>
  </clipPath>
</defs>
<path clip-path="url(#clip770)" d="M220.057 1410.9 L2352.76 1410.9 L2352.76 123.472 L220.057 123.472  Z" fill="#ffffff" fill-rule="evenodd" fill-opacity="1"/>
<defs>
  <clipPath id="clip772">
    <rect x="220" y="123" width="2134" height="1288"/>
  </clipPath>
</defs>
<polyline clip-path="url(#clip772)" style="stroke:#000000; stroke-linecap:round; stroke-linejoin:round; stroke-width:2; stroke-opacity:0.05; fill:none" points="234.262,1410.9 234.262,123.472 "/>
<polyline clip-path="url(#clip772)" style="stroke:#000000; stroke-linecap:round; stroke-linejoin:round; stroke-width:2; stroke-opacity:0.05; fill:none" points="637.879,1410.9 637.879,123.472 "/>
<polyline clip-path="url(#clip772)" style="stroke:#000000; stroke-linecap:round; stroke-linejoin:round; stroke-width:2; stroke-opacity:0.05; fill:none" points="842.827,1410.9 842.827,123.472 "/>
<polyline clip-path="url(#clip772)" style="stroke:#000000; stroke-linecap:round; stroke-linejoin:round; stroke-width:2; stroke-opacity:0.05; fill:none" points="988.24,1410.9 988.24,123.472 "/>
<polyline clip-path="url(#clip772)" style="stroke:#000000; stroke-linecap:round; stroke-linejoin:round; stroke-width:2; stroke-opacity:0.05; fill:none" points="1101.03,1410.9 1101.03,123.472 "/>
<polyline clip-path="url(#clip772)" style="stroke:#000000; stroke-linecap:round; stroke-linejoin:round; stroke-width:2; stroke-opacity:0.05; fill:none" points="1193.19,1410.9 1193.19,123.472 "/>
<polyline clip-path="url(#clip772)" style="stroke:#000000; stroke-linecap:round; stroke-linejoin:round; stroke-width:2; stroke-opacity:0.05; fill:none" points="1271.11,1410.9 1271.11,123.472 "/>
<polyline clip-path="url(#clip772)" style="stroke:#000000; stroke-linecap:round; stroke-linejoin:round; stroke-width:2; stroke-opacity:0.05; fill:none" points="1338.6,1410.9 1338.6,123.472 "/>
<polyline clip-path="url(#clip772)" style="stroke:#000000; stroke-linecap:round; stroke-linejoin:round; stroke-width:2; stroke-opacity:0.05; fill:none" points="1398.14,1410.9 1398.14,123.472 "/>
<polyline clip-path="url(#clip772)" style="stroke:#000000; stroke-linecap:round; stroke-linejoin:round; stroke-width:2; stroke-opacity:0.05; fill:none" points="1801.75,1410.9 1801.75,123.472 "/>
<polyline clip-path="url(#clip772)" style="stroke:#000000; stroke-linecap:round; stroke-linejoin:round; stroke-width:2; stroke-opacity:0.05; fill:none" points="2006.7,1410.9 2006.7,123.472 "/>
<polyline clip-path="url(#clip772)" style="stroke:#000000; stroke-linecap:round; stroke-linejoin:round; stroke-width:2; stroke-opacity:0.05; fill:none" points="2152.11,1410.9 2152.11,123.472 "/>
<polyline clip-path="url(#clip772)" style="stroke:#000000; stroke-linecap:round; stroke-linejoin:round; stroke-width:2; stroke-opacity:0.05; fill:none" points="2264.9,1410.9 2264.9,123.472 "/>
<polyline clip-path="url(#clip772)" style="stroke:#000000; stroke-linecap:round; stroke-linejoin:round; stroke-width:2; stroke-opacity:0.05; fill:none" points="220.057,1384.59 2352.76,1384.59 "/>
<polyline clip-path="url(#clip772)" style="stroke:#000000; stroke-linecap:round; stroke-linejoin:round; stroke-width:2; stroke-opacity:0.05; fill:none" points="220.057,1278.58 2352.76,1278.58 "/>
<polyline clip-path="url(#clip772)" style="stroke:#000000; stroke-linecap:round; stroke-linejoin:round; stroke-width:2; stroke-opacity:0.05; fill:none" points="220.057,1203.36 2352.76,1203.36 "/>
<polyline clip-path="url(#clip772)" style="stroke:#000000; stroke-linecap:round; stroke-linejoin:round; stroke-width:2; stroke-opacity:0.05; fill:none" points="220.057,1145.01 2352.76,1145.01 "/>
<polyline clip-path="url(#clip772)" style="stroke:#000000; stroke-linecap:round; stroke-linejoin:round; stroke-width:2; stroke-opacity:0.05; fill:none" points="220.057,1097.34 2352.76,1097.34 "/>
<polyline clip-path="url(#clip772)" style="stroke:#000000; stroke-linecap:round; stroke-linejoin:round; stroke-width:2; stroke-opacity:0.05; fill:none" points="220.057,1057.04 2352.76,1057.04 "/>
<polyline clip-path="url(#clip772)" style="stroke:#000000; stroke-linecap:round; stroke-linejoin:round; stroke-width:2; stroke-opacity:0.05; fill:none" points="220.057,1022.13 2352.76,1022.13 "/>
<polyline clip-path="url(#clip772)" style="stroke:#000000; stroke-linecap:round; stroke-linejoin:round; stroke-width:2; stroke-opacity:0.05; fill:none" points="220.057,991.331 2352.76,991.331 "/>
<polyline clip-path="url(#clip772)" style="stroke:#000000; stroke-linecap:round; stroke-linejoin:round; stroke-width:2; stroke-opacity:0.05; fill:none" points="220.057,782.552 2352.76,782.552 "/>
<polyline clip-path="url(#clip772)" style="stroke:#000000; stroke-linecap:round; stroke-linejoin:round; stroke-width:2; stroke-opacity:0.05; fill:none" points="220.057,676.538 2352.76,676.538 "/>
<polyline clip-path="url(#clip772)" style="stroke:#000000; stroke-linecap:round; stroke-linejoin:round; stroke-width:2; stroke-opacity:0.05; fill:none" points="220.057,601.321 2352.76,601.321 "/>
<polyline clip-path="url(#clip772)" style="stroke:#000000; stroke-linecap:round; stroke-linejoin:round; stroke-width:2; stroke-opacity:0.05; fill:none" points="220.057,542.977 2352.76,542.977 "/>
<polyline clip-path="url(#clip772)" style="stroke:#000000; stroke-linecap:round; stroke-linejoin:round; stroke-width:2; stroke-opacity:0.05; fill:none" points="220.057,495.307 2352.76,495.307 "/>
<polyline clip-path="url(#clip772)" style="stroke:#000000; stroke-linecap:round; stroke-linejoin:round; stroke-width:2; stroke-opacity:0.05; fill:none" points="220.057,455.003 2352.76,455.003 "/>
<polyline clip-path="url(#clip772)" style="stroke:#000000; stroke-linecap:round; stroke-linejoin:round; stroke-width:2; stroke-opacity:0.05; fill:none" points="220.057,420.089 2352.76,420.089 "/>
<polyline clip-path="url(#clip772)" style="stroke:#000000; stroke-linecap:round; stroke-linejoin:round; stroke-width:2; stroke-opacity:0.05; fill:none" points="220.057,389.294 2352.76,389.294 "/>
<polyline clip-path="url(#clip772)" style="stroke:#000000; stroke-linecap:round; stroke-linejoin:round; stroke-width:2; stroke-opacity:0.05; fill:none" points="220.057,180.515 2352.76,180.515 "/>
<polyline clip-path="url(#clip772)" style="stroke:#000000; stroke-linecap:round; stroke-linejoin:round; stroke-width:2; stroke-opacity:0.1; fill:none" points="287.518,1410.9 287.518,123.472 "/>
<polyline clip-path="url(#clip772)" style="stroke:#000000; stroke-linecap:round; stroke-linejoin:round; stroke-width:2; stroke-opacity:0.1; fill:none" points="1451.39,1410.9 1451.39,123.472 "/>
<polyline clip-path="url(#clip772)" style="stroke:#000000; stroke-linecap:round; stroke-linejoin:round; stroke-width:2; stroke-opacity:0.1; fill:none" points="220.057,963.783 2352.76,963.783 "/>
<polyline clip-path="url(#clip772)" style="stroke:#000000; stroke-linecap:round; stroke-linejoin:round; stroke-width:2; stroke-opacity:0.1; fill:none" points="220.057,361.746 2352.76,361.746 "/>
<polyline clip-path="url(#clip770)" style="stroke:#000000; stroke-linecap:round; stroke-linejoin:round; stroke-width:4; stroke-opacity:1; fill:none" points="220.057,1410.9 2352.76,1410.9 "/>
<polyline clip-path="url(#clip770)" style="stroke:#000000; stroke-linecap:round; stroke-linejoin:round; stroke-width:4; stroke-opacity:1; fill:none" points="287.518,1410.9 287.518,1392 "/>
<polyline clip-path="url(#clip770)" style="stroke:#000000; stroke-linecap:round; stroke-linejoin:round; stroke-width:4; stroke-opacity:1; fill:none" points="1451.39,1410.9 1451.39,1392 "/>
<polyline clip-path="url(#clip770)" style="stroke:#000000; stroke-linecap:round; stroke-linejoin:round; stroke-width:4; stroke-opacity:1; fill:none" points="234.262,1410.9 234.262,1401.45 "/>
<polyline clip-path="url(#clip770)" style="stroke:#000000; stroke-linecap:round; stroke-linejoin:round; stroke-width:4; stroke-opacity:1; fill:none" points="637.879,1410.9 637.879,1401.45 "/>
<polyline clip-path="url(#clip770)" style="stroke:#000000; stroke-linecap:round; stroke-linejoin:round; stroke-width:4; stroke-opacity:1; fill:none" points="842.827,1410.9 842.827,1401.45 "/>
<polyline clip-path="url(#clip770)" style="stroke:#000000; stroke-linecap:round; stroke-linejoin:round; stroke-width:4; stroke-opacity:1; fill:none" points="988.24,1410.9 988.24,1401.45 "/>
<polyline clip-path="url(#clip770)" style="stroke:#000000; stroke-linecap:round; stroke-linejoin:round; stroke-width:4; stroke-opacity:1; fill:none" points="1101.03,1410.9 1101.03,1401.45 "/>
<polyline clip-path="url(#clip770)" style="stroke:#000000; stroke-linecap:round; stroke-linejoin:round; stroke-width:4; stroke-opacity:1; fill:none" points="1193.19,1410.9 1193.19,1401.45 "/>
<polyline clip-path="url(#clip770)" style="stroke:#000000; stroke-linecap:round; stroke-linejoin:round; stroke-width:4; stroke-opacity:1; fill:none" points="1271.11,1410.9 1271.11,1401.45 "/>
<polyline clip-path="url(#clip770)" style="stroke:#000000; stroke-linecap:round; stroke-linejoin:round; stroke-width:4; stroke-opacity:1; fill:none" points="1338.6,1410.9 1338.6,1401.45 "/>
<polyline clip-path="url(#clip770)" style="stroke:#000000; stroke-linecap:round; stroke-linejoin:round; stroke-width:4; stroke-opacity:1; fill:none" points="1398.14,1410.9 1398.14,1401.45 "/>
<polyline clip-path="url(#clip770)" style="stroke:#000000; stroke-linecap:round; stroke-linejoin:round; stroke-width:4; stroke-opacity:1; fill:none" points="1801.75,1410.9 1801.75,1401.45 "/>
<polyline clip-path="url(#clip770)" style="stroke:#000000; stroke-linecap:round; stroke-linejoin:round; stroke-width:4; stroke-opacity:1; fill:none" points="2006.7,1410.9 2006.7,1401.45 "/>
<polyline clip-path="url(#clip770)" style="stroke:#000000; stroke-linecap:round; stroke-linejoin:round; stroke-width:4; stroke-opacity:1; fill:none" points="2152.11,1410.9 2152.11,1401.45 "/>
<polyline clip-path="url(#clip770)" style="stroke:#000000; stroke-linecap:round; stroke-linejoin:round; stroke-width:4; stroke-opacity:1; fill:none" points="2264.9,1410.9 2264.9,1401.45 "/>
<path clip-path="url(#clip770)" d="M241.094 1485.02 L248.733 1485.02 L248.733 1458.66 L240.423 1460.32 L240.423 1456.06 L248.686 1454.4 L253.362 1454.4 L253.362 1485.02 L261.001 1485.02 L261.001 1488.96 L241.094 1488.96 L241.094 1485.02 Z" fill="#000000" fill-rule="nonzero" fill-opacity="1" /><path clip-path="url(#clip770)" d="M280.446 1457.48 Q276.834 1457.48 275.006 1461.04 Q273.2 1464.58 273.2 1471.71 Q273.2 1478.82 275.006 1482.38 Q276.834 1485.92 280.446 1485.92 Q284.08 1485.92 285.885 1482.38 Q287.714 1478.82 287.714 1471.71 Q287.714 1464.58 285.885 1461.04 Q284.08 1457.48 280.446 1457.48 M280.446 1453.77 Q286.256 1453.77 289.311 1458.38 Q292.39 1462.96 292.39 1471.71 Q292.39 1480.44 289.311 1485.04 Q286.256 1489.63 280.446 1489.63 Q274.635 1489.63 271.557 1485.04 Q268.501 1480.44 268.501 1471.71 Q268.501 1462.96 271.557 1458.38 Q274.635 1453.77 280.446 1453.77 Z" fill="#000000" fill-rule="nonzero" fill-opacity="1" /><path clip-path="url(#clip770)" d="M292.935 1458.35 L299.142 1458.35 L299.142 1436.93 L292.39 1438.28 L292.39 1434.82 L299.104 1433.47 L302.903 1433.47 L302.903 1458.35 L309.11 1458.35 L309.11 1461.55 L292.935 1461.55 L292.935 1458.35 Z" fill="#000000" fill-rule="nonzero" fill-opacity="1" /><path clip-path="url(#clip770)" d="M324.909 1435.97 Q321.975 1435.97 320.489 1438.86 Q319.022 1441.74 319.022 1447.53 Q319.022 1453.31 320.489 1456.2 Q321.975 1459.08 324.909 1459.08 Q327.861 1459.08 329.328 1456.2 Q330.814 1453.31 330.814 1447.53 Q330.814 1441.74 329.328 1438.86 Q327.861 1435.97 324.909 1435.97 M324.909 1432.96 Q329.629 1432.96 332.112 1436.7 Q334.613 1440.43 334.613 1447.53 Q334.613 1454.62 332.112 1458.37 Q329.629 1462.09 324.909 1462.09 Q320.188 1462.09 317.686 1458.37 Q315.204 1454.62 315.204 1447.53 Q315.204 1440.43 317.686 1436.7 Q320.188 1432.96 324.909 1432.96 Z" fill="#000000" fill-rule="nonzero" fill-opacity="1" /><path clip-path="url(#clip770)" d="M1405.47 1485.02 L1413.11 1485.02 L1413.11 1458.66 L1404.79 1460.32 L1404.79 1456.06 L1413.06 1454.4 L1417.73 1454.4 L1417.73 1485.02 L1425.37 1485.02 L1425.37 1488.96 L1405.47 1488.96 L1405.47 1485.02 Z" fill="#000000" fill-rule="nonzero" fill-opacity="1" /><path clip-path="url(#clip770)" d="M1444.82 1457.48 Q1441.21 1457.48 1439.38 1461.04 Q1437.57 1464.58 1437.57 1471.71 Q1437.57 1478.82 1439.38 1482.38 Q1441.21 1485.92 1444.82 1485.92 Q1448.45 1485.92 1450.26 1482.38 Q1452.09 1478.82 1452.09 1471.71 Q1452.09 1464.58 1450.26 1461.04 Q1448.45 1457.48 1444.82 1457.48 M1444.82 1453.77 Q1450.63 1453.77 1453.68 1458.38 Q1456.76 1462.96 1456.76 1471.71 Q1456.76 1480.44 1453.68 1485.04 Q1450.63 1489.63 1444.82 1489.63 Q1439.01 1489.63 1435.93 1485.04 Q1432.87 1480.44 1432.87 1471.71 Q1432.87 1462.96 1435.93 1458.38 Q1439.01 1453.77 1444.82 1453.77 Z" fill="#000000" fill-rule="nonzero" fill-opacity="1" /><path clip-path="url(#clip770)" d="M1457.31 1458.35 L1463.51 1458.35 L1463.51 1436.93 L1456.76 1438.28 L1456.76 1434.82 L1463.48 1433.47 L1467.28 1433.47 L1467.28 1458.35 L1473.48 1458.35 L1473.48 1461.55 L1457.31 1461.55 L1457.31 1458.35 Z" fill="#000000" fill-rule="nonzero" fill-opacity="1" /><path clip-path="url(#clip770)" d="M1481.81 1458.35 L1488.02 1458.35 L1488.02 1436.93 L1481.27 1438.28 L1481.27 1434.82 L1487.98 1433.47 L1491.78 1433.47 L1491.78 1458.35 L1497.99 1458.35 L1497.99 1461.55 L1481.81 1461.55 L1481.81 1458.35 Z" fill="#000000" fill-rule="nonzero" fill-opacity="1" /><path clip-path="url(#clip770)" d="M972.39 1520.47 L978.819 1520.47 L978.819 1567.99 L972.39 1567.99 L972.39 1520.47 Z" fill="#000000" fill-rule="nonzero" fill-opacity="1" /><path clip-path="url(#clip770)" d="M1020.99 1546.47 L1020.99 1567.99 L1015.14 1567.99 L1015.14 1546.66 Q1015.14 1541.6 1013.16 1539.09 Q1011.19 1536.57 1007.24 1536.57 Q1002.5 1536.57 999.763 1539.59 Q997.025 1542.62 997.025 1547.84 L997.025 1567.99 L991.137 1567.99 L991.137 1532.34 L997.025 1532.34 L997.025 1537.88 Q999.126 1534.66 1001.96 1533.07 Q1004.82 1531.48 1008.55 1531.48 Q1014.69 1531.48 1017.84 1535.3 Q1020.99 1539.09 1020.99 1546.47 Z" fill="#000000" fill-rule="nonzero" fill-opacity="1" /><path clip-path="url(#clip770)" d="M1038.47 1522.22 L1038.47 1532.34 L1050.53 1532.34 L1050.53 1536.89 L1038.47 1536.89 L1038.47 1556.24 Q1038.47 1560.6 1039.64 1561.84 Q1040.85 1563.08 1044.51 1563.08 L1050.53 1563.08 L1050.53 1567.99 L1044.51 1567.99 Q1037.73 1567.99 1035.16 1565.47 Q1032.58 1562.93 1032.58 1556.24 L1032.58 1536.89 L1028.28 1536.89 L1028.28 1532.34 L1032.58 1532.34 L1032.58 1522.22 L1038.47 1522.22 Z" fill="#000000" fill-rule="nonzero" fill-opacity="1" /><path clip-path="url(#clip770)" d="M1088.72 1548.7 L1088.72 1551.56 L1061.8 1551.56 Q1062.18 1557.61 1065.42 1560.79 Q1068.7 1563.94 1074.53 1563.94 Q1077.9 1563.94 1081.05 1563.12 Q1084.24 1562.29 1087.35 1560.63 L1087.35 1566.17 Q1084.2 1567.51 1080.89 1568.21 Q1077.58 1568.91 1074.18 1568.91 Q1065.65 1568.91 1060.65 1563.94 Q1055.69 1558.98 1055.69 1550.51 Q1055.69 1541.76 1060.4 1536.63 Q1065.14 1531.48 1073.16 1531.48 Q1080.35 1531.48 1084.52 1536.13 Q1088.72 1540.74 1088.72 1548.7 M1082.87 1546.98 Q1082.8 1542.17 1080.16 1539.31 Q1077.55 1536.44 1073.22 1536.44 Q1068.32 1536.44 1065.36 1539.21 Q1062.43 1541.98 1061.99 1547.01 L1082.87 1546.98 Z" fill="#000000" fill-rule="nonzero" fill-opacity="1" /><path clip-path="url(#clip770)" d="M1118.99 1537.81 Q1118.01 1537.24 1116.83 1536.98 Q1115.68 1536.7 1114.28 1536.7 Q1109.32 1536.7 1106.64 1539.95 Q1104 1543.16 1104 1549.21 L1104 1567.99 L1098.11 1567.99 L1098.11 1532.34 L1104 1532.34 L1104 1537.88 Q1105.85 1534.63 1108.81 1533.07 Q1111.77 1531.48 1116 1531.48 Q1116.61 1531.48 1117.34 1531.57 Q1118.07 1531.64 1118.96 1531.8 L1118.99 1537.81 Z" fill="#000000" fill-rule="nonzero" fill-opacity="1" /><path clip-path="url(#clip770)" d="M1141.34 1550.07 Q1134.24 1550.07 1131.5 1551.69 Q1128.76 1553.31 1128.76 1557.23 Q1128.76 1560.35 1130.8 1562.19 Q1132.87 1564.01 1136.4 1564.01 Q1141.27 1564.01 1144.2 1560.57 Q1147.16 1557.1 1147.16 1551.37 L1147.16 1550.07 L1141.34 1550.07 M1153.02 1547.65 L1153.02 1567.99 L1147.16 1567.99 L1147.16 1562.58 Q1145.16 1565.82 1142.16 1567.38 Q1139.17 1568.91 1134.84 1568.91 Q1129.37 1568.91 1126.12 1565.85 Q1122.91 1562.77 1122.91 1557.61 Q1122.91 1551.59 1126.92 1548.54 Q1130.96 1545.48 1138.95 1545.48 L1147.16 1545.48 L1147.16 1544.91 Q1147.16 1540.87 1144.49 1538.67 Q1141.85 1536.44 1137.04 1536.44 Q1133.98 1536.44 1131.09 1537.18 Q1128.19 1537.91 1125.52 1539.37 L1125.52 1533.96 Q1128.73 1532.72 1131.76 1532.12 Q1134.78 1531.48 1137.64 1531.48 Q1145.38 1531.48 1149.2 1535.49 Q1153.02 1539.5 1153.02 1547.65 Z" fill="#000000" fill-rule="nonzero" fill-opacity="1" /><path clip-path="url(#clip770)" d="M1190.73 1533.71 L1190.73 1539.18 Q1188.25 1537.81 1185.74 1537.14 Q1183.25 1536.44 1180.71 1536.44 Q1175.01 1536.44 1171.86 1540.07 Q1168.71 1543.67 1168.71 1550.19 Q1168.71 1556.72 1171.86 1560.35 Q1175.01 1563.94 1180.71 1563.94 Q1183.25 1563.94 1185.74 1563.28 Q1188.25 1562.58 1190.73 1561.21 L1190.73 1566.62 Q1188.28 1567.76 1185.64 1568.34 Q1183.03 1568.91 1180.07 1568.91 Q1172.02 1568.91 1167.28 1563.85 Q1162.53 1558.79 1162.53 1550.19 Q1162.53 1541.47 1167.31 1536.48 Q1172.11 1531.48 1180.45 1531.48 Q1183.16 1531.48 1185.74 1532.05 Q1188.31 1532.59 1190.73 1533.71 Z" fill="#000000" fill-rule="nonzero" fill-opacity="1" /><path clip-path="url(#clip770)" d="M1206.71 1522.22 L1206.71 1532.34 L1218.77 1532.34 L1218.77 1536.89 L1206.71 1536.89 L1206.71 1556.24 Q1206.71 1560.6 1207.89 1561.84 Q1209.1 1563.08 1212.76 1563.08 L1218.77 1563.08 L1218.77 1567.99 L1212.76 1567.99 Q1205.98 1567.99 1203.4 1565.47 Q1200.82 1562.93 1200.82 1556.24 L1200.82 1536.89 L1196.53 1536.89 L1196.53 1532.34 L1200.82 1532.34 L1200.82 1522.22 L1206.71 1522.22 Z" fill="#000000" fill-rule="nonzero" fill-opacity="1" /><path clip-path="url(#clip770)" d="M1226.48 1532.34 L1232.33 1532.34 L1232.33 1567.99 L1226.48 1567.99 L1226.48 1532.34 M1226.48 1518.46 L1232.33 1518.46 L1232.33 1525.88 L1226.48 1525.88 L1226.48 1518.46 Z" fill="#000000" fill-rule="nonzero" fill-opacity="1" /><path clip-path="url(#clip770)" d="M1258.4 1536.44 Q1253.69 1536.44 1250.95 1540.14 Q1248.22 1543.8 1248.22 1550.19 Q1248.22 1556.59 1250.92 1560.28 Q1253.66 1563.94 1258.4 1563.94 Q1263.08 1563.94 1265.82 1560.25 Q1268.55 1556.56 1268.55 1550.19 Q1268.55 1543.86 1265.82 1540.17 Q1263.08 1536.44 1258.4 1536.44 M1258.4 1531.48 Q1266.04 1531.48 1270.4 1536.44 Q1274.76 1541.41 1274.76 1550.19 Q1274.76 1558.95 1270.4 1563.94 Q1266.04 1568.91 1258.4 1568.91 Q1250.73 1568.91 1246.37 1563.94 Q1242.04 1558.95 1242.04 1550.19 Q1242.04 1541.41 1246.37 1536.44 Q1250.73 1531.48 1258.4 1531.48 Z" fill="#000000" fill-rule="nonzero" fill-opacity="1" /><path clip-path="url(#clip770)" d="M1314.1 1546.47 L1314.1 1567.99 L1308.24 1567.99 L1308.24 1546.66 Q1308.24 1541.6 1306.27 1539.09 Q1304.3 1536.57 1300.35 1536.57 Q1295.61 1536.57 1292.87 1539.59 Q1290.13 1542.62 1290.13 1547.84 L1290.13 1567.99 L1284.25 1567.99 L1284.25 1532.34 L1290.13 1532.34 L1290.13 1537.88 Q1292.23 1534.66 1295.07 1533.07 Q1297.93 1531.48 1301.66 1531.48 Q1307.8 1531.48 1310.95 1535.3 Q1314.1 1539.09 1314.1 1546.47 Z" fill="#000000" fill-rule="nonzero" fill-opacity="1" /><path clip-path="url(#clip770)" d="M1348.51 1533.39 L1348.51 1538.93 Q1346.03 1537.65 1343.35 1537.02 Q1340.68 1536.38 1337.81 1536.38 Q1333.45 1536.38 1331.26 1537.72 Q1329.09 1539.05 1329.09 1541.73 Q1329.09 1543.76 1330.65 1544.94 Q1332.21 1546.09 1336.92 1547.14 L1338.93 1547.58 Q1345.17 1548.92 1347.78 1551.37 Q1350.42 1553.79 1350.42 1558.15 Q1350.42 1563.12 1346.47 1566.01 Q1342.56 1568.91 1335.68 1568.91 Q1332.82 1568.91 1329.7 1568.34 Q1326.61 1567.79 1323.17 1566.68 L1323.17 1560.63 Q1326.42 1562.32 1329.57 1563.18 Q1332.72 1564.01 1335.81 1564.01 Q1339.95 1564.01 1342.17 1562.61 Q1344.4 1561.17 1344.4 1558.6 Q1344.4 1556.21 1342.78 1554.94 Q1341.19 1553.66 1335.74 1552.49 L1333.71 1552.01 Q1328.26 1550.86 1325.85 1548.51 Q1323.43 1546.12 1323.43 1541.98 Q1323.43 1536.95 1326.99 1534.22 Q1330.56 1531.48 1337.11 1531.48 Q1340.36 1531.48 1343.22 1531.96 Q1346.09 1532.43 1348.51 1533.39 Z" fill="#000000" fill-rule="nonzero" fill-opacity="1" /><path clip-path="url(#clip770)" d="M1394.53 1518.52 Q1390.27 1525.84 1388.2 1533.01 Q1386.13 1540.17 1386.13 1547.52 Q1386.13 1554.87 1388.2 1562.1 Q1390.3 1569.29 1394.53 1576.58 L1389.44 1576.58 Q1384.66 1569.1 1382.28 1561.87 Q1379.92 1554.65 1379.92 1547.52 Q1379.92 1540.42 1382.28 1533.23 Q1384.63 1526.04 1389.44 1518.52 L1394.53 1518.52 Z" fill="#000000" fill-rule="nonzero" fill-opacity="1" /><path clip-path="url(#clip770)" d="M1450.05 1523.67 Q1450.05 1524.99 1448.93 1524.99 Q1445.29 1525.12 1443.81 1526.34 Q1442.36 1527.54 1441.81 1529.85 L1432.6 1566.6 Q1432.28 1567.76 1432.08 1567.89 Q1431.89 1567.99 1431.54 1567.99 Q1431.09 1567.99 1430.83 1567.76 Q1430.6 1567.54 1430.28 1566.73 L1413.86 1527.89 Q1413.73 1527.63 1413.57 1527.28 Q1413.4 1526.92 1413.28 1526.7 L1404.55 1561.51 Q1404.29 1562.51 1404.29 1563.03 Q1404.29 1564.28 1405.16 1565.09 Q1406.06 1565.86 1408.64 1565.96 Q1409.96 1565.96 1409.96 1566.67 Q1409.96 1567.99 1408.77 1567.99 Q1407.67 1567.99 1405.39 1567.89 Q1403.1 1567.79 1401.97 1567.79 Q1400.88 1567.79 1398.65 1567.89 Q1396.43 1567.99 1395.37 1567.99 Q1394.53 1567.99 1394.53 1567.25 Q1394.53 1566.67 1394.76 1566.38 Q1394.98 1566.05 1395.18 1566.02 Q1395.37 1565.96 1395.66 1565.96 Q1397.59 1565.89 1398.91 1565.51 Q1400.23 1565.12 1400.97 1564.38 Q1401.75 1563.64 1402.1 1562.9 Q1402.49 1562.12 1402.78 1561 L1411.6 1525.57 Q1411.6 1524.99 1407.12 1524.99 Q1406.35 1524.99 1406.03 1524.96 Q1405.74 1524.93 1405.51 1524.77 Q1405.29 1524.6 1405.29 1524.25 Q1405.29 1523.35 1405.68 1523.16 Q1406.06 1522.93 1407.19 1522.93 L1416.05 1522.93 Q1417.17 1522.93 1417.46 1523.12 Q1417.75 1523.28 1418.14 1524.19 L1432.73 1558.61 L1440.1 1529.27 Q1440.3 1528.69 1440.3 1527.89 Q1440.3 1526.6 1439.33 1525.83 Q1438.4 1525.02 1435.82 1524.99 Q1434.63 1524.99 1434.63 1524.25 Q1434.63 1523.64 1434.85 1523.35 Q1435.11 1523.03 1435.3 1522.99 Q1435.53 1522.93 1435.82 1522.93 Q1436.91 1522.93 1439.17 1523.03 Q1441.42 1523.12 1442.55 1523.12 Q1443.65 1523.12 1445.87 1523.03 Q1448.12 1522.93 1449.22 1522.93 Q1449.6 1522.93 1449.8 1523.12 Q1450.02 1523.28 1450.05 1523.48 L1450.05 1523.67 Z" fill="#000000" fill-rule="nonzero" fill-opacity="1" /><path clip-path="url(#clip770)" d="M1501.91 1566.99 Q1501.58 1567.37 1501 1567.37 Q1500.46 1567.37 1500.07 1566.99 L1486.41 1553.33 L1472.76 1566.99 Q1472.37 1567.37 1471.79 1567.37 Q1471.25 1567.37 1470.89 1566.99 Q1470.5 1566.63 1470.5 1566.09 Q1470.5 1565.54 1470.89 1565.15 L1484.55 1551.5 L1470.89 1537.84 Q1470.5 1537.45 1470.5 1536.91 Q1470.5 1536.33 1470.89 1536.01 Q1471.25 1535.62 1471.79 1535.62 Q1472.37 1535.62 1472.76 1536.01 L1486.41 1549.66 L1500.07 1536.01 Q1500.46 1535.62 1501 1535.62 Q1501.58 1535.62 1501.91 1536.01 Q1502.29 1536.33 1502.29 1536.91 Q1502.29 1537.45 1501.91 1537.84 L1488.25 1551.5 L1501.91 1565.15 Q1502.29 1565.54 1502.29 1566.12 Q1502.29 1566.67 1501.91 1566.99 Z" fill="#000000" fill-rule="nonzero" fill-opacity="1" /><path clip-path="url(#clip770)" d="M1588.9 1523.67 Q1588.9 1524.99 1587.77 1524.99 Q1584.13 1525.12 1582.65 1526.34 Q1581.2 1527.54 1580.65 1529.85 L1571.44 1566.6 Q1571.12 1567.76 1570.92 1567.89 Q1570.73 1567.99 1570.38 1567.99 Q1569.93 1567.99 1569.67 1567.76 Q1569.44 1567.54 1569.12 1566.73 L1552.7 1527.89 Q1552.57 1527.63 1552.41 1527.28 Q1552.25 1526.92 1552.12 1526.7 L1543.39 1561.51 Q1543.13 1562.51 1543.13 1563.03 Q1543.13 1564.28 1544 1565.09 Q1544.9 1565.86 1547.48 1565.96 Q1548.8 1565.96 1548.8 1566.67 Q1548.8 1567.99 1547.61 1567.99 Q1546.51 1567.99 1544.23 1567.89 Q1541.94 1567.79 1540.81 1567.79 Q1539.72 1567.79 1537.5 1567.89 Q1535.27 1567.99 1534.21 1567.99 Q1533.37 1567.99 1533.37 1567.25 Q1533.37 1566.67 1533.6 1566.38 Q1533.82 1566.05 1534.02 1566.02 Q1534.21 1565.96 1534.5 1565.96 Q1536.43 1565.89 1537.75 1565.51 Q1539.07 1565.12 1539.81 1564.38 Q1540.59 1563.64 1540.94 1562.9 Q1541.33 1562.12 1541.62 1561 L1550.44 1525.57 Q1550.44 1524.99 1545.97 1524.99 Q1545.19 1524.99 1544.87 1524.96 Q1544.58 1524.93 1544.35 1524.77 Q1544.13 1524.6 1544.13 1524.25 Q1544.13 1523.35 1544.52 1523.16 Q1544.9 1522.93 1546.03 1522.93 L1554.89 1522.93 Q1556.01 1522.93 1556.3 1523.12 Q1556.59 1523.28 1556.98 1524.19 L1571.57 1558.61 L1578.94 1529.27 Q1579.14 1528.69 1579.14 1527.89 Q1579.14 1526.6 1578.17 1525.83 Q1577.24 1525.02 1574.66 1524.99 Q1573.47 1524.99 1573.47 1524.25 Q1573.47 1523.64 1573.69 1523.35 Q1573.95 1523.03 1574.15 1522.99 Q1574.37 1522.93 1574.66 1522.93 Q1575.76 1522.93 1578.01 1523.03 Q1580.26 1523.12 1581.39 1523.12 Q1582.49 1523.12 1584.71 1523.03 Q1586.96 1522.93 1588.06 1522.93 Q1588.44 1522.93 1588.64 1523.12 Q1588.86 1523.28 1588.9 1523.48 L1588.9 1523.67 Z" fill="#000000" fill-rule="nonzero" fill-opacity="1" /><path clip-path="url(#clip770)" d="M1585.81 1518.52 L1590.91 1518.52 Q1595.68 1526.04 1598.04 1533.23 Q1600.42 1540.42 1600.42 1547.52 Q1600.42 1554.65 1598.04 1561.87 Q1595.68 1569.1 1590.91 1576.58 L1585.81 1576.58 Q1590.05 1569.29 1592.12 1562.1 Q1594.22 1554.87 1594.22 1547.52 Q1594.22 1540.17 1592.12 1533.01 Q1590.05 1525.84 1585.81 1518.52 Z" fill="#000000" fill-rule="nonzero" fill-opacity="1" /><polyline clip-path="url(#clip770)" style="stroke:#000000; stroke-linecap:round; stroke-linejoin:round; stroke-width:4; stroke-opacity:1; fill:none" points="220.057,1410.9 220.057,123.472 "/>
<polyline clip-path="url(#clip770)" style="stroke:#000000; stroke-linecap:round; stroke-linejoin:round; stroke-width:4; stroke-opacity:1; fill:none" points="220.057,963.783 238.955,963.783 "/>
<polyline clip-path="url(#clip770)" style="stroke:#000000; stroke-linecap:round; stroke-linejoin:round; stroke-width:4; stroke-opacity:1; fill:none" points="220.057,361.746 238.955,361.746 "/>
<polyline clip-path="url(#clip770)" style="stroke:#000000; stroke-linecap:round; stroke-linejoin:round; stroke-width:4; stroke-opacity:1; fill:none" points="220.057,1384.59 229.506,1384.59 "/>
<polyline clip-path="url(#clip770)" style="stroke:#000000; stroke-linecap:round; stroke-linejoin:round; stroke-width:4; stroke-opacity:1; fill:none" points="220.057,1278.58 229.506,1278.58 "/>
<polyline clip-path="url(#clip770)" style="stroke:#000000; stroke-linecap:round; stroke-linejoin:round; stroke-width:4; stroke-opacity:1; fill:none" points="220.057,1203.36 229.506,1203.36 "/>
<polyline clip-path="url(#clip770)" style="stroke:#000000; stroke-linecap:round; stroke-linejoin:round; stroke-width:4; stroke-opacity:1; fill:none" points="220.057,1145.01 229.506,1145.01 "/>
<polyline clip-path="url(#clip770)" style="stroke:#000000; stroke-linecap:round; stroke-linejoin:round; stroke-width:4; stroke-opacity:1; fill:none" points="220.057,1097.34 229.506,1097.34 "/>
<polyline clip-path="url(#clip770)" style="stroke:#000000; stroke-linecap:round; stroke-linejoin:round; stroke-width:4; stroke-opacity:1; fill:none" points="220.057,1057.04 229.506,1057.04 "/>
<polyline clip-path="url(#clip770)" style="stroke:#000000; stroke-linecap:round; stroke-linejoin:round; stroke-width:4; stroke-opacity:1; fill:none" points="220.057,1022.13 229.506,1022.13 "/>
<polyline clip-path="url(#clip770)" style="stroke:#000000; stroke-linecap:round; stroke-linejoin:round; stroke-width:4; stroke-opacity:1; fill:none" points="220.057,991.331 229.506,991.331 "/>
<polyline clip-path="url(#clip770)" style="stroke:#000000; stroke-linecap:round; stroke-linejoin:round; stroke-width:4; stroke-opacity:1; fill:none" points="220.057,782.552 229.506,782.552 "/>
<polyline clip-path="url(#clip770)" style="stroke:#000000; stroke-linecap:round; stroke-linejoin:round; stroke-width:4; stroke-opacity:1; fill:none" points="220.057,676.538 229.506,676.538 "/>
<polyline clip-path="url(#clip770)" style="stroke:#000000; stroke-linecap:round; stroke-linejoin:round; stroke-width:4; stroke-opacity:1; fill:none" points="220.057,601.321 229.506,601.321 "/>
<polyline clip-path="url(#clip770)" style="stroke:#000000; stroke-linecap:round; stroke-linejoin:round; stroke-width:4; stroke-opacity:1; fill:none" points="220.057,542.977 229.506,542.977 "/>
<polyline clip-path="url(#clip770)" style="stroke:#000000; stroke-linecap:round; stroke-linejoin:round; stroke-width:4; stroke-opacity:1; fill:none" points="220.057,495.307 229.506,495.307 "/>
<polyline clip-path="url(#clip770)" style="stroke:#000000; stroke-linecap:round; stroke-linejoin:round; stroke-width:4; stroke-opacity:1; fill:none" points="220.057,455.003 229.506,455.003 "/>
<polyline clip-path="url(#clip770)" style="stroke:#000000; stroke-linecap:round; stroke-linejoin:round; stroke-width:4; stroke-opacity:1; fill:none" points="220.057,420.089 229.506,420.089 "/>
<polyline clip-path="url(#clip770)" style="stroke:#000000; stroke-linecap:round; stroke-linejoin:round; stroke-width:4; stroke-opacity:1; fill:none" points="220.057,389.294 229.506,389.294 "/>
<polyline clip-path="url(#clip770)" style="stroke:#000000; stroke-linecap:round; stroke-linejoin:round; stroke-width:4; stroke-opacity:1; fill:none" points="220.057,180.515 229.506,180.515 "/>
<path clip-path="url(#clip770)" d="M116.041 983.576 L123.68 983.576 L123.68 957.21 L115.37 958.877 L115.37 954.617 L123.634 952.951 L128.31 952.951 L128.31 983.576 L135.948 983.576 L135.948 987.511 L116.041 987.511 L116.041 983.576 Z" fill="#000000" fill-rule="nonzero" fill-opacity="1" /><path clip-path="url(#clip770)" d="M155.393 956.029 Q151.782 956.029 149.953 959.594 Q148.147 963.136 148.147 970.265 Q148.147 977.372 149.953 980.937 Q151.782 984.478 155.393 984.478 Q159.027 984.478 160.833 980.937 Q162.661 977.372 162.661 970.265 Q162.661 963.136 160.833 959.594 Q159.027 956.029 155.393 956.029 M155.393 952.326 Q161.203 952.326 164.258 956.932 Q167.337 961.516 167.337 970.265 Q167.337 978.992 164.258 983.599 Q161.203 988.182 155.393 988.182 Q149.583 988.182 146.504 983.599 Q143.448 978.992 143.448 970.265 Q143.448 961.516 146.504 956.932 Q149.583 952.326 155.393 952.326 Z" fill="#000000" fill-rule="nonzero" fill-opacity="1" /><path clip-path="url(#clip770)" d="M167.883 956.903 L174.089 956.903 L174.089 935.481 L167.337 936.835 L167.337 933.375 L174.052 932.02 L177.851 932.02 L177.851 956.903 L184.057 956.903 L184.057 960.1 L167.883 960.1 L167.883 956.903 Z" fill="#000000" fill-rule="nonzero" fill-opacity="1" /><path clip-path="url(#clip770)" d="M114.931 381.538 L122.57 381.538 L122.57 355.173 L114.26 356.839 L114.26 352.58 L122.524 350.914 L127.2 350.914 L127.2 381.538 L134.839 381.538 L134.839 385.474 L114.931 385.474 L114.931 381.538 Z" fill="#000000" fill-rule="nonzero" fill-opacity="1" /><path clip-path="url(#clip770)" d="M154.283 353.992 Q150.672 353.992 148.843 357.557 Q147.038 361.099 147.038 368.228 Q147.038 375.335 148.843 378.9 Q150.672 382.441 154.283 382.441 Q157.917 382.441 159.723 378.9 Q161.552 375.335 161.552 368.228 Q161.552 361.099 159.723 357.557 Q157.917 353.992 154.283 353.992 M154.283 350.289 Q160.093 350.289 163.149 354.895 Q166.227 359.478 166.227 368.228 Q166.227 376.955 163.149 381.562 Q160.093 386.145 154.283 386.145 Q148.473 386.145 145.394 381.562 Q142.339 376.955 142.339 368.228 Q142.339 359.478 145.394 354.895 Q148.473 350.289 154.283 350.289 Z" fill="#000000" fill-rule="nonzero" fill-opacity="1" /><path clip-path="url(#clip770)" d="M170.798 354.866 L184.057 354.866 L184.057 358.063 L166.227 358.063 L166.227 354.866 Q168.39 352.628 172.114 348.866 Q175.857 345.086 176.816 343.995 Q178.641 341.945 179.355 340.534 Q180.089 339.105 180.089 337.732 Q180.089 335.494 178.509 334.083 Q176.948 332.673 174.428 332.673 Q172.641 332.673 170.647 333.293 Q168.672 333.914 166.416 335.174 L166.416 331.337 Q168.71 330.416 170.704 329.946 Q172.697 329.475 174.352 329.475 Q178.716 329.475 181.311 331.657 Q183.907 333.839 183.907 337.487 Q183.907 339.218 183.249 340.779 Q182.609 342.321 180.898 344.428 Q180.427 344.973 177.907 347.587 Q175.387 350.183 170.798 354.866 Z" fill="#000000" fill-rule="nonzero" fill-opacity="1" /><path clip-path="url(#clip770)" d="M16.4842 1064.02 L16.4842 1033.97 L21.895 1033.97 L21.895 1057.59 L35.9632 1057.59 L35.9632 1034.96 L41.3741 1034.96 L41.3741 1057.59 L58.5933 1057.59 L58.5933 1033.4 L64.0042 1033.4 L64.0042 1064.02 L16.4842 1064.02 Z" fill="#000000" fill-rule="nonzero" fill-opacity="1" /><path clip-path="url(#clip770)" d="M28.3562 993.453 L45.7028 1006.34 L64.0042 992.785 L64.0042 999.692 L49.9996 1010.07 L64.0042 1020.44 L64.0042 1027.35 L45.3526 1013.51 L28.3562 1026.17 L28.3562 1019.27 L41.0558 1009.81 L28.3562 1000.36 L28.3562 993.453 Z" fill="#000000" fill-rule="nonzero" fill-opacity="1" /><path clip-path="url(#clip770)" d="M44.7161 956.023 L47.5806 956.023 L47.5806 982.95 Q53.6281 982.568 56.8109 979.322 Q59.9619 976.043 59.9619 970.219 Q59.9619 966.845 59.1344 963.694 Q58.3069 960.511 56.6518 957.392 L62.1899 957.392 Q63.5267 960.543 64.227 963.853 Q64.9272 967.163 64.9272 970.569 Q64.9272 979.099 59.9619 984.096 Q54.9967 989.061 46.5303 989.061 Q37.7774 989.061 32.6531 984.35 Q27.4968 979.608 27.4968 971.587 Q27.4968 964.394 32.1438 960.224 Q36.7589 956.023 44.7161 956.023 M42.9973 961.88 Q38.1912 961.943 35.3266 964.585 Q32.4621 967.195 32.4621 971.524 Q32.4621 976.425 35.2312 979.385 Q38.0002 982.313 43.0292 982.759 L42.9973 961.88 Z" fill="#000000" fill-rule="nonzero" fill-opacity="1" /><path clip-path="url(#clip770)" d="M29.7248 920.757 L35.1993 920.757 Q33.8307 923.24 33.1623 925.754 Q32.4621 928.237 32.4621 930.783 Q32.4621 936.48 36.0905 939.631 Q39.6872 942.782 46.212 942.782 Q52.7369 942.782 56.3653 939.631 Q59.9619 936.48 59.9619 930.783 Q59.9619 928.237 59.2935 925.754 Q58.5933 923.24 57.2247 920.757 L62.6355 920.757 Q63.7814 923.208 64.3543 925.85 Q64.9272 928.46 64.9272 931.42 Q64.9272 939.472 59.8664 944.215 Q54.8057 948.957 46.212 948.957 Q37.491 948.957 32.4939 944.183 Q27.4968 939.377 27.4968 931.038 Q27.4968 928.332 28.0697 925.754 Q28.6108 923.176 29.7248 920.757 Z" fill="#000000" fill-rule="nonzero" fill-opacity="1" /><path clip-path="url(#clip770)" d="M49.9359 911.177 L28.3562 911.177 L28.3562 905.32 L49.7131 905.32 Q54.7739 905.32 57.3202 903.347 Q59.8346 901.373 59.8346 897.427 Q59.8346 892.684 56.8109 889.947 Q53.7872 887.178 48.5673 887.178 L28.3562 887.178 L28.3562 881.322 L64.0042 881.322 L64.0042 887.178 L58.5296 887.178 Q61.7762 889.31 63.3676 892.143 Q64.9272 894.944 64.9272 898.668 Q64.9272 904.811 61.1078 907.994 Q57.2883 911.177 49.9359 911.177 M27.4968 896.44 L27.4968 896.44 Z" fill="#000000" fill-rule="nonzero" fill-opacity="1" /><path clip-path="url(#clip770)" d="M18.2347 863.466 L28.3562 863.466 L28.3562 851.403 L32.9077 851.403 L32.9077 863.466 L52.2594 863.466 Q56.6199 863.466 57.8613 862.288 Q59.1026 861.079 59.1026 857.418 L59.1026 851.403 L64.0042 851.403 L64.0042 857.418 Q64.0042 864.198 61.4897 866.776 Q58.9434 869.354 52.2594 869.354 L32.9077 869.354 L32.9077 873.651 L28.3562 873.651 L28.3562 869.354 L18.2347 869.354 L18.2347 863.466 Z" fill="#000000" fill-rule="nonzero" fill-opacity="1" /><path clip-path="url(#clip770)" d="M28.3562 843.7 L28.3562 837.844 L64.0042 837.844 L64.0042 843.7 L28.3562 843.7 M14.479 843.7 L14.479 837.844 L21.895 837.844 L21.895 843.7 L14.479 843.7 Z" fill="#000000" fill-rule="nonzero" fill-opacity="1" /><path clip-path="url(#clip770)" d="M32.4621 811.776 Q32.4621 816.487 36.1542 819.224 Q39.8145 821.961 46.212 821.961 Q52.6095 821.961 56.3017 819.256 Q59.9619 816.519 59.9619 811.776 Q59.9619 807.097 56.2698 804.36 Q52.5777 801.623 46.212 801.623 Q39.8781 801.623 36.186 804.36 Q32.4621 807.097 32.4621 811.776 M27.4968 811.776 Q27.4968 804.137 32.4621 799.777 Q37.4273 795.416 46.212 795.416 Q54.9649 795.416 59.9619 799.777 Q64.9272 804.137 64.9272 811.776 Q64.9272 819.447 59.9619 823.807 Q54.9649 828.136 46.212 828.136 Q37.4273 828.136 32.4621 823.807 Q27.4968 819.447 27.4968 811.776 Z" fill="#000000" fill-rule="nonzero" fill-opacity="1" /><path clip-path="url(#clip770)" d="M42.4881 756.076 L64.0042 756.076 L64.0042 761.933 L42.679 761.933 Q37.6183 761.933 35.1038 763.906 Q32.5894 765.879 32.5894 769.826 Q32.5894 774.569 35.6131 777.306 Q38.6368 780.043 43.8567 780.043 L64.0042 780.043 L64.0042 785.931 L28.3562 785.931 L28.3562 780.043 L33.8944 780.043 Q30.6797 777.942 29.0883 775.11 Q27.4968 772.245 27.4968 768.521 Q27.4968 762.378 31.3163 759.227 Q35.1038 756.076 42.4881 756.076 Z" fill="#000000" fill-rule="nonzero" fill-opacity="1" /><path clip-path="url(#clip770)" d="M16.4842 730.009 L16.4842 689.809 L21.895 689.809 L21.895 706.678 L64.0042 706.678 L64.0042 713.14 L21.895 713.14 L21.895 730.009 L16.4842 730.009 Z" fill="#000000" fill-rule="nonzero" fill-opacity="1" /><path clip-path="url(#clip770)" d="M28.3562 685.862 L28.3562 680.006 L64.0042 680.006 L64.0042 685.862 L28.3562 685.862 M14.479 685.862 L14.479 680.006 L21.895 680.006 L21.895 685.862 L14.479 685.862 Z" fill="#000000" fill-rule="nonzero" fill-opacity="1" /><path clip-path="url(#clip770)" d="M35.1993 639.998 Q31.2526 637.801 29.3747 634.746 Q27.4968 631.69 27.4968 627.553 Q27.4968 621.983 31.4117 618.959 Q35.2948 615.935 42.4881 615.935 L64.0042 615.935 L64.0042 621.823 L42.679 621.823 Q37.5546 621.823 35.072 623.638 Q32.5894 625.452 32.5894 629.176 Q32.5894 633.727 35.6131 636.369 Q38.6368 639.011 43.8567 639.011 L64.0042 639.011 L64.0042 644.899 L42.679 644.899 Q37.5228 644.899 35.072 646.713 Q32.5894 648.528 32.5894 652.315 Q32.5894 656.803 35.6449 659.445 Q38.6686 662.087 43.8567 662.087 L64.0042 662.087 L64.0042 667.975 L28.3562 667.975 L28.3562 662.087 L33.8944 662.087 Q30.616 660.081 29.0564 657.28 Q27.4968 654.48 27.4968 650.628 Q27.4968 646.745 29.4702 644.04 Q31.4436 641.303 35.1993 639.998 Z" fill="#000000" fill-rule="nonzero" fill-opacity="1" /><path clip-path="url(#clip770)" d="M44.7161 573.762 L47.5806 573.762 L47.5806 600.689 Q53.6281 600.307 56.8109 597.061 Q59.9619 593.783 59.9619 587.958 Q59.9619 584.584 59.1344 581.433 Q58.3069 578.25 56.6518 575.131 L62.1899 575.131 Q63.5267 578.282 64.227 581.592 Q64.9272 584.902 64.9272 588.308 Q64.9272 596.838 59.9619 601.835 Q54.9967 606.8 46.5303 606.8 Q37.7774 606.8 32.6531 602.09 Q27.4968 597.347 27.4968 589.327 Q27.4968 582.133 32.1438 577.964 Q36.7589 573.762 44.7161 573.762 M42.9973 579.619 Q38.1912 579.682 35.3266 582.324 Q32.4621 584.934 32.4621 589.263 Q32.4621 594.164 35.2312 597.125 Q38.0002 600.053 43.0292 600.498 L42.9973 579.619 Z" fill="#000000" fill-rule="nonzero" fill-opacity="1" /><path clip-path="url(#clip770)" d="M14.479 543.971 L14.479 530.476 L19.0304 530.476 L19.0304 538.114 L68.0464 538.114 L68.0464 530.476 L72.5979 530.476 L72.5979 543.971 L14.479 543.971 Z" fill="#000000" fill-rule="nonzero" fill-opacity="1" /><path clip-path="url(#clip770)" d="M29.4065 495.273 L34.9447 495.273 Q33.6716 497.756 33.035 500.429 Q32.3984 503.103 32.3984 505.968 Q32.3984 510.328 33.7352 512.524 Q35.072 514.689 37.7456 514.689 Q39.7826 514.689 40.9603 513.129 Q42.1061 511.569 43.1565 506.859 L43.6021 504.854 Q44.9389 498.615 47.3897 496.005 Q49.8086 493.364 54.1691 493.364 Q59.1344 493.364 62.0308 497.31 Q64.9272 501.225 64.9272 508.1 Q64.9272 510.965 64.3543 514.084 Q63.8132 517.171 62.6992 520.609 L56.6518 520.609 Q58.3387 517.362 59.198 514.211 Q60.0256 511.06 60.0256 507.973 Q60.0256 503.835 58.6251 501.607 Q57.1929 499.379 54.6147 499.379 Q52.2276 499.379 50.9545 501.002 Q49.6813 502.594 48.5037 508.036 L48.0262 510.073 Q46.8804 515.516 44.5251 517.935 Q42.138 520.354 38.0002 520.354 Q32.9713 520.354 30.2341 516.789 Q27.4968 513.225 27.4968 506.668 Q27.4968 503.421 27.9743 500.557 Q28.4517 497.692 29.4065 495.273 Z" fill="#000000" fill-rule="nonzero" fill-opacity="1" /><path clip-path="url(#clip770)" d="M14.479 470.351 L72.5979 470.351 L72.5979 483.847 L68.0464 483.847 L68.0464 476.24 L19.0304 476.24 L19.0304 483.847 L14.479 483.847 L14.479 470.351 Z" fill="#000000" fill-rule="nonzero" fill-opacity="1" /><path clip-path="url(#clip770)" d="M484.86 19.8221 Q475.948 19.8221 470.682 26.4655 Q465.456 33.109 465.456 44.5731 Q465.456 55.9966 470.682 62.6401 Q475.948 69.2836 484.86 69.2836 Q493.772 69.2836 498.957 62.6401 Q504.183 55.9966 504.183 44.5731 Q504.183 33.109 498.957 26.4655 Q493.772 19.8221 484.86 19.8221 M484.86 13.1786 Q497.58 13.1786 505.195 21.726 Q512.811 30.2329 512.811 44.5731 Q512.811 58.8728 505.195 67.4202 Q497.58 75.9271 484.86 75.9271 Q472.099 75.9271 464.443 67.4202 Q456.828 58.9133 456.828 44.5731 Q456.828 30.2329 464.443 21.726 Q472.099 13.1786 484.86 13.1786 Z" fill="#000000" fill-rule="nonzero" fill-opacity="1" /><path clip-path="url(#clip770)" d="M557.938 31.1241 L557.938 38.0916 Q554.778 36.3497 551.578 35.4991 Q548.419 34.6079 545.178 34.6079 Q537.927 34.6079 533.916 39.2259 Q529.906 43.8034 529.906 52.1078 Q529.906 60.4121 533.916 65.0301 Q537.927 69.6077 545.178 69.6077 Q548.419 69.6077 551.578 68.757 Q554.778 67.8658 557.938 66.1239 L557.938 73.0104 Q554.819 74.4687 551.457 75.1979 Q548.135 75.9271 544.368 75.9271 Q534.119 75.9271 528.083 69.4861 Q522.047 63.0452 522.047 52.1078 Q522.047 41.0083 528.124 34.6484 Q534.24 28.2884 544.854 28.2884 Q548.297 28.2884 551.578 29.0176 Q554.859 29.7063 557.938 31.1241 Z" fill="#000000" fill-rule="nonzero" fill-opacity="1" /><path clip-path="url(#clip770)" d="M578.274 16.5003 L578.274 29.3822 L593.627 29.3822 L593.627 35.175 L578.274 35.175 L578.274 59.8045 Q578.274 65.3542 579.773 66.9341 Q581.312 68.5139 585.97 68.5139 L593.627 68.5139 L593.627 74.7523 L585.97 74.7523 Q577.342 74.7523 574.061 71.5521 Q570.78 68.3114 570.78 59.8045 L570.78 35.175 L565.311 35.175 L565.311 29.3822 L570.78 29.3822 L570.78 16.5003 L578.274 16.5003 Z" fill="#000000" fill-rule="nonzero" fill-opacity="1" /><path clip-path="url(#clip770)" d="M629.72 36.3497 Q628.464 35.6206 626.966 35.2965 Q625.507 34.9319 623.725 34.9319 Q617.405 34.9319 614.003 39.0638 Q610.64 43.1553 610.64 50.852 L610.64 74.7523 L603.146 74.7523 L603.146 29.3822 L610.64 29.3822 L610.64 36.4308 Q612.99 32.2988 616.757 30.3139 Q620.525 28.2884 625.912 28.2884 Q626.682 28.2884 627.614 28.41 Q628.545 28.491 629.68 28.6935 L629.72 36.3497 Z" fill="#000000" fill-rule="nonzero" fill-opacity="1" /><path clip-path="url(#clip770)" d="M674.523 50.2038 L674.523 53.8496 L640.253 53.8496 Q640.739 61.5464 644.871 65.5973 Q649.043 69.6077 656.456 69.6077 Q660.75 69.6077 664.76 68.5544 Q668.811 67.5012 672.781 65.3947 L672.781 72.4433 Q668.771 74.1447 664.558 75.0359 Q660.345 75.9271 656.011 75.9271 Q645.154 75.9271 638.794 69.6077 Q632.475 63.2883 632.475 52.5128 Q632.475 41.3729 638.47 34.8509 Q644.506 28.2884 654.714 28.2884 Q663.869 28.2884 669.176 34.2028 Q674.523 40.0766 674.523 50.2038 M667.07 48.0163 Q666.988 41.8995 663.626 38.2537 Q660.305 34.6079 654.795 34.6079 Q648.557 34.6079 644.79 38.1321 Q641.063 41.6564 640.496 48.0569 L667.07 48.0163 Z" fill="#000000" fill-rule="nonzero" fill-opacity="1" /><path clip-path="url(#clip770)" d="M725.565 50.2038 L725.565 53.8496 L691.294 53.8496 Q691.78 61.5464 695.912 65.5973 Q700.084 69.6077 707.498 69.6077 Q711.791 69.6077 715.802 68.5544 Q719.853 67.5012 723.823 65.3947 L723.823 72.4433 Q719.812 74.1447 715.599 75.0359 Q711.386 75.9271 707.052 75.9271 Q696.196 75.9271 689.836 69.6077 Q683.516 63.2883 683.516 52.5128 Q683.516 41.3729 689.512 34.8509 Q695.547 28.2884 705.756 28.2884 Q714.911 28.2884 720.217 34.2028 Q725.565 40.0766 725.565 50.2038 M718.111 48.0163 Q718.03 41.8995 714.668 38.2537 Q711.346 34.6079 705.837 34.6079 Q699.598 34.6079 695.831 38.1321 Q692.104 41.6564 691.537 48.0569 L718.111 48.0163 Z" fill="#000000" fill-rule="nonzero" fill-opacity="1" /><path clip-path="url(#clip770)" d="M758.822 29.3822 L766.722 29.3822 L780.9 67.4607 L795.078 29.3822 L802.977 29.3822 L785.964 74.7523 L775.836 74.7523 L758.822 29.3822 Z" fill="#000000" fill-rule="nonzero" fill-opacity="1" /><path clip-path="url(#clip770)" d="M842.19 30.719 L842.19 37.7676 Q839.03 36.1472 835.628 35.337 Q832.225 34.5268 828.579 34.5268 Q823.029 34.5268 820.234 36.2282 Q817.48 37.9296 817.48 41.3324 Q817.48 43.9249 819.465 45.4238 Q821.449 46.8821 827.445 48.2189 L829.997 48.786 Q837.937 50.4874 841.258 53.6066 Q844.621 56.6853 844.621 62.235 Q844.621 68.5544 839.598 72.2408 Q834.615 75.9271 825.865 75.9271 Q822.219 75.9271 818.249 75.1979 Q814.32 74.5093 809.945 73.0914 L809.945 65.3947 Q814.077 67.5417 818.087 68.6354 Q822.098 69.6887 826.027 69.6887 Q831.293 69.6887 834.129 67.9063 Q836.964 66.0834 836.964 62.8021 Q836.964 59.764 834.898 58.1436 Q832.873 56.5232 825.946 55.0244 L823.353 54.4168 Q816.426 52.9584 813.348 49.9608 Q810.269 46.9226 810.269 41.6564 Q810.269 35.256 814.806 31.7722 Q819.343 28.2884 827.688 28.2884 Q831.82 28.2884 835.466 28.8961 Q839.111 29.5037 842.19 30.719 Z" fill="#000000" fill-rule="nonzero" fill-opacity="1" /><path clip-path="url(#clip770)" d="M857.543 64.463 L866.09 64.463 L866.09 74.7523 L857.543 74.7523 L857.543 64.463 Z" fill="#000000" fill-rule="nonzero" fill-opacity="1" /><path clip-path="url(#clip770)" d="M917.739 20.9968 L917.739 68.0278 L927.624 68.0278 Q940.141 68.0278 945.934 62.3565 Q951.767 56.6853 951.767 44.4515 Q951.767 32.2988 945.934 26.6681 Q940.141 20.9968 927.624 20.9968 L917.739 20.9968 M909.557 14.2723 L926.368 14.2723 Q943.949 14.2723 952.172 21.6044 Q960.395 28.8961 960.395 44.4515 Q960.395 60.088 952.132 67.4202 Q943.868 74.7523 926.368 74.7523 L909.557 74.7523 L909.557 14.2723 Z" fill="#000000" fill-rule="nonzero" fill-opacity="1" /><path clip-path="url(#clip770)" d="M973.115 29.3822 L980.569 29.3822 L980.569 74.7523 L973.115 74.7523 L973.115 29.3822 M973.115 11.7202 L980.569 11.7202 L980.569 21.1588 L973.115 21.1588 L973.115 11.7202 Z" fill="#000000" fill-rule="nonzero" fill-opacity="1" /><path clip-path="url(#clip770)" d="M1022.46 36.3497 Q1021.2 35.6206 1019.7 35.2965 Q1018.24 34.9319 1016.46 34.9319 Q1010.14 34.9319 1006.74 39.0638 Q1003.38 43.1553 1003.38 50.852 L1003.38 74.7523 L995.881 74.7523 L995.881 29.3822 L1003.38 29.3822 L1003.38 36.4308 Q1005.73 32.2988 1009.49 30.3139 Q1013.26 28.2884 1018.65 28.2884 Q1019.42 28.2884 1020.35 28.41 Q1021.28 28.491 1022.41 28.6935 L1022.46 36.3497 Z" fill="#000000" fill-rule="nonzero" fill-opacity="1" /><path clip-path="url(#clip770)" d="M1067.26 50.2038 L1067.26 53.8496 L1032.99 53.8496 Q1033.47 61.5464 1037.61 65.5973 Q1041.78 69.6077 1049.19 69.6077 Q1053.49 69.6077 1057.5 68.5544 Q1061.55 67.5012 1065.52 65.3947 L1065.52 72.4433 Q1061.51 74.1447 1057.29 75.0359 Q1053.08 75.9271 1048.75 75.9271 Q1037.89 75.9271 1031.53 69.6077 Q1025.21 63.2883 1025.21 52.5128 Q1025.21 41.3729 1031.21 34.8509 Q1037.24 28.2884 1047.45 28.2884 Q1056.6 28.2884 1061.91 34.2028 Q1067.26 40.0766 1067.26 50.2038 M1059.8 48.0163 Q1059.72 41.8995 1056.36 38.2537 Q1053.04 34.6079 1047.53 34.6079 Q1041.29 34.6079 1037.52 38.1321 Q1033.8 41.6564 1033.23 48.0569 L1059.8 48.0163 Z" fill="#000000" fill-rule="nonzero" fill-opacity="1" /><path clip-path="url(#clip770)" d="M1112.14 31.1241 L1112.14 38.0916 Q1108.98 36.3497 1105.78 35.4991 Q1102.62 34.6079 1099.38 34.6079 Q1092.13 34.6079 1088.12 39.2259 Q1084.11 43.8034 1084.11 52.1078 Q1084.11 60.4121 1088.12 65.0301 Q1092.13 69.6077 1099.38 69.6077 Q1102.62 69.6077 1105.78 68.757 Q1108.98 67.8658 1112.14 66.1239 L1112.14 73.0104 Q1109.02 74.4687 1105.66 75.1979 Q1102.34 75.9271 1098.57 75.9271 Q1088.32 75.9271 1082.29 69.4861 Q1076.25 63.0452 1076.25 52.1078 Q1076.25 41.0083 1082.33 34.6484 Q1088.44 28.2884 1099.06 28.2884 Q1102.5 28.2884 1105.78 29.0176 Q1109.06 29.7063 1112.14 31.1241 Z" fill="#000000" fill-rule="nonzero" fill-opacity="1" /><path clip-path="url(#clip770)" d="M1132.48 16.5003 L1132.48 29.3822 L1147.83 29.3822 L1147.83 35.175 L1132.48 35.175 L1132.48 59.8045 Q1132.48 65.3542 1133.98 66.9341 Q1135.52 68.5139 1140.17 68.5139 L1147.83 68.5139 L1147.83 74.7523 L1140.17 74.7523 Q1131.55 74.7523 1128.26 71.5521 Q1124.98 68.3114 1124.98 59.8045 L1124.98 35.175 L1119.52 35.175 L1119.52 29.3822 L1124.98 29.3822 L1124.98 16.5003 L1132.48 16.5003 Z" fill="#000000" fill-rule="nonzero" fill-opacity="1" /><path clip-path="url(#clip770)" d="M1220.59 16.2573 L1220.59 24.2375 Q1215.93 22.0095 1211.79 20.9158 Q1207.66 19.8221 1203.81 19.8221 Q1197.13 19.8221 1193.48 22.4146 Q1189.88 25.0072 1189.88 29.7873 Q1189.88 33.7977 1192.27 35.8636 Q1194.7 37.8891 1201.42 39.1449 L1206.37 40.1576 Q1215.52 41.8995 1219.86 46.315 Q1224.23 50.6899 1224.23 58.0626 Q1224.23 66.853 1218.32 71.3901 Q1212.44 75.9271 1201.06 75.9271 Q1196.77 75.9271 1191.9 74.9549 Q1187.08 73.9826 1181.9 72.0787 L1181.9 63.6528 Q1186.88 66.448 1191.66 67.8658 Q1196.44 69.2836 1201.06 69.2836 Q1208.07 69.2836 1211.88 66.529 Q1215.68 63.7744 1215.68 58.6702 Q1215.68 54.2142 1212.93 51.7027 Q1210.21 49.1911 1203.98 47.9353 L1198.99 46.9631 Q1189.84 45.1402 1185.75 41.2513 Q1181.66 37.3625 1181.66 30.4354 Q1181.66 22.4146 1187.29 17.7966 Q1192.96 13.1786 1202.88 13.1786 Q1207.14 13.1786 1211.55 13.9482 Q1215.97 14.7179 1220.59 16.2573 Z" fill="#000000" fill-rule="nonzero" fill-opacity="1" /><path clip-path="url(#clip770)" d="M1254.25 34.6079 Q1248.25 34.6079 1244.77 39.3069 Q1241.29 43.9654 1241.29 52.1078 Q1241.29 60.2501 1244.73 64.9491 Q1248.21 69.6077 1254.25 69.6077 Q1260.2 69.6077 1263.69 64.9086 Q1267.17 60.2096 1267.17 52.1078 Q1267.17 44.0465 1263.69 39.3474 Q1260.2 34.6079 1254.25 34.6079 M1254.25 28.2884 Q1263.97 28.2884 1269.52 34.6079 Q1275.07 40.9273 1275.07 52.1078 Q1275.07 63.2477 1269.52 69.6077 Q1263.97 75.9271 1254.25 75.9271 Q1244.49 75.9271 1238.94 69.6077 Q1233.43 63.2477 1233.43 52.1078 Q1233.43 40.9273 1238.94 34.6079 Q1244.49 28.2884 1254.25 28.2884 Z" fill="#000000" fill-rule="nonzero" fill-opacity="1" /><path clip-path="url(#clip770)" d="M1287.42 11.7202 L1294.88 11.7202 L1294.88 74.7523 L1287.42 74.7523 L1287.42 11.7202 Z" fill="#000000" fill-rule="nonzero" fill-opacity="1" /><path clip-path="url(#clip770)" d="M1309.7 56.8473 L1309.7 29.3822 L1317.16 29.3822 L1317.16 56.5638 Q1317.16 63.0047 1319.67 66.2454 Q1322.18 69.4456 1327.2 69.4456 Q1333.24 69.4456 1336.72 65.5973 Q1340.25 61.7489 1340.25 55.1054 L1340.25 29.3822 L1347.7 29.3822 L1347.7 74.7523 L1340.25 74.7523 L1340.25 67.7848 Q1337.53 71.9167 1333.93 73.9421 Q1330.36 75.9271 1325.63 75.9271 Q1317.81 75.9271 1313.76 71.066 Q1309.7 66.2049 1309.7 56.8473 M1328.46 28.2884 L1328.46 28.2884 Z" fill="#000000" fill-rule="nonzero" fill-opacity="1" /><path clip-path="url(#clip770)" d="M1370.43 16.5003 L1370.43 29.3822 L1385.78 29.3822 L1385.78 35.175 L1370.43 35.175 L1370.43 59.8045 Q1370.43 65.3542 1371.93 66.9341 Q1373.47 68.5139 1378.12 68.5139 L1385.78 68.5139 L1385.78 74.7523 L1378.12 74.7523 Q1369.5 74.7523 1366.22 71.5521 Q1362.93 68.3114 1362.93 59.8045 L1362.93 35.175 L1357.47 35.175 L1357.47 29.3822 L1362.93 29.3822 L1362.93 16.5003 L1370.43 16.5003 Z" fill="#000000" fill-rule="nonzero" fill-opacity="1" /><path clip-path="url(#clip770)" d="M1395.58 29.3822 L1403.04 29.3822 L1403.04 74.7523 L1395.58 74.7523 L1395.58 29.3822 M1395.58 11.7202 L1403.04 11.7202 L1403.04 21.1588 L1395.58 21.1588 L1395.58 11.7202 Z" fill="#000000" fill-rule="nonzero" fill-opacity="1" /><path clip-path="url(#clip770)" d="M1436.21 34.6079 Q1430.22 34.6079 1426.74 39.3069 Q1423.25 43.9654 1423.25 52.1078 Q1423.25 60.2501 1426.7 64.9491 Q1430.18 69.6077 1436.21 69.6077 Q1442.17 69.6077 1445.65 64.9086 Q1449.14 60.2096 1449.14 52.1078 Q1449.14 44.0465 1445.65 39.3474 Q1442.17 34.6079 1436.21 34.6079 M1436.21 28.2884 Q1445.94 28.2884 1451.49 34.6079 Q1457.04 40.9273 1457.04 52.1078 Q1457.04 63.2477 1451.49 69.6077 Q1445.94 75.9271 1436.21 75.9271 Q1426.45 75.9271 1420.9 69.6077 Q1415.39 63.2477 1415.39 52.1078 Q1415.39 40.9273 1420.9 34.6079 Q1426.45 28.2884 1436.21 28.2884 Z" fill="#000000" fill-rule="nonzero" fill-opacity="1" /><path clip-path="url(#clip770)" d="M1507.11 47.3682 L1507.11 74.7523 L1499.65 74.7523 L1499.65 47.6113 Q1499.65 41.1703 1497.14 37.9701 Q1494.63 34.7699 1489.61 34.7699 Q1483.57 34.7699 1480.09 38.6182 Q1476.6 42.4666 1476.6 49.1101 L1476.6 74.7523 L1469.11 74.7523 L1469.11 29.3822 L1476.6 29.3822 L1476.6 36.4308 Q1479.28 32.3393 1482.88 30.3139 Q1486.53 28.2884 1491.27 28.2884 Q1499.08 28.2884 1503.1 33.1495 Q1507.11 37.9701 1507.11 47.3682 Z" fill="#000000" fill-rule="nonzero" fill-opacity="1" /><path clip-path="url(#clip770)" d="M1540.28 14.2723 L1591.45 14.2723 L1591.45 21.1588 L1569.98 21.1588 L1569.98 74.7523 L1561.75 74.7523 L1561.75 21.1588 L1540.28 21.1588 L1540.28 14.2723 Z" fill="#000000" fill-rule="nonzero" fill-opacity="1" /><path clip-path="url(#clip770)" d="M1596.47 29.3822 L1603.92 29.3822 L1603.92 74.7523 L1596.47 74.7523 L1596.47 29.3822 M1596.47 11.7202 L1603.92 11.7202 L1603.92 21.1588 L1596.47 21.1588 L1596.47 11.7202 Z" fill="#000000" fill-rule="nonzero" fill-opacity="1" /><path clip-path="url(#clip770)" d="M1654.84 38.0916 Q1657.64 33.0685 1661.53 30.6785 Q1665.41 28.2884 1670.68 28.2884 Q1677.77 28.2884 1681.62 33.2711 Q1685.47 38.2132 1685.47 47.3682 L1685.47 74.7523 L1677.97 74.7523 L1677.97 47.6113 Q1677.97 41.0893 1675.66 37.9296 Q1673.35 34.7699 1668.62 34.7699 Q1662.82 34.7699 1659.46 38.6182 Q1656.1 42.4666 1656.1 49.1101 L1656.1 74.7523 L1648.6 74.7523 L1648.6 47.6113 Q1648.6 41.0488 1646.29 37.9296 Q1643.99 34.7699 1639.17 34.7699 Q1633.45 34.7699 1630.09 38.6588 Q1626.73 42.5071 1626.73 49.1101 L1626.73 74.7523 L1619.23 74.7523 L1619.23 29.3822 L1626.73 29.3822 L1626.73 36.4308 Q1629.28 32.2583 1632.85 30.2734 Q1636.41 28.2884 1641.31 28.2884 Q1646.25 28.2884 1649.7 30.8 Q1653.18 33.3116 1654.84 38.0916 Z" fill="#000000" fill-rule="nonzero" fill-opacity="1" /><path clip-path="url(#clip770)" d="M1739.14 50.2038 L1739.14 53.8496 L1704.87 53.8496 Q1705.36 61.5464 1709.49 65.5973 Q1713.66 69.6077 1721.07 69.6077 Q1725.37 69.6077 1729.38 68.5544 Q1733.43 67.5012 1737.4 65.3947 L1737.4 72.4433 Q1733.39 74.1447 1729.18 75.0359 Q1724.96 75.9271 1720.63 75.9271 Q1709.77 75.9271 1703.41 69.6077 Q1697.09 63.2883 1697.09 52.5128 Q1697.09 41.3729 1703.09 34.8509 Q1709.12 28.2884 1719.33 28.2884 Q1728.49 28.2884 1733.79 34.2028 Q1739.14 40.0766 1739.14 50.2038 M1731.69 48.0163 Q1731.61 41.8995 1728.24 38.2537 Q1724.92 34.6079 1719.41 34.6079 Q1713.18 34.6079 1709.41 38.1321 Q1705.68 41.6564 1705.11 48.0569 L1731.69 48.0163 Z" fill="#000000" fill-rule="nonzero" fill-opacity="1" /><path clip-path="url(#clip770)" d="M1780.3 30.719 L1780.3 37.7676 Q1777.14 36.1472 1773.74 35.337 Q1770.33 34.5268 1766.69 34.5268 Q1761.14 34.5268 1758.34 36.2282 Q1755.59 37.9296 1755.59 41.3324 Q1755.59 43.9249 1757.57 45.4238 Q1759.56 46.8821 1765.55 48.2189 L1768.11 48.786 Q1776.05 50.4874 1779.37 53.6066 Q1782.73 56.6853 1782.73 62.235 Q1782.73 68.5544 1777.71 72.2408 Q1772.72 75.9271 1763.97 75.9271 Q1760.33 75.9271 1756.36 75.1979 Q1752.43 74.5093 1748.05 73.0914 L1748.05 65.3947 Q1752.19 67.5417 1756.2 68.6354 Q1760.21 69.6887 1764.14 69.6887 Q1769.4 69.6887 1772.24 67.9063 Q1775.07 66.0834 1775.07 62.8021 Q1775.07 59.764 1773.01 58.1436 Q1770.98 56.5232 1764.05 55.0244 L1761.46 54.4168 Q1754.53 52.9584 1751.46 49.9608 Q1748.38 46.9226 1748.38 41.6564 Q1748.38 35.256 1752.91 31.7722 Q1757.45 28.2884 1765.8 28.2884 Q1769.93 28.2884 1773.57 28.8961 Q1777.22 29.5037 1780.3 30.719 Z" fill="#000000" fill-rule="nonzero" fill-opacity="1" /><path clip-path="url(#clip770)" d="M1838.87 11.8013 Q1833.45 21.1183 1830.81 30.2329 Q1828.18 39.3474 1828.18 48.705 Q1828.18 58.0626 1830.81 67.2581 Q1833.49 76.4132 1838.87 85.6898 L1832.39 85.6898 Q1826.32 76.1701 1823.28 66.9746 Q1820.28 57.779 1820.28 48.705 Q1820.28 39.6715 1823.28 30.5164 Q1826.28 21.3614 1832.39 11.8013 L1838.87 11.8013 Z" fill="#000000" fill-rule="nonzero" fill-opacity="1" /><path clip-path="url(#clip770)" d="M1882.9 52.7411 Q1882.9 56.881 1880.77 61.0209 Q1878.63 65.1608 1875.15 68.358 Q1871.67 71.5142 1866.91 73.5636 Q1862.16 75.6131 1857.2 75.777 L1854 88.2788 Q1853.38 91.312 1853.06 91.6399 Q1852.73 91.9678 1852.24 91.9678 Q1851.21 91.9678 1851.21 91.0251 Q1851.21 90.7381 1853.06 83.647 L1855.02 75.777 Q1847.56 75.3672 1843.22 71.0633 Q1838.87 66.7594 1838.87 60.57 Q1838.87 56.3891 1841.01 52.2492 Q1843.18 48.0683 1846.66 44.9121 Q1850.19 41.7559 1854.94 39.7475 Q1859.7 37.739 1864.57 37.575 L1869.45 18.1871 Q1869.7 17.0804 1869.9 16.7935 Q1870.11 16.5065 1870.72 16.5065 Q1871.17 16.5065 1871.42 16.7115 Q1871.67 16.9164 1871.67 17.1214 L1871.71 17.3263 L1871.46 18.515 L1866.75 37.575 Q1870.93 37.862 1874.17 39.3376 Q1877.4 40.8132 1879.25 43.0266 Q1881.09 45.199 1882 47.6584 Q1882.9 50.1178 1882.9 52.7411 M1864.08 39.4196 Q1859.57 39.8294 1855.76 42.0429 Q1851.95 44.2563 1849.49 47.5354 Q1847.03 50.7736 1845.68 54.6676 Q1844.33 58.5206 1844.33 62.3326 Q1844.33 65.3248 1845.31 67.6202 Q1846.33 69.9156 1848.02 71.2272 Q1849.7 72.4979 1851.54 73.1947 Q1853.43 73.8505 1855.43 73.9325 L1864.08 39.4196 M1877.4 50.9785 Q1877.4 45.6499 1874.33 42.6577 Q1871.26 39.6655 1866.26 39.4196 L1857.61 73.9325 Q1861.25 73.6456 1864.45 72.129 Q1867.69 70.5714 1870.03 68.276 Q1872.36 65.9396 1874.04 63.0704 Q1875.72 60.1601 1876.54 57.0859 Q1877.4 53.9707 1877.4 50.9785 Z" fill="#000000" fill-rule="nonzero" fill-opacity="1" /><path clip-path="url(#clip770)" d="M1911.69 62.0046 Q1911.77 60.9799 1913.37 60.9799 L1964.81 60.9799 Q1967.23 60.9799 1967.27 61.9227 Q1967.27 62.9474 1964.98 62.9064 L1913.95 62.9064 Q1911.69 62.9474 1911.69 62.0046 M1911.69 45.6089 Q1911.69 44.5842 1913.45 44.6252 L1964.73 44.6252 Q1967.23 44.6252 1967.27 45.6089 Q1967.27 46.5517 1965.14 46.5517 L1913.37 46.5517 Q1911.69 46.5517 1911.69 45.6089 Z" fill="#000000" fill-rule="nonzero" fill-opacity="1" /><path clip-path="url(#clip770)" d="M1999.65 47.9043 Q1999.65 35.5666 2002.77 28.8443 Q2007.11 18.8429 2017.36 18.8429 Q2019.53 18.8429 2021.79 19.4578 Q2024.08 20.0316 2026.95 22.286 Q2029.86 24.5404 2031.62 28.2295 Q2034.98 35.3616 2034.98 47.9043 Q2034.98 60.1601 2031.87 66.8414 Q2027.32 76.5968 2017.28 76.5968 Q2013.51 76.5968 2009.65 74.6703 Q2005.84 72.7438 2003.42 68.112 Q1999.65 61.1849 1999.65 47.9043 M2006.62 46.8796 Q2006.62 59.5453 2007.52 64.587 Q2008.55 70.0385 2011.33 72.4159 Q2014.16 74.7523 2017.28 74.7523 Q2020.64 74.7523 2023.43 72.252 Q2026.25 69.7106 2027.11 64.2591 Q2028.06 58.8895 2028.02 46.8796 Q2028.02 35.1977 2027.2 30.5249 Q2026.09 25.0733 2023.14 22.9009 Q2020.23 20.6875 2017.28 20.6875 Q2016.17 20.6875 2014.98 21.0154 Q2013.83 21.3433 2012.15 22.286 Q2010.47 23.2288 2009.16 25.5652 Q2007.89 27.9016 2007.28 31.4266 Q2006.62 35.9765 2006.62 46.8796 Z" fill="#000000" fill-rule="nonzero" fill-opacity="1" /><path clip-path="url(#clip770)" d="M2042.49 73.3997 Q2041.22 72.047 2041.22 70.2845 Q2041.22 68.5219 2042.49 67.2513 Q2043.76 65.9396 2045.69 65.9396 Q2047.53 65.9396 2048.76 67.1693 Q2050.04 68.358 2050.04 70.3255 Q2050.04 72.252 2048.68 73.5226 Q2047.37 74.7523 2045.69 74.7523 Q2043.76 74.7523 2042.49 73.3997 Z" fill="#000000" fill-rule="nonzero" fill-opacity="1" /><path clip-path="url(#clip770)" d="M2055.82 26.8358 L2055.82 24.2125 Q2065.9 24.2125 2071.11 18.8429 Q2072.55 18.8429 2072.79 19.1709 Q2073.04 19.4988 2073.04 21.0154 L2073.04 68.112 Q2073.04 70.6124 2074.27 71.3912 Q2075.5 72.17 2080.87 72.17 L2083.53 72.17 L2083.53 74.7523 Q2080.58 74.5064 2069.92 74.5064 Q2059.26 74.5064 2056.35 74.7523 L2056.35 72.17 L2059.02 72.17 Q2064.31 72.17 2065.58 71.4322 Q2066.85 70.6534 2066.85 68.112 L2066.85 24.6224 Q2062.46 26.8358 2055.82 26.8358 Z" fill="#000000" fill-rule="nonzero" fill-opacity="1" /><path clip-path="url(#clip770)" d="M2097.39 11.8013 L2103.87 11.8013 Q2109.95 21.3614 2112.95 30.5164 Q2115.99 39.6715 2115.99 48.705 Q2115.99 57.779 2112.95 66.9746 Q2109.95 76.1701 2103.87 85.6898 L2097.39 85.6898 Q2102.78 76.4132 2105.41 67.2581 Q2108.09 58.0626 2108.09 48.705 Q2108.09 39.3474 2105.41 30.2329 Q2102.78 21.1183 2097.39 11.8013 Z" fill="#000000" fill-rule="nonzero" fill-opacity="1" /><polyline clip-path="url(#clip772)" style="stroke:#009af9; stroke-linecap:round; stroke-linejoin:round; stroke-width:4; stroke-opacity:1; fill:none" points="280.417,1374.46 1020.54,1200.76 2292.4,840.487 "/>
<polyline clip-path="url(#clip772)" style="stroke:#e26f46; stroke-linecap:round; stroke-linejoin:round; stroke-width:4; stroke-opacity:1; fill:none" points="280.417,1205.99 1020.54,813.756 2292.4,159.909 "/>
<path clip-path="url(#clip770)" d="M291.147 321.906 L657.981 321.906 L657.981 166.386 L291.147 166.386  Z" fill="#ffffff" fill-rule="evenodd" fill-opacity="1"/>
<polyline clip-path="url(#clip770)" style="stroke:#000000; stroke-linecap:round; stroke-linejoin:round; stroke-width:4; stroke-opacity:1; fill:none" points="291.147,321.906 657.981,321.906 657.981,166.386 291.147,166.386 291.147,321.906 "/>
<polyline clip-path="url(#clip770)" style="stroke:#009af9; stroke-linecap:round; stroke-linejoin:round; stroke-width:4; stroke-opacity:1; fill:none" points="314.844,218.226 457.024,218.226 "/>
<path clip-path="url(#clip770)" d="M496.739 204.118 Q491.646 204.118 488.637 207.914 Q485.651 211.71 485.651 218.261 Q485.651 224.789 488.637 228.585 Q491.646 232.381 496.739 232.381 Q501.831 232.381 504.794 228.585 Q507.78 224.789 507.78 218.261 Q507.78 211.71 504.794 207.914 Q501.831 204.118 496.739 204.118 M496.739 200.321 Q504.007 200.321 508.359 205.206 Q512.711 210.067 512.711 218.261 Q512.711 226.432 508.359 231.316 Q504.007 236.178 496.739 236.178 Q489.447 236.178 485.072 231.316 Q480.72 226.455 480.72 218.261 Q480.72 210.067 485.072 205.206 Q489.447 200.321 496.739 200.321 Z" fill="#000000" fill-rule="nonzero" fill-opacity="1" /><path clip-path="url(#clip770)" d="M538.498 210.576 L538.498 214.557 Q536.692 213.562 534.864 213.076 Q533.058 212.567 531.206 212.567 Q527.063 212.567 524.771 215.205 Q522.479 217.821 522.479 222.567 Q522.479 227.312 524.771 229.951 Q527.063 232.566 531.206 232.566 Q533.058 232.566 534.864 232.08 Q536.692 231.571 538.498 230.576 L538.498 234.511 Q536.715 235.344 534.794 235.761 Q532.896 236.178 530.743 236.178 Q524.887 236.178 521.438 232.497 Q517.989 228.816 517.989 222.567 Q517.989 216.224 521.461 212.59 Q524.956 208.955 531.021 208.955 Q532.989 208.955 534.864 209.372 Q536.739 209.766 538.498 210.576 Z" fill="#000000" fill-rule="nonzero" fill-opacity="1" /><path clip-path="url(#clip770)" d="M550.118 202.219 L550.118 209.58 L558.891 209.58 L558.891 212.891 L550.118 212.891 L550.118 226.965 Q550.118 230.136 550.975 231.039 Q551.854 231.941 554.516 231.941 L558.891 231.941 L558.891 235.506 L554.516 235.506 Q549.586 235.506 547.711 233.678 Q545.836 231.826 545.836 226.965 L545.836 212.891 L542.711 212.891 L542.711 209.58 L545.836 209.58 L545.836 202.219 L550.118 202.219 Z" fill="#000000" fill-rule="nonzero" fill-opacity="1" /><path clip-path="url(#clip770)" d="M579.516 213.562 Q578.799 213.145 577.942 212.96 Q577.109 212.752 576.09 212.752 Q572.479 212.752 570.535 215.113 Q568.613 217.451 568.613 221.849 L568.613 235.506 L564.331 235.506 L564.331 209.58 L568.613 209.58 L568.613 213.608 Q569.956 211.247 572.109 210.113 Q574.262 208.955 577.34 208.955 Q577.78 208.955 578.312 209.025 Q578.845 209.071 579.493 209.187 L579.516 213.562 Z" fill="#000000" fill-rule="nonzero" fill-opacity="1" /><path clip-path="url(#clip770)" d="M605.118 221.479 L605.118 223.562 L585.535 223.562 Q585.812 227.96 588.174 230.275 Q590.558 232.566 594.794 232.566 Q597.248 232.566 599.539 231.965 Q601.854 231.363 604.123 230.159 L604.123 234.187 Q601.831 235.159 599.423 235.668 Q597.016 236.178 594.539 236.178 Q588.336 236.178 584.701 232.566 Q581.09 228.955 581.09 222.798 Q581.09 216.432 584.516 212.705 Q587.965 208.955 593.799 208.955 Q599.03 208.955 602.062 212.335 Q605.118 215.692 605.118 221.479 M600.859 220.229 Q600.812 216.733 598.891 214.65 Q596.993 212.567 593.845 212.567 Q590.28 212.567 588.127 214.58 Q585.998 216.594 585.674 220.252 L600.859 220.229 Z" fill="#000000" fill-rule="nonzero" fill-opacity="1" /><path clip-path="url(#clip770)" d="M634.284 221.479 L634.284 223.562 L614.701 223.562 Q614.979 227.96 617.34 230.275 Q619.724 232.566 623.96 232.566 Q626.414 232.566 628.706 231.965 Q631.021 231.363 633.289 230.159 L633.289 234.187 Q630.997 235.159 628.59 235.668 Q626.183 236.178 623.706 236.178 Q617.502 236.178 613.868 232.566 Q610.257 228.955 610.257 222.798 Q610.257 216.432 613.683 212.705 Q617.132 208.955 622.965 208.955 Q628.196 208.955 631.229 212.335 Q634.284 215.692 634.284 221.479 M630.025 220.229 Q629.979 216.733 628.058 214.65 Q626.159 212.567 623.011 212.567 Q619.447 212.567 617.294 214.58 Q615.164 216.594 614.84 220.252 L630.025 220.229 Z" fill="#000000" fill-rule="nonzero" fill-opacity="1" /><polyline clip-path="url(#clip770)" style="stroke:#e26f46; stroke-linecap:round; stroke-linejoin:round; stroke-width:4; stroke-opacity:1; fill:none" points="314.844,270.066 457.024,270.066 "/>
<path clip-path="url(#clip770)" d="M485.396 256.629 L485.396 283.504 L491.044 283.504 Q498.197 283.504 501.507 280.263 Q504.841 277.022 504.841 270.032 Q504.841 263.087 501.507 259.87 Q498.197 256.629 491.044 256.629 L485.396 256.629 M480.72 252.786 L490.327 252.786 Q500.373 252.786 505.072 256.976 Q509.771 261.143 509.771 270.032 Q509.771 278.967 505.049 283.156 Q500.327 287.346 490.327 287.346 L480.72 287.346 L480.72 252.786 Z" fill="#000000" fill-rule="nonzero" fill-opacity="1" /><path clip-path="url(#clip770)" d="M517.04 261.42 L521.299 261.42 L521.299 287.346 L517.04 287.346 L517.04 261.42 M517.04 251.328 L521.299 251.328 L521.299 256.721 L517.04 256.721 L517.04 251.328 Z" fill="#000000" fill-rule="nonzero" fill-opacity="1" /><path clip-path="url(#clip770)" d="M545.234 265.402 Q544.516 264.985 543.66 264.8 Q542.827 264.592 541.808 264.592 Q538.197 264.592 536.253 266.953 Q534.331 269.291 534.331 273.689 L534.331 287.346 L530.049 287.346 L530.049 261.42 L534.331 261.42 L534.331 265.448 Q535.674 263.087 537.827 261.953 Q539.979 260.795 543.058 260.795 Q543.498 260.795 544.03 260.865 Q544.563 260.911 545.211 261.027 L545.234 265.402 Z" fill="#000000" fill-rule="nonzero" fill-opacity="1" /><path clip-path="url(#clip770)" d="M570.836 273.319 L570.836 275.402 L551.252 275.402 Q551.53 279.8 553.891 282.115 Q556.276 284.406 560.512 284.406 Q562.965 284.406 565.257 283.805 Q567.572 283.203 569.84 281.999 L569.84 286.027 Q567.549 286.999 565.141 287.508 Q562.734 288.018 560.257 288.018 Q554.053 288.018 550.419 284.406 Q546.808 280.795 546.808 274.638 Q546.808 268.272 550.234 264.545 Q553.683 260.795 559.516 260.795 Q564.748 260.795 567.78 264.175 Q570.836 267.532 570.836 273.319 M566.576 272.069 Q566.53 268.573 564.609 266.49 Q562.711 264.407 559.563 264.407 Q555.998 264.407 553.845 266.42 Q551.715 268.434 551.391 272.092 L566.576 272.069 Z" fill="#000000" fill-rule="nonzero" fill-opacity="1" /><path clip-path="url(#clip770)" d="M596.484 262.416 L596.484 266.397 Q594.678 265.402 592.849 264.916 Q591.044 264.407 589.192 264.407 Q585.049 264.407 582.757 267.045 Q580.465 269.661 580.465 274.407 Q580.465 279.152 582.757 281.791 Q585.049 284.406 589.192 284.406 Q591.044 284.406 592.849 283.92 Q594.678 283.411 596.484 282.416 L596.484 286.351 Q594.701 287.184 592.78 287.601 Q590.882 288.018 588.729 288.018 Q582.873 288.018 579.424 284.337 Q575.975 280.656 575.975 274.407 Q575.975 268.064 579.447 264.43 Q582.942 260.795 589.007 260.795 Q590.974 260.795 592.849 261.212 Q594.724 261.606 596.484 262.416 Z" fill="#000000" fill-rule="nonzero" fill-opacity="1" /><path clip-path="url(#clip770)" d="M608.104 254.059 L608.104 261.42 L616.877 261.42 L616.877 264.731 L608.104 264.731 L608.104 278.805 Q608.104 281.976 608.96 282.879 Q609.84 283.781 612.502 283.781 L616.877 283.781 L616.877 287.346 L612.502 287.346 Q607.572 287.346 605.697 285.518 Q603.822 283.666 603.822 278.805 L603.822 264.731 L600.697 264.731 L600.697 261.42 L603.822 261.42 L603.822 254.059 L608.104 254.059 Z" fill="#000000" fill-rule="nonzero" fill-opacity="1" /></svg>
