<?xml version="1.0" encoding="utf-8"?>
<svg xmlns="http://www.w3.org/2000/svg" xmlns:xlink="http://www.w3.org/1999/xlink" width="600" height="400" viewBox="0 0 2400 1600">
<defs>
  <clipPath id="clip190">
    <rect x="0" y="0" width="2400" height="1600"/>
  </clipPath>
</defs>
<path clip-path="url(#clip190)" d="M0 1600 L2400 1600 L2400 0 L0 0  Z" fill="#ffffff" fill-rule="evenodd" fill-opacity="1"/>
<defs>
  <clipPath id="clip191">
    <rect x="480" y="0" width="1681" height="1600"/>
  </clipPath>
</defs>
<path clip-path="url(#clip190)" d="M221.637 1410.9 L2352.76 1410.9 L2352.76 123.472 L221.637 123.472  Z" fill="#ffffff" fill-rule="evenodd" fill-opacity="1"/>
<defs>
  <clipPath id="clip192">
    <rect x="221" y="123" width="2132" height="1288"/>
  </clipPath>
</defs>
<polyline clip-path="url(#clip192)" style="stroke:#000000; stroke-linecap:round; stroke-linejoin:round; stroke-width:2; stroke-opacity:0.05; fill:none" points="433.256,1410.9 433.256,123.472 "/>
<polyline clip-path="url(#clip192)" style="stroke:#000000; stroke-linecap:round; stroke-linejoin:round; stroke-width:2; stroke-opacity:0.05; fill:none" points="521.764,1410.9 521.764,123.472 "/>
<polyline clip-path="url(#clip192)" style="stroke:#000000; stroke-linecap:round; stroke-linejoin:round; stroke-width:2; stroke-opacity:0.05; fill:none" points="584.561,1410.9 584.561,123.472 "/>
<polyline clip-path="url(#clip192)" style="stroke:#000000; stroke-linecap:round; stroke-linejoin:round; stroke-width:2; stroke-opacity:0.05; fill:none" points="633.27,1410.9 633.27,123.472 "/>
<polyline clip-path="url(#clip192)" style="stroke:#000000; stroke-linecap:round; stroke-linejoin:round; stroke-width:2; stroke-opacity:0.05; fill:none" points="673.068,1410.9 673.068,123.472 "/>
<polyline clip-path="url(#clip192)" style="stroke:#000000; stroke-linecap:round; stroke-linejoin:round; stroke-width:2; stroke-opacity:0.05; fill:none" points="706.717,1410.9 706.717,123.472 "/>
<polyline clip-path="url(#clip192)" style="stroke:#000000; stroke-linecap:round; stroke-linejoin:round; stroke-width:2; stroke-opacity:0.05; fill:none" points="735.865,1410.9 735.865,123.472 "/>
<polyline clip-path="url(#clip192)" style="stroke:#000000; stroke-linecap:round; stroke-linejoin:round; stroke-width:2; stroke-opacity:0.05; fill:none" points="761.575,1410.9 761.575,123.472 "/>
<polyline clip-path="url(#clip192)" style="stroke:#000000; stroke-linecap:round; stroke-linejoin:round; stroke-width:2; stroke-opacity:0.05; fill:none" points="784.574,1410.9 784.574,123.472 "/>
<polyline clip-path="url(#clip192)" style="stroke:#000000; stroke-linecap:round; stroke-linejoin:round; stroke-width:2; stroke-opacity:0.05; fill:none" points="784.574,1410.9 784.574,123.472 "/>
<polyline clip-path="url(#clip192)" style="stroke:#000000; stroke-linecap:round; stroke-linejoin:round; stroke-width:2; stroke-opacity:0.05; fill:none" points="935.879,1410.9 935.879,123.472 "/>
<polyline clip-path="url(#clip192)" style="stroke:#000000; stroke-linecap:round; stroke-linejoin:round; stroke-width:2; stroke-opacity:0.05; fill:none" points="1024.39,1410.9 1024.39,123.472 "/>
<polyline clip-path="url(#clip192)" style="stroke:#000000; stroke-linecap:round; stroke-linejoin:round; stroke-width:2; stroke-opacity:0.05; fill:none" points="1087.18,1410.9 1087.18,123.472 "/>
<polyline clip-path="url(#clip192)" style="stroke:#000000; stroke-linecap:round; stroke-linejoin:round; stroke-width:2; stroke-opacity:0.05; fill:none" points="1135.89,1410.9 1135.89,123.472 "/>
<polyline clip-path="url(#clip192)" style="stroke:#000000; stroke-linecap:round; stroke-linejoin:round; stroke-width:2; stroke-opacity:0.05; fill:none" points="1175.69,1410.9 1175.69,123.472 "/>
<polyline clip-path="url(#clip192)" style="stroke:#000000; stroke-linecap:round; stroke-linejoin:round; stroke-width:2; stroke-opacity:0.05; fill:none" points="1209.34,1410.9 1209.34,123.472 "/>
<polyline clip-path="url(#clip192)" style="stroke:#000000; stroke-linecap:round; stroke-linejoin:round; stroke-width:2; stroke-opacity:0.05; fill:none" points="1238.49,1410.9 1238.49,123.472 "/>
<polyline clip-path="url(#clip192)" style="stroke:#000000; stroke-linecap:round; stroke-linejoin:round; stroke-width:2; stroke-opacity:0.05; fill:none" points="1264.2,1410.9 1264.2,123.472 "/>
<polyline clip-path="url(#clip192)" style="stroke:#000000; stroke-linecap:round; stroke-linejoin:round; stroke-width:2; stroke-opacity:0.05; fill:none" points="935.879,1410.9 935.879,123.472 "/>
<polyline clip-path="url(#clip192)" style="stroke:#000000; stroke-linecap:round; stroke-linejoin:round; stroke-width:2; stroke-opacity:0.05; fill:none" points="1024.39,1410.9 1024.39,123.472 "/>
<polyline clip-path="url(#clip192)" style="stroke:#000000; stroke-linecap:round; stroke-linejoin:round; stroke-width:2; stroke-opacity:0.05; fill:none" points="1087.18,1410.9 1087.18,123.472 "/>
<polyline clip-path="url(#clip192)" style="stroke:#000000; stroke-linecap:round; stroke-linejoin:round; stroke-width:2; stroke-opacity:0.05; fill:none" points="1135.89,1410.9 1135.89,123.472 "/>
<polyline clip-path="url(#clip192)" style="stroke:#000000; stroke-linecap:round; stroke-linejoin:round; stroke-width:2; stroke-opacity:0.05; fill:none" points="1175.69,1410.9 1175.69,123.472 "/>
<polyline clip-path="url(#clip192)" style="stroke:#000000; stroke-linecap:round; stroke-linejoin:round; stroke-width:2; stroke-opacity:0.05; fill:none" points="1209.34,1410.9 1209.34,123.472 "/>
<polyline clip-path="url(#clip192)" style="stroke:#000000; stroke-linecap:round; stroke-linejoin:round; stroke-width:2; stroke-opacity:0.05; fill:none" points="1238.49,1410.9 1238.49,123.472 "/>
<polyline clip-path="url(#clip192)" style="stroke:#000000; stroke-linecap:round; stroke-linejoin:round; stroke-width:2; stroke-opacity:0.05; fill:none" points="1264.2,1410.9 1264.2,123.472 "/>
<polyline clip-path="url(#clip192)" style="stroke:#000000; stroke-linecap:round; stroke-linejoin:round; stroke-width:2; stroke-opacity:0.05; fill:none" points="1287.2,1410.9 1287.2,123.472 "/>
<polyline clip-path="url(#clip192)" style="stroke:#000000; stroke-linecap:round; stroke-linejoin:round; stroke-width:2; stroke-opacity:0.05; fill:none" points="1287.2,1410.9 1287.2,123.472 "/>
<polyline clip-path="url(#clip192)" style="stroke:#000000; stroke-linecap:round; stroke-linejoin:round; stroke-width:2; stroke-opacity:0.05; fill:none" points="1438.5,1410.9 1438.5,123.472 "/>
<polyline clip-path="url(#clip192)" style="stroke:#000000; stroke-linecap:round; stroke-linejoin:round; stroke-width:2; stroke-opacity:0.05; fill:none" points="1527.01,1410.9 1527.01,123.472 "/>
<polyline clip-path="url(#clip192)" style="stroke:#000000; stroke-linecap:round; stroke-linejoin:round; stroke-width:2; stroke-opacity:0.05; fill:none" points="1589.81,1410.9 1589.81,123.472 "/>
<polyline clip-path="url(#clip192)" style="stroke:#000000; stroke-linecap:round; stroke-linejoin:round; stroke-width:2; stroke-opacity:0.05; fill:none" points="1638.51,1410.9 1638.51,123.472 "/>
<polyline clip-path="url(#clip192)" style="stroke:#000000; stroke-linecap:round; stroke-linejoin:round; stroke-width:2; stroke-opacity:0.05; fill:none" points="1678.31,1410.9 1678.31,123.472 "/>
<polyline clip-path="url(#clip192)" style="stroke:#000000; stroke-linecap:round; stroke-linejoin:round; stroke-width:2; stroke-opacity:0.05; fill:none" points="1711.96,1410.9 1711.96,123.472 "/>
<polyline clip-path="url(#clip192)" style="stroke:#000000; stroke-linecap:round; stroke-linejoin:round; stroke-width:2; stroke-opacity:0.05; fill:none" points="1741.11,1410.9 1741.11,123.472 "/>
<polyline clip-path="url(#clip192)" style="stroke:#000000; stroke-linecap:round; stroke-linejoin:round; stroke-width:2; stroke-opacity:0.05; fill:none" points="1766.82,1410.9 1766.82,123.472 "/>
<polyline clip-path="url(#clip192)" style="stroke:#000000; stroke-linecap:round; stroke-linejoin:round; stroke-width:2; stroke-opacity:0.05; fill:none" points="1941.12,1410.9 1941.12,123.472 "/>
<polyline clip-path="url(#clip192)" style="stroke:#000000; stroke-linecap:round; stroke-linejoin:round; stroke-width:2; stroke-opacity:0.05; fill:none" points="2029.63,1410.9 2029.63,123.472 "/>
<polyline clip-path="url(#clip192)" style="stroke:#000000; stroke-linecap:round; stroke-linejoin:round; stroke-width:2; stroke-opacity:0.05; fill:none" points="2092.43,1410.9 2092.43,123.472 "/>
<polyline clip-path="url(#clip192)" style="stroke:#000000; stroke-linecap:round; stroke-linejoin:round; stroke-width:2; stroke-opacity:0.05; fill:none" points="2141.14,1410.9 2141.14,123.472 "/>
<polyline clip-path="url(#clip192)" style="stroke:#000000; stroke-linecap:round; stroke-linejoin:round; stroke-width:2; stroke-opacity:0.05; fill:none" points="2180.94,1410.9 2180.94,123.472 "/>
<polyline clip-path="url(#clip192)" style="stroke:#000000; stroke-linecap:round; stroke-linejoin:round; stroke-width:2; stroke-opacity:0.05; fill:none" points="2214.58,1410.9 2214.58,123.472 "/>
<polyline clip-path="url(#clip192)" style="stroke:#000000; stroke-linecap:round; stroke-linejoin:round; stroke-width:2; stroke-opacity:0.05; fill:none" points="2243.73,1410.9 2243.73,123.472 "/>
<polyline clip-path="url(#clip192)" style="stroke:#000000; stroke-linecap:round; stroke-linejoin:round; stroke-width:2; stroke-opacity:0.05; fill:none" points="2269.44,1410.9 2269.44,123.472 "/>
<polyline clip-path="url(#clip192)" style="stroke:#000000; stroke-linecap:round; stroke-linejoin:round; stroke-width:2; stroke-opacity:0.05; fill:none" points="2292.44,1410.9 2292.44,123.472 "/>
<polyline clip-path="url(#clip192)" style="stroke:#000000; stroke-linecap:round; stroke-linejoin:round; stroke-width:2; stroke-opacity:0.05; fill:none" points="2292.44,1410.9 2292.44,123.472 "/>
<polyline clip-path="url(#clip192)" style="stroke:#000000; stroke-linecap:round; stroke-linejoin:round; stroke-width:2; stroke-opacity:0.05; fill:none" points="221.637,1394.65 2352.76,1394.65 "/>
<polyline clip-path="url(#clip192)" style="stroke:#000000; stroke-linecap:round; stroke-linejoin:round; stroke-width:2; stroke-opacity:0.05; fill:none" points="221.637,1373.04 2352.76,1373.04 "/>
<polyline clip-path="url(#clip192)" style="stroke:#000000; stroke-linecap:round; stroke-linejoin:round; stroke-width:2; stroke-opacity:0.05; fill:none" points="221.637,1226.55 2352.76,1226.55 "/>
<polyline clip-path="url(#clip192)" style="stroke:#000000; stroke-linecap:round; stroke-linejoin:round; stroke-width:2; stroke-opacity:0.05; fill:none" points="221.637,1152.16 2352.76,1152.16 "/>
<polyline clip-path="url(#clip192)" style="stroke:#000000; stroke-linecap:round; stroke-linejoin:round; stroke-width:2; stroke-opacity:0.05; fill:none" points="221.637,1099.38 2352.76,1099.38 "/>
<polyline clip-path="url(#clip192)" style="stroke:#000000; stroke-linecap:round; stroke-linejoin:round; stroke-width:2; stroke-opacity:0.05; fill:none" points="221.637,1058.44 2352.76,1058.44 "/>
<polyline clip-path="url(#clip192)" style="stroke:#000000; stroke-linecap:round; stroke-linejoin:round; stroke-width:2; stroke-opacity:0.05; fill:none" points="221.637,1025 2352.76,1025 "/>
<polyline clip-path="url(#clip192)" style="stroke:#000000; stroke-linecap:round; stroke-linejoin:round; stroke-width:2; stroke-opacity:0.05; fill:none" points="221.637,996.716 2352.76,996.716 "/>
<polyline clip-path="url(#clip192)" style="stroke:#000000; stroke-linecap:round; stroke-linejoin:round; stroke-width:2; stroke-opacity:0.05; fill:none" points="221.637,972.218 2352.76,972.218 "/>
<polyline clip-path="url(#clip192)" style="stroke:#000000; stroke-linecap:round; stroke-linejoin:round; stroke-width:2; stroke-opacity:0.05; fill:none" points="221.637,950.61 2352.76,950.61 "/>
<polyline clip-path="url(#clip192)" style="stroke:#000000; stroke-linecap:round; stroke-linejoin:round; stroke-width:2; stroke-opacity:0.05; fill:none" points="221.637,804.117 2352.76,804.117 "/>
<polyline clip-path="url(#clip192)" style="stroke:#000000; stroke-linecap:round; stroke-linejoin:round; stroke-width:2; stroke-opacity:0.05; fill:none" points="221.637,729.73 2352.76,729.73 "/>
<polyline clip-path="url(#clip192)" style="stroke:#000000; stroke-linecap:round; stroke-linejoin:round; stroke-width:2; stroke-opacity:0.05; fill:none" points="221.637,676.953 2352.76,676.953 "/>
<polyline clip-path="url(#clip192)" style="stroke:#000000; stroke-linecap:round; stroke-linejoin:round; stroke-width:2; stroke-opacity:0.05; fill:none" points="221.637,636.015 2352.76,636.015 "/>
<polyline clip-path="url(#clip192)" style="stroke:#000000; stroke-linecap:round; stroke-linejoin:round; stroke-width:2; stroke-opacity:0.05; fill:none" points="221.637,602.567 2352.76,602.567 "/>
<polyline clip-path="url(#clip192)" style="stroke:#000000; stroke-linecap:round; stroke-linejoin:round; stroke-width:2; stroke-opacity:0.05; fill:none" points="221.637,574.286 2352.76,574.286 "/>
<polyline clip-path="url(#clip192)" style="stroke:#000000; stroke-linecap:round; stroke-linejoin:round; stroke-width:2; stroke-opacity:0.05; fill:none" points="221.637,549.789 2352.76,549.789 "/>
<polyline clip-path="url(#clip192)" style="stroke:#000000; stroke-linecap:round; stroke-linejoin:round; stroke-width:2; stroke-opacity:0.05; fill:none" points="221.637,528.18 2352.76,528.18 "/>
<polyline clip-path="url(#clip192)" style="stroke:#000000; stroke-linecap:round; stroke-linejoin:round; stroke-width:2; stroke-opacity:0.05; fill:none" points="221.637,381.687 2352.76,381.687 "/>
<polyline clip-path="url(#clip192)" style="stroke:#000000; stroke-linecap:round; stroke-linejoin:round; stroke-width:2; stroke-opacity:0.05; fill:none" points="221.637,307.301 2352.76,307.301 "/>
<polyline clip-path="url(#clip192)" style="stroke:#000000; stroke-linecap:round; stroke-linejoin:round; stroke-width:2; stroke-opacity:0.05; fill:none" points="221.637,254.523 2352.76,254.523 "/>
<polyline clip-path="url(#clip192)" style="stroke:#000000; stroke-linecap:round; stroke-linejoin:round; stroke-width:2; stroke-opacity:0.05; fill:none" points="221.637,213.586 2352.76,213.586 "/>
<polyline clip-path="url(#clip192)" style="stroke:#000000; stroke-linecap:round; stroke-linejoin:round; stroke-width:2; stroke-opacity:0.05; fill:none" points="221.637,180.137 2352.76,180.137 "/>
<polyline clip-path="url(#clip192)" style="stroke:#000000; stroke-linecap:round; stroke-linejoin:round; stroke-width:2; stroke-opacity:0.05; fill:none" points="221.637,151.857 2352.76,151.857 "/>
<polyline clip-path="url(#clip192)" style="stroke:#000000; stroke-linecap:round; stroke-linejoin:round; stroke-width:2; stroke-opacity:0.05; fill:none" points="221.637,127.359 2352.76,127.359 "/>
<polyline clip-path="url(#clip192)" style="stroke:#000000; stroke-linecap:round; stroke-linejoin:round; stroke-width:2; stroke-opacity:0.1; fill:none" points="784.574,1410.9 784.574,123.472 "/>
<polyline clip-path="url(#clip192)" style="stroke:#000000; stroke-linecap:round; stroke-linejoin:round; stroke-width:2; stroke-opacity:0.1; fill:none" points="1789.82,1410.9 1789.82,123.472 "/>
<polyline clip-path="url(#clip192)" style="stroke:#000000; stroke-linecap:round; stroke-linejoin:round; stroke-width:2; stroke-opacity:0.1; fill:none" points="221.637,1353.71 2352.76,1353.71 "/>
<polyline clip-path="url(#clip192)" style="stroke:#000000; stroke-linecap:round; stroke-linejoin:round; stroke-width:2; stroke-opacity:0.1; fill:none" points="221.637,931.28 2352.76,931.28 "/>
<polyline clip-path="url(#clip192)" style="stroke:#000000; stroke-linecap:round; stroke-linejoin:round; stroke-width:2; stroke-opacity:0.1; fill:none" points="221.637,508.851 2352.76,508.851 "/>
<polyline clip-path="url(#clip190)" style="stroke:#000000; stroke-linecap:round; stroke-linejoin:round; stroke-width:4; stroke-opacity:1; fill:none" points="221.637,1410.9 2352.76,1410.9 "/>
<polyline clip-path="url(#clip190)" style="stroke:#000000; stroke-linecap:round; stroke-linejoin:round; stroke-width:4; stroke-opacity:1; fill:none" points="784.574,1410.9 784.574,1392 "/>
<polyline clip-path="url(#clip190)" style="stroke:#000000; stroke-linecap:round; stroke-linejoin:round; stroke-width:4; stroke-opacity:1; fill:none" points="1789.82,1410.9 1789.82,1392 "/>
<polyline clip-path="url(#clip190)" style="stroke:#000000; stroke-linecap:round; stroke-linejoin:round; stroke-width:4; stroke-opacity:1; fill:none" points="433.256,1410.9 433.256,1401.45 "/>
<polyline clip-path="url(#clip190)" style="stroke:#000000; stroke-linecap:round; stroke-linejoin:round; stroke-width:4; stroke-opacity:1; fill:none" points="521.764,1410.9 521.764,1401.45 "/>
<polyline clip-path="url(#clip190)" style="stroke:#000000; stroke-linecap:round; stroke-linejoin:round; stroke-width:4; stroke-opacity:1; fill:none" points="584.561,1410.9 584.561,1401.45 "/>
<polyline clip-path="url(#clip190)" style="stroke:#000000; stroke-linecap:round; stroke-linejoin:round; stroke-width:4; stroke-opacity:1; fill:none" points="633.27,1410.9 633.27,1401.45 "/>
<polyline clip-path="url(#clip190)" style="stroke:#000000; stroke-linecap:round; stroke-linejoin:round; stroke-width:4; stroke-opacity:1; fill:none" points="673.068,1410.9 673.068,1401.45 "/>
<polyline clip-path="url(#clip190)" style="stroke:#000000; stroke-linecap:round; stroke-linejoin:round; stroke-width:4; stroke-opacity:1; fill:none" points="706.717,1410.9 706.717,1401.45 "/>
<polyline clip-path="url(#clip190)" style="stroke:#000000; stroke-linecap:round; stroke-linejoin:round; stroke-width:4; stroke-opacity:1; fill:none" points="735.865,1410.9 735.865,1401.45 "/>
<polyline clip-path="url(#clip190)" style="stroke:#000000; stroke-linecap:round; stroke-linejoin:round; stroke-width:4; stroke-opacity:1; fill:none" points="761.575,1410.9 761.575,1401.45 "/>
<polyline clip-path="url(#clip190)" style="stroke:#000000; stroke-linecap:round; stroke-linejoin:round; stroke-width:4; stroke-opacity:1; fill:none" points="784.574,1410.9 784.574,1401.45 "/>
<polyline clip-path="url(#clip190)" style="stroke:#000000; stroke-linecap:round; stroke-linejoin:round; stroke-width:4; stroke-opacity:1; fill:none" points="784.574,1410.9 784.574,1401.45 "/>
<polyline clip-path="url(#clip190)" style="stroke:#000000; stroke-linecap:round; stroke-linejoin:round; stroke-width:4; stroke-opacity:1; fill:none" points="935.879,1410.9 935.879,1401.45 "/>
<polyline clip-path="url(#clip190)" style="stroke:#000000; stroke-linecap:round; stroke-linejoin:round; stroke-width:4; stroke-opacity:1; fill:none" points="1024.39,1410.9 1024.39,1401.45 "/>
<polyline clip-path="url(#clip190)" style="stroke:#000000; stroke-linecap:round; stroke-linejoin:round; stroke-width:4; stroke-opacity:1; fill:none" points="1087.18,1410.9 1087.18,1401.45 "/>
<polyline clip-path="url(#clip190)" style="stroke:#000000; stroke-linecap:round; stroke-linejoin:round; stroke-width:4; stroke-opacity:1; fill:none" points="1135.89,1410.9 1135.89,1401.45 "/>
<polyline clip-path="url(#clip190)" style="stroke:#000000; stroke-linecap:round; stroke-linejoin:round; stroke-width:4; stroke-opacity:1; fill:none" points="1175.69,1410.9 1175.69,1401.45 "/>
<polyline clip-path="url(#clip190)" style="stroke:#000000; stroke-linecap:round; stroke-linejoin:round; stroke-width:4; stroke-opacity:1; fill:none" points="1209.34,1410.9 1209.34,1401.45 "/>
<polyline clip-path="url(#clip190)" style="stroke:#000000; stroke-linecap:round; stroke-linejoin:round; stroke-width:4; stroke-opacity:1; fill:none" points="1238.49,1410.9 1238.49,1401.45 "/>
<polyline clip-path="url(#clip190)" style="stroke:#000000; stroke-linecap:round; stroke-linejoin:round; stroke-width:4; stroke-opacity:1; fill:none" points="1264.2,1410.9 1264.2,1401.45 "/>
<polyline clip-path="url(#clip190)" style="stroke:#000000; stroke-linecap:round; stroke-linejoin:round; stroke-width:4; stroke-opacity:1; fill:none" points="935.879,1410.9 935.879,1401.45 "/>
<polyline clip-path="url(#clip190)" style="stroke:#000000; stroke-linecap:round; stroke-linejoin:round; stroke-width:4; stroke-opacity:1; fill:none" points="1024.39,1410.9 1024.39,1401.45 "/>
<polyline clip-path="url(#clip190)" style="stroke:#000000; stroke-linecap:round; stroke-linejoin:round; stroke-width:4; stroke-opacity:1; fill:none" points="1087.18,1410.9 1087.18,1401.45 "/>
<polyline clip-path="url(#clip190)" style="stroke:#000000; stroke-linecap:round; stroke-linejoin:round; stroke-width:4; stroke-opacity:1; fill:none" points="1135.89,1410.9 1135.89,1401.45 "/>
<polyline clip-path="url(#clip190)" style="stroke:#000000; stroke-linecap:round; stroke-linejoin:round; stroke-width:4; stroke-opacity:1; fill:none" points="1175.69,1410.9 1175.69,1401.45 "/>
<polyline clip-path="url(#clip190)" style="stroke:#000000; stroke-linecap:round; stroke-linejoin:round; stroke-width:4; stroke-opacity:1; fill:none" points="1209.34,1410.9 1209.34,1401.45 "/>
<polyline clip-path="url(#clip190)" style="stroke:#000000; stroke-linecap:round; stroke-linejoin:round; stroke-width:4; stroke-opacity:1; fill:none" points="1238.49,1410.9 1238.49,1401.45 "/>
<polyline clip-path="url(#clip190)" style="stroke:#000000; stroke-linecap:round; stroke-linejoin:round; stroke-width:4; stroke-opacity:1; fill:none" points="1264.2,1410.9 1264.2,1401.45 "/>
<polyline clip-path="url(#clip190)" style="stroke:#000000; stroke-linecap:round; stroke-linejoin:round; stroke-width:4; stroke-opacity:1; fill:none" points="1287.2,1410.9 1287.2,1401.45 "/>
<polyline clip-path="url(#clip190)" style="stroke:#000000; stroke-linecap:round; stroke-linejoin:round; stroke-width:4; stroke-opacity:1; fill:none" points="1287.2,1410.9 1287.2,1401.45 "/>
<polyline clip-path="url(#clip190)" style="stroke:#000000; stroke-linecap:round; stroke-linejoin:round; stroke-width:4; stroke-opacity:1; fill:none" points="1438.5,1410.9 1438.5,1401.45 "/>
<polyline clip-path="url(#clip190)" style="stroke:#000000; stroke-linecap:round; stroke-linejoin:round; stroke-width:4; stroke-opacity:1; fill:none" points="1527.01,1410.9 1527.01,1401.45 "/>
<polyline clip-path="url(#clip190)" style="stroke:#000000; stroke-linecap:round; stroke-linejoin:round; stroke-width:4; stroke-opacity:1; fill:none" points="1589.81,1410.9 1589.81,1401.45 "/>
<polyline clip-path="url(#clip190)" style="stroke:#000000; stroke-linecap:round; stroke-linejoin:round; stroke-width:4; stroke-opacity:1; fill:none" points="1638.51,1410.9 1638.51,1401.45 "/>
<polyline clip-path="url(#clip190)" style="stroke:#000000; stroke-linecap:round; stroke-linejoin:round; stroke-width:4; stroke-opacity:1; fill:none" points="1678.31,1410.9 1678.31,1401.45 "/>
<polyline clip-path="url(#clip190)" style="stroke:#000000; stroke-linecap:round; stroke-linejoin:round; stroke-width:4; stroke-opacity:1; fill:none" points="1711.96,1410.9 1711.96,1401.45 "/>
<polyline clip-path="url(#clip190)" style="stroke:#000000; stroke-linecap:round; stroke-linejoin:round; stroke-width:4; stroke-opacity:1; fill:none" points="1741.11,1410.9 1741.11,1401.45 "/>
<polyline clip-path="url(#clip190)" style="stroke:#000000; stroke-linecap:round; stroke-linejoin:round; stroke-width:4; stroke-opacity:1; fill:none" points="1766.82,1410.9 1766.82,1401.45 "/>
<polyline clip-path="url(#clip190)" style="stroke:#000000; stroke-linecap:round; stroke-linejoin:round; stroke-width:4; stroke-opacity:1; fill:none" points="1941.12,1410.9 1941.12,1401.45 "/>
<polyline clip-path="url(#clip190)" style="stroke:#000000; stroke-linecap:round; stroke-linejoin:round; stroke-width:4; stroke-opacity:1; fill:none" points="2029.63,1410.9 2029.63,1401.45 "/>
<polyline clip-path="url(#clip190)" style="stroke:#000000; stroke-linecap:round; stroke-linejoin:round; stroke-width:4; stroke-opacity:1; fill:none" points="2092.43,1410.9 2092.43,1401.45 "/>
<polyline clip-path="url(#clip190)" style="stroke:#000000; stroke-linecap:round; stroke-linejoin:round; stroke-width:4; stroke-opacity:1; fill:none" points="2141.14,1410.9 2141.14,1401.45 "/>
<polyline clip-path="url(#clip190)" style="stroke:#000000; stroke-linecap:round; stroke-linejoin:round; stroke-width:4; stroke-opacity:1; fill:none" points="2180.94,1410.9 2180.94,1401.45 "/>
<polyline clip-path="url(#clip190)" style="stroke:#000000; stroke-linecap:round; stroke-linejoin:round; stroke-width:4; stroke-opacity:1; fill:none" points="2214.58,1410.9 2214.58,1401.45 "/>
<polyline clip-path="url(#clip190)" style="stroke:#000000; stroke-linecap:round; stroke-linejoin:round; stroke-width:4; stroke-opacity:1; fill:none" points="2243.73,1410.9 2243.73,1401.45 "/>
<polyline clip-path="url(#clip190)" style="stroke:#000000; stroke-linecap:round; stroke-linejoin:round; stroke-width:4; stroke-opacity:1; fill:none" points="2269.44,1410.9 2269.44,1401.45 "/>
<polyline clip-path="url(#clip190)" style="stroke:#000000; stroke-linecap:round; stroke-linejoin:round; stroke-width:4; stroke-opacity:1; fill:none" points="2292.44,1410.9 2292.44,1401.45 "/>
<polyline clip-path="url(#clip190)" style="stroke:#000000; stroke-linecap:round; stroke-linejoin:round; stroke-width:4; stroke-opacity:1; fill:none" points="2292.44,1410.9 2292.44,1401.45 "/>
<path clip-path="url(#clip190)" d="M749.03 1485.02 L756.669 1485.02 L756.669 1458.66 L748.359 1460.32 L748.359 1456.06 L756.623 1454.4 L761.299 1454.4 L761.299 1485.02 L768.938 1485.02 L768.938 1488.96 L749.03 1488.96 L749.03 1485.02 Z" fill="#000000" fill-rule="nonzero" fill-opacity="1" /><path clip-path="url(#clip190)" d="M788.382 1457.48 Q784.771 1457.48 782.942 1461.04 Q781.137 1464.58 781.137 1471.71 Q781.137 1478.82 782.942 1482.38 Q784.771 1485.92 788.382 1485.92 Q792.016 1485.92 793.822 1482.38 Q795.65 1478.82 795.65 1471.71 Q795.65 1464.58 793.822 1461.04 Q792.016 1457.48 788.382 1457.48 M788.382 1453.77 Q794.192 1453.77 797.248 1458.38 Q800.326 1462.96 800.326 1471.71 Q800.326 1480.44 797.248 1485.04 Q794.192 1489.63 788.382 1489.63 Q782.572 1489.63 779.493 1485.04 Q776.438 1480.44 776.438 1471.71 Q776.438 1462.96 779.493 1458.38 Q782.572 1453.77 788.382 1453.77 Z" fill="#000000" fill-rule="nonzero" fill-opacity="1" /><path clip-path="url(#clip190)" d="M813.003 1436.78 L803.411 1451.77 L813.003 1451.77 L813.003 1436.78 M812.006 1433.47 L816.783 1433.47 L816.783 1451.77 L820.789 1451.77 L820.789 1454.93 L816.783 1454.93 L816.783 1461.55 L813.003 1461.55 L813.003 1454.93 L800.326 1454.93 L800.326 1451.26 L812.006 1433.47 Z" fill="#000000" fill-rule="nonzero" fill-opacity="1" /><path clip-path="url(#clip190)" d="M1754.81 1485.02 L1762.45 1485.02 L1762.45 1458.66 L1754.14 1460.32 L1754.14 1456.06 L1762.4 1454.4 L1767.08 1454.4 L1767.08 1485.02 L1774.72 1485.02 L1774.72 1488.96 L1754.81 1488.96 L1754.81 1485.02 Z" fill="#000000" fill-rule="nonzero" fill-opacity="1" /><path clip-path="url(#clip190)" d="M1794.16 1457.48 Q1790.55 1457.48 1788.72 1461.04 Q1786.92 1464.58 1786.92 1471.71 Q1786.92 1478.82 1788.72 1482.38 Q1790.55 1485.92 1794.16 1485.92 Q1797.8 1485.92 1799.6 1482.38 Q1801.43 1478.82 1801.43 1471.71 Q1801.43 1464.58 1799.6 1461.04 Q1797.8 1457.48 1794.16 1457.48 M1794.16 1453.77 Q1799.97 1453.77 1803.03 1458.38 Q1806.11 1462.96 1806.11 1471.71 Q1806.11 1480.44 1803.03 1485.04 Q1799.97 1489.63 1794.16 1489.63 Q1788.35 1489.63 1785.27 1485.04 Q1782.22 1480.44 1782.22 1471.71 Q1782.22 1462.96 1785.27 1458.38 Q1788.35 1453.77 1794.16 1453.77 Z" fill="#000000" fill-rule="nonzero" fill-opacity="1" /><path clip-path="url(#clip190)" d="M1816.13 1445.99 Q1813.57 1445.99 1812.07 1447.74 Q1810.58 1449.49 1810.58 1452.54 Q1810.58 1455.57 1812.07 1457.33 Q1813.57 1459.08 1816.13 1459.08 Q1818.69 1459.08 1820.18 1457.33 Q1821.68 1455.57 1821.68 1452.54 Q1821.68 1449.49 1820.18 1447.74 Q1818.69 1445.99 1816.13 1445.99 M1823.67 1434.09 L1823.67 1437.55 Q1822.24 1436.87 1820.78 1436.51 Q1819.33 1436.16 1817.9 1436.16 Q1814.14 1436.16 1812.14 1438.69 Q1810.17 1441.23 1809.89 1446.37 Q1811 1444.73 1812.67 1443.87 Q1814.34 1442.98 1816.36 1442.98 Q1820.59 1442.98 1823.03 1445.56 Q1825.5 1448.12 1825.5 1452.54 Q1825.5 1456.86 1822.94 1459.48 Q1820.38 1462.09 1816.13 1462.09 Q1811.26 1462.09 1808.68 1458.37 Q1806.11 1454.62 1806.11 1447.53 Q1806.11 1440.88 1809.27 1436.93 Q1812.43 1432.96 1817.75 1432.96 Q1819.18 1432.96 1820.63 1433.24 Q1822.09 1433.52 1823.67 1434.09 Z" fill="#000000" fill-rule="nonzero" fill-opacity="1" /><path clip-path="url(#clip190)" d="M973.18 1520.47 L979.609 1520.47 L979.609 1567.99 L973.18 1567.99 L973.18 1520.47 Z" fill="#000000" fill-rule="nonzero" fill-opacity="1" /><path clip-path="url(#clip190)" d="M1021.78 1546.47 L1021.78 1567.99 L1015.93 1567.99 L1015.93 1546.66 Q1015.93 1541.6 1013.95 1539.09 Q1011.98 1536.57 1008.03 1536.57 Q1003.29 1536.57 1000.55 1539.59 Q997.815 1542.62 997.815 1547.84 L997.815 1567.99 L991.927 1567.99 L991.927 1532.34 L997.815 1532.34 L997.815 1537.88 Q999.916 1534.66 1002.75 1533.07 Q1005.61 1531.48 1009.34 1531.48 Q1015.48 1531.48 1018.63 1535.3 Q1021.78 1539.09 1021.78 1546.47 Z" fill="#000000" fill-rule="nonzero" fill-opacity="1" /><path clip-path="url(#clip190)" d="M1039.26 1522.22 L1039.26 1532.34 L1051.32 1532.34 L1051.32 1536.89 L1039.26 1536.89 L1039.26 1556.24 Q1039.26 1560.6 1040.43 1561.84 Q1041.64 1563.08 1045.3 1563.08 L1051.32 1563.08 L1051.32 1567.99 L1045.3 1567.99 Q1038.52 1567.99 1035.95 1565.47 Q1033.37 1562.93 1033.37 1556.24 L1033.37 1536.89 L1029.07 1536.89 L1029.07 1532.34 L1033.37 1532.34 L1033.37 1522.22 L1039.26 1522.22 Z" fill="#000000" fill-rule="nonzero" fill-opacity="1" /><path clip-path="url(#clip190)" d="M1089.51 1548.7 L1089.51 1551.56 L1062.59 1551.56 Q1062.97 1557.61 1066.21 1560.79 Q1069.49 1563.94 1075.32 1563.94 Q1078.69 1563.94 1081.84 1563.12 Q1085.03 1562.29 1088.14 1560.63 L1088.14 1566.17 Q1084.99 1567.51 1081.68 1568.21 Q1078.37 1568.91 1074.97 1568.91 Q1066.44 1568.91 1061.44 1563.94 Q1056.48 1558.98 1056.48 1550.51 Q1056.48 1541.76 1061.19 1536.63 Q1065.93 1531.48 1073.95 1531.48 Q1081.14 1531.48 1085.31 1536.13 Q1089.51 1540.74 1089.51 1548.7 M1083.66 1546.98 Q1083.59 1542.17 1080.95 1539.31 Q1078.34 1536.44 1074.01 1536.44 Q1069.11 1536.44 1066.15 1539.21 Q1063.22 1541.98 1062.78 1547.01 L1083.66 1546.98 Z" fill="#000000" fill-rule="nonzero" fill-opacity="1" /><path clip-path="url(#clip190)" d="M1119.78 1537.81 Q1118.8 1537.24 1117.62 1536.98 Q1116.47 1536.7 1115.07 1536.7 Q1110.11 1536.7 1107.43 1539.95 Q1104.79 1543.16 1104.79 1549.21 L1104.79 1567.99 L1098.9 1567.99 L1098.9 1532.34 L1104.79 1532.34 L1104.79 1537.88 Q1106.64 1534.63 1109.6 1533.07 Q1112.56 1531.48 1116.79 1531.48 Q1117.39 1531.48 1118.13 1531.57 Q1118.86 1531.64 1119.75 1531.8 L1119.78 1537.81 Z" fill="#000000" fill-rule="nonzero" fill-opacity="1" /><path clip-path="url(#clip190)" d="M1142.13 1550.07 Q1135.03 1550.07 1132.29 1551.69 Q1129.55 1553.31 1129.55 1557.23 Q1129.55 1560.35 1131.59 1562.19 Q1133.66 1564.01 1137.19 1564.01 Q1142.06 1564.01 1144.99 1560.57 Q1147.95 1557.1 1147.95 1551.37 L1147.95 1550.07 L1142.13 1550.07 M1153.81 1547.65 L1153.81 1567.99 L1147.95 1567.99 L1147.95 1562.58 Q1145.95 1565.82 1142.95 1567.38 Q1139.96 1568.91 1135.63 1568.91 Q1130.16 1568.91 1126.91 1565.85 Q1123.7 1562.77 1123.7 1557.61 Q1123.7 1551.59 1127.71 1548.54 Q1131.75 1545.48 1139.74 1545.48 L1147.95 1545.48 L1147.95 1544.91 Q1147.95 1540.87 1145.28 1538.67 Q1142.64 1536.44 1137.83 1536.44 Q1134.77 1536.44 1131.88 1537.18 Q1128.98 1537.91 1126.31 1539.37 L1126.31 1533.96 Q1129.52 1532.72 1132.55 1532.12 Q1135.57 1531.48 1138.43 1531.48 Q1146.17 1531.48 1149.99 1535.49 Q1153.81 1539.5 1153.81 1547.65 Z" fill="#000000" fill-rule="nonzero" fill-opacity="1" /><path clip-path="url(#clip190)" d="M1191.52 1533.71 L1191.52 1539.18 Q1189.04 1537.81 1186.53 1537.14 Q1184.04 1536.44 1181.5 1536.44 Q1175.8 1536.44 1172.65 1540.07 Q1169.5 1543.67 1169.5 1550.19 Q1169.5 1556.72 1172.65 1560.35 Q1175.8 1563.94 1181.5 1563.94 Q1184.04 1563.94 1186.53 1563.28 Q1189.04 1562.58 1191.52 1561.21 L1191.52 1566.62 Q1189.07 1567.76 1186.43 1568.34 Q1183.82 1568.91 1180.86 1568.91 Q1172.81 1568.91 1168.07 1563.85 Q1163.32 1558.79 1163.32 1550.19 Q1163.32 1541.47 1168.1 1536.48 Q1172.9 1531.48 1181.24 1531.48 Q1183.95 1531.48 1186.53 1532.05 Q1189.1 1532.59 1191.52 1533.71 Z" fill="#000000" fill-rule="nonzero" fill-opacity="1" /><path clip-path="url(#clip190)" d="M1207.5 1522.22 L1207.5 1532.34 L1219.56 1532.34 L1219.56 1536.89 L1207.5 1536.89 L1207.5 1556.24 Q1207.5 1560.6 1208.68 1561.84 Q1209.89 1563.08 1213.55 1563.08 L1219.56 1563.08 L1219.56 1567.99 L1213.55 1567.99 Q1206.77 1567.99 1204.19 1565.47 Q1201.61 1562.93 1201.61 1556.24 L1201.61 1536.89 L1197.32 1536.89 L1197.32 1532.34 L1201.61 1532.34 L1201.61 1522.22 L1207.5 1522.22 Z" fill="#000000" fill-rule="nonzero" fill-opacity="1" /><path clip-path="url(#clip190)" d="M1227.27 1532.34 L1233.12 1532.34 L1233.12 1567.99 L1227.27 1567.99 L1227.27 1532.34 M1227.27 1518.46 L1233.12 1518.46 L1233.12 1525.88 L1227.27 1525.88 L1227.27 1518.46 Z" fill="#000000" fill-rule="nonzero" fill-opacity="1" /><path clip-path="url(#clip190)" d="M1259.19 1536.44 Q1254.48 1536.44 1251.74 1540.14 Q1249.01 1543.8 1249.01 1550.19 Q1249.01 1556.59 1251.71 1560.28 Q1254.45 1563.94 1259.19 1563.94 Q1263.87 1563.94 1266.61 1560.25 Q1269.34 1556.56 1269.34 1550.19 Q1269.34 1543.86 1266.61 1540.17 Q1263.87 1536.44 1259.19 1536.44 M1259.19 1531.48 Q1266.83 1531.48 1271.19 1536.44 Q1275.55 1541.41 1275.55 1550.19 Q1275.55 1558.95 1271.19 1563.94 Q1266.83 1568.91 1259.19 1568.91 Q1251.52 1568.91 1247.16 1563.94 Q1242.83 1558.95 1242.83 1550.19 Q1242.83 1541.41 1247.16 1536.44 Q1251.52 1531.48 1259.19 1531.48 Z" fill="#000000" fill-rule="nonzero" fill-opacity="1" /><path clip-path="url(#clip190)" d="M1314.89 1546.47 L1314.89 1567.99 L1309.03 1567.99 L1309.03 1546.66 Q1309.03 1541.6 1307.06 1539.09 Q1305.09 1536.57 1301.14 1536.57 Q1296.4 1536.57 1293.66 1539.59 Q1290.92 1542.62 1290.92 1547.84 L1290.92 1567.99 L1285.04 1567.99 L1285.04 1532.34 L1290.92 1532.34 L1290.92 1537.88 Q1293.02 1534.66 1295.86 1533.07 Q1298.72 1531.48 1302.45 1531.48 Q1308.59 1531.48 1311.74 1535.3 Q1314.89 1539.09 1314.89 1546.47 Z" fill="#000000" fill-rule="nonzero" fill-opacity="1" /><path clip-path="url(#clip190)" d="M1349.3 1533.39 L1349.3 1538.93 Q1346.82 1537.65 1344.14 1537.02 Q1341.47 1536.38 1338.6 1536.38 Q1334.24 1536.38 1332.05 1537.72 Q1329.88 1539.05 1329.88 1541.73 Q1329.88 1543.76 1331.44 1544.94 Q1333 1546.09 1337.71 1547.14 L1339.72 1547.58 Q1345.96 1548.92 1348.57 1551.37 Q1351.21 1553.79 1351.21 1558.15 Q1351.21 1563.12 1347.26 1566.01 Q1343.35 1568.91 1336.47 1568.91 Q1333.61 1568.91 1330.49 1568.34 Q1327.4 1567.79 1323.96 1566.68 L1323.96 1560.63 Q1327.21 1562.32 1330.36 1563.18 Q1333.51 1564.01 1336.6 1564.01 Q1340.74 1564.01 1342.96 1562.61 Q1345.19 1561.17 1345.19 1558.6 Q1345.19 1556.21 1343.57 1554.94 Q1341.98 1553.66 1336.53 1552.49 L1334.5 1552.01 Q1329.05 1550.86 1326.64 1548.51 Q1324.22 1546.12 1324.22 1541.98 Q1324.22 1536.95 1327.78 1534.22 Q1331.35 1531.48 1337.9 1531.48 Q1341.15 1531.48 1344.01 1531.96 Q1346.88 1532.43 1349.3 1533.39 Z" fill="#000000" fill-rule="nonzero" fill-opacity="1" /><path clip-path="url(#clip190)" d="M1395.32 1518.52 Q1391.06 1525.84 1388.99 1533.01 Q1386.92 1540.17 1386.92 1547.52 Q1386.92 1554.87 1388.99 1562.1 Q1391.09 1569.29 1395.32 1576.58 L1390.23 1576.58 Q1385.45 1569.1 1383.07 1561.87 Q1380.71 1554.65 1380.71 1547.52 Q1380.71 1540.42 1383.07 1533.23 Q1385.42 1526.04 1390.23 1518.52 L1395.32 1518.52 Z" fill="#000000" fill-rule="nonzero" fill-opacity="1" /><path clip-path="url(#clip190)" d="M1450.84 1523.67 Q1450.84 1524.99 1449.72 1524.99 Q1446.08 1525.12 1444.6 1526.34 Q1443.15 1527.54 1442.6 1529.85 L1433.39 1566.6 Q1433.07 1567.76 1432.87 1567.89 Q1432.68 1567.99 1432.33 1567.99 Q1431.88 1567.99 1431.62 1567.76 Q1431.39 1567.54 1431.07 1566.73 L1414.65 1527.89 Q1414.52 1527.63 1414.36 1527.28 Q1414.19 1526.92 1414.07 1526.7 L1405.34 1561.51 Q1405.08 1562.51 1405.08 1563.03 Q1405.08 1564.28 1405.95 1565.09 Q1406.85 1565.86 1409.43 1565.96 Q1410.75 1565.96 1410.75 1566.67 Q1410.75 1567.99 1409.56 1567.99 Q1408.46 1567.99 1406.18 1567.89 Q1403.89 1567.79 1402.76 1567.79 Q1401.67 1567.79 1399.44 1567.89 Q1397.22 1567.99 1396.16 1567.99 Q1395.32 1567.99 1395.32 1567.25 Q1395.32 1566.67 1395.55 1566.38 Q1395.77 1566.05 1395.97 1566.02 Q1396.16 1565.96 1396.45 1565.96 Q1398.38 1565.89 1399.7 1565.51 Q1401.02 1565.12 1401.76 1564.38 Q1402.54 1563.64 1402.89 1562.9 Q1403.28 1562.12 1403.57 1561 L1412.39 1525.57 Q1412.39 1524.99 1407.91 1524.99 Q1407.14 1524.99 1406.82 1524.96 Q1406.53 1524.93 1406.3 1524.77 Q1406.08 1524.6 1406.08 1524.25 Q1406.08 1523.35 1406.46 1523.16 Q1406.85 1522.93 1407.98 1522.93 L1416.84 1522.93 Q1417.96 1522.93 1418.25 1523.12 Q1418.54 1523.28 1418.93 1524.19 L1433.52 1558.61 L1440.89 1529.27 Q1441.09 1528.69 1441.09 1527.89 Q1441.09 1526.6 1440.12 1525.83 Q1439.19 1525.02 1436.61 1524.99 Q1435.42 1524.99 1435.42 1524.25 Q1435.42 1523.64 1435.64 1523.35 Q1435.9 1523.03 1436.09 1522.99 Q1436.32 1522.93 1436.61 1522.93 Q1437.7 1522.93 1439.96 1523.03 Q1442.21 1523.12 1443.34 1523.12 Q1444.44 1523.12 1446.66 1523.03 Q1448.91 1522.93 1450.01 1522.93 Q1450.39 1522.93 1450.59 1523.12 Q1450.81 1523.28 1450.84 1523.48 L1450.84 1523.67 Z" fill="#000000" fill-rule="nonzero" fill-opacity="1" /><path clip-path="url(#clip190)" d="M1502.7 1566.99 Q1502.37 1567.37 1501.79 1567.37 Q1501.25 1567.37 1500.86 1566.99 L1487.2 1553.33 L1473.55 1566.99 Q1473.16 1567.37 1472.58 1567.37 Q1472.04 1567.37 1471.68 1566.99 Q1471.29 1566.63 1471.29 1566.09 Q1471.29 1565.54 1471.68 1565.15 L1485.34 1551.5 L1471.68 1537.84 Q1471.29 1537.45 1471.29 1536.91 Q1471.29 1536.33 1471.68 1536.01 Q1472.04 1535.62 1472.58 1535.62 Q1473.16 1535.62 1473.55 1536.01 L1487.2 1549.66 L1500.86 1536.01 Q1501.25 1535.62 1501.79 1535.62 Q1502.37 1535.62 1502.7 1536.01 Q1503.08 1536.33 1503.08 1536.91 Q1503.08 1537.45 1502.7 1537.84 L1489.04 1551.5 L1502.7 1565.15 Q1503.08 1565.54 1503.08 1566.12 Q1503.08 1566.67 1502.7 1566.99 Z" fill="#000000" fill-rule="nonzero" fill-opacity="1" /><path clip-path="url(#clip190)" d="M1589.69 1523.67 Q1589.69 1524.99 1588.56 1524.99 Q1584.92 1525.12 1583.44 1526.34 Q1581.99 1527.54 1581.44 1529.85 L1572.23 1566.6 Q1571.91 1567.76 1571.71 1567.89 Q1571.52 1567.99 1571.17 1567.99 Q1570.72 1567.99 1570.46 1567.76 Q1570.23 1567.54 1569.91 1566.73 L1553.49 1527.89 Q1553.36 1527.63 1553.2 1527.28 Q1553.04 1526.92 1552.91 1526.7 L1544.18 1561.51 Q1543.92 1562.51 1543.92 1563.03 Q1543.92 1564.28 1544.79 1565.09 Q1545.69 1565.86 1548.27 1565.96 Q1549.59 1565.96 1549.59 1566.67 Q1549.59 1567.99 1548.4 1567.99 Q1547.3 1567.99 1545.02 1567.89 Q1542.73 1567.79 1541.6 1567.79 Q1540.51 1567.79 1538.29 1567.89 Q1536.06 1567.99 1535 1567.99 Q1534.16 1567.99 1534.16 1567.25 Q1534.16 1566.67 1534.39 1566.38 Q1534.61 1566.05 1534.81 1566.02 Q1535 1565.96 1535.29 1565.96 Q1537.22 1565.89 1538.54 1565.51 Q1539.86 1565.12 1540.6 1564.38 Q1541.38 1563.64 1541.73 1562.9 Q1542.12 1562.12 1542.41 1561 L1551.23 1525.57 Q1551.23 1524.99 1546.76 1524.99 Q1545.98 1524.99 1545.66 1524.96 Q1545.37 1524.93 1545.14 1524.77 Q1544.92 1524.6 1544.92 1524.25 Q1544.92 1523.35 1545.31 1523.16 Q1545.69 1522.93 1546.82 1522.93 L1555.68 1522.93 Q1556.8 1522.93 1557.09 1523.12 Q1557.38 1523.28 1557.77 1524.19 L1572.36 1558.61 L1579.73 1529.27 Q1579.93 1528.69 1579.93 1527.89 Q1579.93 1526.6 1578.96 1525.83 Q1578.03 1525.02 1575.45 1524.99 Q1574.26 1524.99 1574.26 1524.25 Q1574.26 1523.64 1574.48 1523.35 Q1574.74 1523.03 1574.94 1522.99 Q1575.16 1522.93 1575.45 1522.93 Q1576.55 1522.93 1578.8 1523.03 Q1581.05 1523.12 1582.18 1523.12 Q1583.28 1523.12 1585.5 1523.03 Q1587.75 1522.93 1588.85 1522.93 Q1589.23 1522.93 1589.43 1523.12 Q1589.65 1523.28 1589.69 1523.48 L1589.69 1523.67 Z" fill="#000000" fill-rule="nonzero" fill-opacity="1" /><path clip-path="url(#clip190)" d="M1586.6 1518.52 L1591.7 1518.52 Q1596.47 1526.04 1598.83 1533.23 Q1601.21 1540.42 1601.21 1547.52 Q1601.21 1554.65 1598.83 1561.87 Q1596.47 1569.1 1591.7 1576.58 L1586.6 1576.58 Q1590.84 1569.29 1592.91 1562.1 Q1595.01 1554.87 1595.01 1547.52 Q1595.01 1540.17 1592.91 1533.01 Q1590.84 1525.84 1586.6 1518.52 Z" fill="#000000" fill-rule="nonzero" fill-opacity="1" /><polyline clip-path="url(#clip190)" style="stroke:#000000; stroke-linecap:round; stroke-linejoin:round; stroke-width:4; stroke-opacity:1; fill:none" points="221.637,1410.9 221.637,123.472 "/>
<polyline clip-path="url(#clip190)" style="stroke:#000000; stroke-linecap:round; stroke-linejoin:round; stroke-width:4; stroke-opacity:1; fill:none" points="221.637,1353.71 240.535,1353.71 "/>
<polyline clip-path="url(#clip190)" style="stroke:#000000; stroke-linecap:round; stroke-linejoin:round; stroke-width:4; stroke-opacity:1; fill:none" points="221.637,931.28 240.535,931.28 "/>
<polyline clip-path="url(#clip190)" style="stroke:#000000; stroke-linecap:round; stroke-linejoin:round; stroke-width:4; stroke-opacity:1; fill:none" points="221.637,508.851 240.535,508.851 "/>
<polyline clip-path="url(#clip190)" style="stroke:#000000; stroke-linecap:round; stroke-linejoin:round; stroke-width:4; stroke-opacity:1; fill:none" points="221.637,1394.65 231.086,1394.65 "/>
<polyline clip-path="url(#clip190)" style="stroke:#000000; stroke-linecap:round; stroke-linejoin:round; stroke-width:4; stroke-opacity:1; fill:none" points="221.637,1373.04 231.086,1373.04 "/>
<polyline clip-path="url(#clip190)" style="stroke:#000000; stroke-linecap:round; stroke-linejoin:round; stroke-width:4; stroke-opacity:1; fill:none" points="221.637,1226.55 231.086,1226.55 "/>
<polyline clip-path="url(#clip190)" style="stroke:#000000; stroke-linecap:round; stroke-linejoin:round; stroke-width:4; stroke-opacity:1; fill:none" points="221.637,1152.16 231.086,1152.16 "/>
<polyline clip-path="url(#clip190)" style="stroke:#000000; stroke-linecap:round; stroke-linejoin:round; stroke-width:4; stroke-opacity:1; fill:none" points="221.637,1099.38 231.086,1099.38 "/>
<polyline clip-path="url(#clip190)" style="stroke:#000000; stroke-linecap:round; stroke-linejoin:round; stroke-width:4; stroke-opacity:1; fill:none" points="221.637,1058.44 231.086,1058.44 "/>
<polyline clip-path="url(#clip190)" style="stroke:#000000; stroke-linecap:round; stroke-linejoin:round; stroke-width:4; stroke-opacity:1; fill:none" points="221.637,1025 231.086,1025 "/>
<polyline clip-path="url(#clip190)" style="stroke:#000000; stroke-linecap:round; stroke-linejoin:round; stroke-width:4; stroke-opacity:1; fill:none" points="221.637,996.716 231.086,996.716 "/>
<polyline clip-path="url(#clip190)" style="stroke:#000000; stroke-linecap:round; stroke-linejoin:round; stroke-width:4; stroke-opacity:1; fill:none" points="221.637,972.218 231.086,972.218 "/>
<polyline clip-path="url(#clip190)" style="stroke:#000000; stroke-linecap:round; stroke-linejoin:round; stroke-width:4; stroke-opacity:1; fill:none" points="221.637,950.61 231.086,950.61 "/>
<polyline clip-path="url(#clip190)" style="stroke:#000000; stroke-linecap:round; stroke-linejoin:round; stroke-width:4; stroke-opacity:1; fill:none" points="221.637,804.117 231.086,804.117 "/>
<polyline clip-path="url(#clip190)" style="stroke:#000000; stroke-linecap:round; stroke-linejoin:round; stroke-width:4; stroke-opacity:1; fill:none" points="221.637,729.73 231.086,729.73 "/>
<polyline clip-path="url(#clip190)" style="stroke:#000000; stroke-linecap:round; stroke-linejoin:round; stroke-width:4; stroke-opacity:1; fill:none" points="221.637,676.953 231.086,676.953 "/>
<polyline clip-path="url(#clip190)" style="stroke:#000000; stroke-linecap:round; stroke-linejoin:round; stroke-width:4; stroke-opacity:1; fill:none" points="221.637,636.015 231.086,636.015 "/>
<polyline clip-path="url(#clip190)" style="stroke:#000000; stroke-linecap:round; stroke-linejoin:round; stroke-width:4; stroke-opacity:1; fill:none" points="221.637,602.567 231.086,602.567 "/>
<polyline clip-path="url(#clip190)" style="stroke:#000000; stroke-linecap:round; stroke-linejoin:round; stroke-width:4; stroke-opacity:1; fill:none" points="221.637,574.286 231.086,574.286 "/>
<polyline clip-path="url(#clip190)" style="stroke:#000000; stroke-linecap:round; stroke-linejoin:round; stroke-width:4; stroke-opacity:1; fill:none" points="221.637,549.789 231.086,549.789 "/>
<polyline clip-path="url(#clip190)" style="stroke:#000000; stroke-linecap:round; stroke-linejoin:round; stroke-width:4; stroke-opacity:1; fill:none" points="221.637,528.18 231.086,528.18 "/>
<polyline clip-path="url(#clip190)" style="stroke:#000000; stroke-linecap:round; stroke-linejoin:round; stroke-width:4; stroke-opacity:1; fill:none" points="221.637,381.687 231.086,381.687 "/>
<polyline clip-path="url(#clip190)" style="stroke:#000000; stroke-linecap:round; stroke-linejoin:round; stroke-width:4; stroke-opacity:1; fill:none" points="221.637,307.301 231.086,307.301 "/>
<polyline clip-path="url(#clip190)" style="stroke:#000000; stroke-linecap:round; stroke-linejoin:round; stroke-width:4; stroke-opacity:1; fill:none" points="221.637,254.523 231.086,254.523 "/>
<polyline clip-path="url(#clip190)" style="stroke:#000000; stroke-linecap:round; stroke-linejoin:round; stroke-width:4; stroke-opacity:1; fill:none" points="221.637,213.586 231.086,213.586 "/>
<polyline clip-path="url(#clip190)" style="stroke:#000000; stroke-linecap:round; stroke-linejoin:round; stroke-width:4; stroke-opacity:1; fill:none" points="221.637,180.137 231.086,180.137 "/>
<polyline clip-path="url(#clip190)" style="stroke:#000000; stroke-linecap:round; stroke-linejoin:round; stroke-width:4; stroke-opacity:1; fill:none" points="221.637,151.857 231.086,151.857 "/>
<polyline clip-path="url(#clip190)" style="stroke:#000000; stroke-linecap:round; stroke-linejoin:round; stroke-width:4; stroke-opacity:1; fill:none" points="221.637,127.359 231.086,127.359 "/>
<path clip-path="url(#clip190)" d="M114.931 1373.5 L122.57 1373.5 L122.57 1347.14 L114.26 1348.8 L114.26 1344.54 L122.524 1342.88 L127.2 1342.88 L127.2 1373.5 L134.839 1373.5 L134.839 1377.44 L114.931 1377.44 L114.931 1373.5 Z" fill="#000000" fill-rule="nonzero" fill-opacity="1" /><path clip-path="url(#clip190)" d="M154.283 1345.96 Q150.672 1345.96 148.843 1349.52 Q147.038 1353.06 147.038 1360.19 Q147.038 1367.3 148.843 1370.86 Q150.672 1374.4 154.283 1374.4 Q157.917 1374.4 159.723 1370.86 Q161.552 1367.3 161.552 1360.19 Q161.552 1353.06 159.723 1349.52 Q157.917 1345.96 154.283 1345.96 M154.283 1342.25 Q160.093 1342.25 163.149 1346.86 Q166.227 1351.44 166.227 1360.19 Q166.227 1368.92 163.149 1373.53 Q160.093 1378.11 154.283 1378.11 Q148.473 1378.11 145.394 1373.53 Q142.339 1368.92 142.339 1360.19 Q142.339 1351.44 145.394 1346.86 Q148.473 1342.25 154.283 1342.25 Z" fill="#000000" fill-rule="nonzero" fill-opacity="1" /><path clip-path="url(#clip190)" d="M175.932 1324.45 Q172.998 1324.45 171.512 1327.34 Q170.045 1330.22 170.045 1336.02 Q170.045 1341.79 171.512 1344.69 Q172.998 1347.56 175.932 1347.56 Q178.885 1347.56 180.352 1344.69 Q181.838 1341.79 181.838 1336.02 Q181.838 1330.22 180.352 1327.34 Q178.885 1324.45 175.932 1324.45 M175.932 1321.44 Q180.653 1321.44 183.136 1325.18 Q185.637 1328.91 185.637 1336.02 Q185.637 1343.11 183.136 1346.85 Q180.653 1350.57 175.932 1350.57 Q171.212 1350.57 168.71 1346.85 Q166.227 1343.11 166.227 1336.02 Q166.227 1328.91 168.71 1325.18 Q171.212 1321.44 175.932 1321.44 Z" fill="#000000" fill-rule="nonzero" fill-opacity="1" /><path clip-path="url(#clip190)" d="M117.621 951.073 L125.26 951.073 L125.26 924.707 L116.95 926.374 L116.95 922.115 L125.214 920.448 L129.889 920.448 L129.889 951.073 L137.528 951.073 L137.528 955.008 L117.621 955.008 L117.621 951.073 Z" fill="#000000" fill-rule="nonzero" fill-opacity="1" /><path clip-path="url(#clip190)" d="M156.973 923.527 Q153.362 923.527 151.533 927.091 Q149.727 930.633 149.727 937.763 Q149.727 944.869 151.533 948.434 Q153.362 951.976 156.973 951.976 Q160.607 951.976 162.412 948.434 Q164.241 944.869 164.241 937.763 Q164.241 930.633 162.412 927.091 Q160.607 923.527 156.973 923.527 M156.973 919.823 Q162.783 919.823 165.838 924.429 Q168.917 929.013 168.917 937.763 Q168.917 946.49 165.838 951.096 Q162.783 955.679 156.973 955.679 Q151.162 955.679 148.084 951.096 Q145.028 946.49 145.028 937.763 Q145.028 929.013 148.084 924.429 Q151.162 919.823 156.973 919.823 Z" fill="#000000" fill-rule="nonzero" fill-opacity="1" /><path clip-path="url(#clip190)" d="M169.462 924.4 L175.669 924.4 L175.669 902.978 L168.917 904.332 L168.917 900.872 L175.631 899.518 L179.431 899.518 L179.431 924.4 L185.637 924.4 L185.637 927.598 L169.462 927.598 L169.462 924.4 Z" fill="#000000" fill-rule="nonzero" fill-opacity="1" /><path clip-path="url(#clip190)" d="M116.511 528.644 L124.15 528.644 L124.15 502.278 L115.84 503.945 L115.84 499.685 L124.104 498.019 L128.78 498.019 L128.78 528.644 L136.419 528.644 L136.419 532.579 L116.511 532.579 L116.511 528.644 Z" fill="#000000" fill-rule="nonzero" fill-opacity="1" /><path clip-path="url(#clip190)" d="M155.863 501.097 Q152.252 501.097 150.423 504.662 Q148.618 508.204 148.618 515.333 Q148.618 522.44 150.423 526.005 Q152.252 529.546 155.863 529.546 Q159.497 529.546 161.303 526.005 Q163.131 522.44 163.131 515.333 Q163.131 508.204 161.303 504.662 Q159.497 501.097 155.863 501.097 M155.863 497.394 Q161.673 497.394 164.729 502 Q167.807 506.583 167.807 515.333 Q167.807 524.06 164.729 528.667 Q161.673 533.25 155.863 533.25 Q150.053 533.25 146.974 528.667 Q143.919 524.06 143.919 515.333 Q143.919 506.583 146.974 502 Q150.053 497.394 155.863 497.394 Z" fill="#000000" fill-rule="nonzero" fill-opacity="1" /><path clip-path="url(#clip190)" d="M172.378 501.971 L185.637 501.971 L185.637 505.168 L167.807 505.168 L167.807 501.971 Q169.97 499.733 173.694 495.971 Q177.437 492.191 178.396 491.1 Q180.22 489.05 180.935 487.639 Q181.669 486.21 181.669 484.837 Q181.669 482.599 180.089 481.188 Q178.528 479.778 176.008 479.778 Q174.221 479.778 172.227 480.398 Q170.252 481.019 167.995 482.279 L167.995 478.442 Q170.29 477.521 172.284 477.051 Q174.277 476.58 175.932 476.58 Q180.296 476.58 182.891 478.762 Q185.487 480.944 185.487 484.593 Q185.487 486.323 184.828 487.884 Q184.189 489.426 182.477 491.533 Q182.007 492.078 179.487 494.692 Q176.967 497.288 172.378 501.971 Z" fill="#000000" fill-rule="nonzero" fill-opacity="1" /><path clip-path="url(#clip190)" d="M18.0438 1329.63 L24.314 1329.63 Q22.5634 1333.29 21.704 1336.53 Q20.8447 1339.78 20.8447 1342.8 Q20.8447 1348.06 22.8817 1350.92 Q24.9187 1353.75 28.6745 1353.75 Q31.8255 1353.75 33.4488 1351.87 Q35.0402 1349.96 36.0269 1344.68 L36.8226 1340.8 Q38.1912 1333.6 41.6605 1330.2 Q45.098 1326.76 50.8908 1326.76 Q57.7976 1326.76 61.3624 1331.41 Q64.9272 1336.02 64.9272 1344.97 Q64.9272 1348.34 64.1633 1352.16 Q63.3994 1355.95 61.9035 1360.02 L55.2831 1360.02 Q57.4793 1356.11 58.5933 1352.35 Q59.7073 1348.6 59.7073 1344.97 Q59.7073 1339.46 57.543 1336.47 Q55.3786 1333.48 51.3682 1333.48 Q47.8671 1333.48 45.8937 1335.64 Q43.9204 1337.77 42.9337 1342.68 L42.1698 1346.59 Q40.7375 1353.78 37.682 1357 Q34.6264 1360.21 29.1837 1360.21 Q22.8817 1360.21 19.2532 1355.79 Q15.6248 1351.33 15.6248 1343.54 Q15.6248 1340.19 16.2295 1336.72 Q16.8343 1333.25 18.0438 1329.63 Z" fill="#000000" fill-rule="nonzero" fill-opacity="1" /><path clip-path="url(#clip190)" d="M58.657 1311.32 L77.5631 1311.32 L77.5631 1317.21 L28.3562 1317.21 L28.3562 1311.32 L33.7671 1311.32 Q30.5842 1309.48 29.0564 1306.68 Q27.4968 1303.85 27.4968 1299.93 Q27.4968 1293.44 32.6531 1289.4 Q37.8093 1285.32 46.212 1285.32 Q54.6147 1285.32 59.771 1289.4 Q64.9272 1293.44 64.9272 1299.93 Q64.9272 1303.85 63.3994 1306.68 Q61.8398 1309.48 58.657 1311.32 M46.212 1291.4 Q39.7508 1291.4 36.0905 1294.07 Q32.3984 1296.72 32.3984 1301.36 Q32.3984 1306.01 36.0905 1308.68 Q39.7508 1311.32 46.212 1311.32 Q52.6732 1311.32 56.3653 1308.68 Q60.0256 1306.01 60.0256 1301.36 Q60.0256 1296.72 56.3653 1294.07 Q52.6732 1291.4 46.212 1291.4 Z" fill="#000000" fill-rule="nonzero" fill-opacity="1" /><path clip-path="url(#clip190)" d="M44.7161 1245.12 L47.5806 1245.12 L47.5806 1272.05 Q53.6281 1271.67 56.8109 1268.42 Q59.9619 1265.14 59.9619 1259.32 Q59.9619 1255.94 59.1344 1252.79 Q58.3069 1249.61 56.6518 1246.49 L62.1899 1246.49 Q63.5267 1249.64 64.227 1252.95 Q64.9272 1256.26 64.9272 1259.67 Q64.9272 1268.2 59.9619 1273.19 Q54.9967 1278.16 46.5303 1278.16 Q37.7774 1278.16 32.6531 1273.45 Q27.4968 1268.71 27.4968 1260.69 Q27.4968 1253.49 32.1438 1249.32 Q36.7589 1245.12 44.7161 1245.12 M42.9973 1250.98 Q38.1912 1251.04 35.3266 1253.68 Q32.4621 1256.29 32.4621 1260.62 Q32.4621 1265.52 35.2312 1268.48 Q38.0002 1271.41 43.0292 1271.86 L42.9973 1250.98 Z" fill="#000000" fill-rule="nonzero" fill-opacity="1" /><path clip-path="url(#clip190)" d="M44.7161 1205.02 L47.5806 1205.02 L47.5806 1231.94 Q53.6281 1231.56 56.8109 1228.32 Q59.9619 1225.04 59.9619 1219.21 Q59.9619 1215.84 59.1344 1212.69 Q58.3069 1209.51 56.6518 1206.39 L62.1899 1206.39 Q63.5267 1209.54 64.227 1212.85 Q64.9272 1216.16 64.9272 1219.56 Q64.9272 1228.09 59.9619 1233.09 Q54.9967 1238.06 46.5303 1238.06 Q37.7774 1238.06 32.6531 1233.35 Q27.4968 1228.6 27.4968 1220.58 Q27.4968 1213.39 32.1438 1209.22 Q36.7589 1205.02 44.7161 1205.02 M42.9973 1210.87 Q38.1912 1210.94 35.3266 1213.58 Q32.4621 1216.19 32.4621 1220.52 Q32.4621 1225.42 35.2312 1228.38 Q38.0002 1231.31 43.0292 1231.75 L42.9973 1210.87 Z" fill="#000000" fill-rule="nonzero" fill-opacity="1" /><path clip-path="url(#clip190)" d="M33.7671 1171.95 L14.479 1171.95 L14.479 1166.09 L64.0042 1166.09 L64.0042 1171.95 L58.657 1171.95 Q61.8398 1173.79 63.3994 1176.63 Q64.9272 1179.43 64.9272 1183.37 Q64.9272 1189.84 59.771 1193.91 Q54.6147 1197.95 46.212 1197.95 Q37.8093 1197.95 32.6531 1193.91 Q27.4968 1189.84 27.4968 1183.37 Q27.4968 1179.43 29.0564 1176.63 Q30.5842 1173.79 33.7671 1171.95 M46.212 1191.9 Q52.6732 1191.9 56.3653 1189.26 Q60.0256 1186.59 60.0256 1181.94 Q60.0256 1177.3 56.3653 1174.62 Q52.6732 1171.95 46.212 1171.95 Q39.7508 1171.95 36.0905 1174.62 Q32.3984 1177.3 32.3984 1181.94 Q32.3984 1186.59 36.0905 1189.26 Q39.7508 1191.9 46.212 1191.9 Z" fill="#000000" fill-rule="nonzero" fill-opacity="1" /><path clip-path="url(#clip190)" d="M49.9359 1154.63 L28.3562 1154.63 L28.3562 1148.78 L49.7131 1148.78 Q54.7739 1148.78 57.3202 1146.8 Q59.8346 1144.83 59.8346 1140.88 Q59.8346 1136.14 56.8109 1133.4 Q53.7872 1130.63 48.5673 1130.63 L28.3562 1130.63 L28.3562 1124.78 L64.0042 1124.78 L64.0042 1130.63 L58.5296 1130.63 Q61.7762 1132.77 63.3676 1135.6 Q64.9272 1138.4 64.9272 1142.12 Q64.9272 1148.27 61.1078 1151.45 Q57.2883 1154.63 49.9359 1154.63 M27.4968 1139.9 L27.4968 1139.9 Z" fill="#000000" fill-rule="nonzero" fill-opacity="1" /><path clip-path="url(#clip190)" d="M58.657 1107.05 L77.5631 1107.05 L77.5631 1112.94 L28.3562 1112.94 L28.3562 1107.05 L33.7671 1107.05 Q30.5842 1105.2 29.0564 1102.4 Q27.4968 1099.57 27.4968 1095.65 Q27.4968 1089.16 32.6531 1085.12 Q37.8093 1081.05 46.212 1081.05 Q54.6147 1081.05 59.771 1085.12 Q64.9272 1089.16 64.9272 1095.65 Q64.9272 1099.57 63.3994 1102.4 Q61.8398 1105.2 58.657 1107.05 M46.212 1087.12 Q39.7508 1087.12 36.0905 1089.8 Q32.3984 1092.44 32.3984 1097.09 Q32.3984 1101.73 36.0905 1104.41 Q39.7508 1107.05 46.212 1107.05 Q52.6732 1107.05 56.3653 1104.41 Q60.0256 1101.73 60.0256 1097.09 Q60.0256 1092.44 56.3653 1089.8 Q52.6732 1087.12 46.212 1087.12 Z" fill="#000000" fill-rule="nonzero" fill-opacity="1" /><path clip-path="url(#clip190)" d="M14.5426 1036.55 Q21.8632 1040.81 29.0246 1042.88 Q36.186 1044.95 43.5384 1044.95 Q50.8908 1044.95 58.1159 1042.88 Q65.3091 1040.78 72.5979 1036.55 L72.5979 1041.64 Q65.1182 1046.42 57.8931 1048.8 Q50.668 1051.16 43.5384 1051.16 Q36.4406 1051.16 29.2474 1048.8 Q22.0542 1046.45 14.5426 1041.64 L14.5426 1036.55 Z" fill="#000000" fill-rule="nonzero" fill-opacity="1" /><path clip-path="url(#clip190)" d="M21.7677 1018.5 L58.7206 1018.5 L58.7206 1010.74 Q58.7206 1000.9 54.2646 996.35 Q49.8086 991.767 40.1964 991.767 Q30.6479 991.767 26.2237 996.35 Q21.7677 1000.9 21.7677 1010.74 L21.7677 1018.5 M16.4842 1024.93 L16.4842 1011.72 Q16.4842 997.909 22.2451 991.448 Q27.9743 984.987 40.1964 984.987 Q52.4822 984.987 58.2432 991.48 Q64.0042 997.973 64.0042 1011.72 L64.0042 1024.93 L16.4842 1024.93 Z" fill="#000000" fill-rule="nonzero" fill-opacity="1" /><path clip-path="url(#clip190)" d="M28.3562 974.993 L28.3562 969.136 L64.0042 969.136 L64.0042 974.993 L28.3562 974.993 M14.479 974.993 L14.479 969.136 L21.895 969.136 L21.895 974.993 L14.479 974.993 Z" fill="#000000" fill-rule="nonzero" fill-opacity="1" /><path clip-path="url(#clip190)" d="M33.8307 936.226 Q33.2578 937.212 33.0032 938.39 Q32.7167 939.536 32.7167 940.936 Q32.7167 945.902 35.9632 948.575 Q39.1779 951.217 45.2253 951.217 L64.0042 951.217 L64.0042 957.105 L28.3562 957.105 L28.3562 951.217 L33.8944 951.217 Q30.6479 949.371 29.0883 946.411 Q27.4968 943.451 27.4968 939.218 Q27.4968 938.613 27.5923 937.881 Q27.656 937.149 27.8151 936.258 L33.8307 936.226 Z" fill="#000000" fill-rule="nonzero" fill-opacity="1" /><path clip-path="url(#clip190)" d="M44.7161 901.023 L47.5806 901.023 L47.5806 927.95 Q53.6281 927.568 56.8109 924.322 Q59.9619 921.044 59.9619 915.219 Q59.9619 911.845 59.1344 908.694 Q58.3069 905.511 56.6518 902.392 L62.1899 902.392 Q63.5267 905.543 64.227 908.853 Q64.9272 912.163 64.9272 915.569 Q64.9272 924.099 59.9619 929.096 Q54.9967 934.061 46.5303 934.061 Q37.7774 934.061 32.6531 929.351 Q27.4968 924.608 27.4968 916.588 Q27.4968 909.394 32.1438 905.225 Q36.7589 901.023 44.7161 901.023 M42.9973 906.88 Q38.1912 906.943 35.3266 909.585 Q32.4621 912.195 32.4621 916.524 Q32.4621 921.425 35.2312 924.386 Q38.0002 927.314 43.0292 927.759 L42.9973 906.88 Z" fill="#000000" fill-rule="nonzero" fill-opacity="1" /><path clip-path="url(#clip190)" d="M29.7248 865.757 L35.1993 865.757 Q33.8307 868.24 33.1623 870.754 Q32.4621 873.237 32.4621 875.783 Q32.4621 881.481 36.0905 884.632 Q39.6872 887.783 46.212 887.783 Q52.7369 887.783 56.3653 884.632 Q59.9619 881.481 59.9619 875.783 Q59.9619 873.237 59.2935 870.754 Q58.5933 868.24 57.2247 865.757 L62.6355 865.757 Q63.7814 868.208 64.3543 870.85 Q64.9272 873.46 64.9272 876.42 Q64.9272 884.473 59.8664 889.215 Q54.8057 893.957 46.212 893.957 Q37.491 893.957 32.4939 889.183 Q27.4968 884.377 27.4968 876.038 Q27.4968 873.333 28.0697 870.754 Q28.6108 868.176 29.7248 865.757 Z" fill="#000000" fill-rule="nonzero" fill-opacity="1" /><path clip-path="url(#clip190)" d="M18.2347 849.779 L28.3562 849.779 L28.3562 837.716 L32.9077 837.716 L32.9077 849.779 L52.2594 849.779 Q56.6199 849.779 57.8613 848.602 Q59.1026 847.392 59.1026 843.732 L59.1026 837.716 L64.0042 837.716 L64.0042 843.732 Q64.0042 850.511 61.4897 853.09 Q58.9434 855.668 52.2594 855.668 L32.9077 855.668 L32.9077 859.965 L28.3562 859.965 L28.3562 855.668 L18.2347 855.668 L18.2347 849.779 Z" fill="#000000" fill-rule="nonzero" fill-opacity="1" /><path clip-path="url(#clip190)" d="M16.4842 815.627 L16.4842 775.428 L21.895 775.428 L21.895 792.297 L64.0042 792.297 L64.0042 798.758 L21.895 798.758 L21.895 815.627 L16.4842 815.627 Z" fill="#000000" fill-rule="nonzero" fill-opacity="1" /><path clip-path="url(#clip190)" d="M28.3562 771.481 L28.3562 765.625 L64.0042 765.625 L64.0042 771.481 L28.3562 771.481 M14.479 771.481 L14.479 765.625 L21.895 765.625 L21.895 771.481 L14.479 771.481 Z" fill="#000000" fill-rule="nonzero" fill-opacity="1" /><path clip-path="url(#clip190)" d="M35.1993 725.616 Q31.2526 723.42 29.3747 720.365 Q27.4968 717.309 27.4968 713.171 Q27.4968 707.601 31.4117 704.578 Q35.2948 701.554 42.4881 701.554 L64.0042 701.554 L64.0042 707.442 L42.679 707.442 Q37.5546 707.442 35.072 709.256 Q32.5894 711.071 32.5894 714.795 Q32.5894 719.346 35.6131 721.988 Q38.6368 724.63 43.8567 724.63 L64.0042 724.63 L64.0042 730.518 L42.679 730.518 Q37.5228 730.518 35.072 732.332 Q32.5894 734.146 32.5894 737.934 Q32.5894 742.422 35.6449 745.064 Q38.6686 747.705 43.8567 747.705 L64.0042 747.705 L64.0042 753.594 L28.3562 753.594 L28.3562 747.705 L33.8944 747.705 Q30.616 745.7 29.0564 742.899 Q27.4968 740.098 27.4968 736.247 Q27.4968 732.364 29.4702 729.659 Q31.4436 726.921 35.1993 725.616 Z" fill="#000000" fill-rule="nonzero" fill-opacity="1" /><path clip-path="url(#clip190)" d="M44.7161 659.381 L47.5806 659.381 L47.5806 686.308 Q53.6281 685.926 56.8109 682.68 Q59.9619 679.401 59.9619 673.577 Q59.9619 670.203 59.1344 667.052 Q58.3069 663.869 56.6518 660.75 L62.1899 660.75 Q63.5267 663.901 64.227 667.211 Q64.9272 670.521 64.9272 673.927 Q64.9272 682.457 59.9619 687.454 Q54.9967 692.419 46.5303 692.419 Q37.7774 692.419 32.6531 687.709 Q27.4968 682.966 27.4968 674.945 Q27.4968 667.752 32.1438 663.583 Q36.7589 659.381 44.7161 659.381 M42.9973 665.238 Q38.1912 665.301 35.3266 667.943 Q32.4621 670.553 32.4621 674.882 Q32.4621 679.783 35.2312 682.743 Q38.0002 685.672 43.0292 686.117 L42.9973 665.238 Z" fill="#000000" fill-rule="nonzero" fill-opacity="1" /><path clip-path="url(#clip190)" d="M16.4842 618.641 L16.4842 613.23 L70.0516 629.781 L70.0516 635.191 L16.4842 618.641 Z" fill="#000000" fill-rule="nonzero" fill-opacity="1" /><path clip-path="url(#clip190)" d="M20.8447 566.824 Q20.8447 573.826 26.0645 577.964 Q31.2844 582.07 40.2919 582.07 Q49.2675 582.07 54.4874 577.964 Q59.7073 573.826 59.7073 566.824 Q59.7073 559.821 54.4874 555.747 Q49.2675 551.642 40.2919 551.642 Q31.2844 551.642 26.0645 555.747 Q20.8447 559.821 20.8447 566.824 M15.6248 566.824 Q15.6248 556.83 22.3406 550.846 Q29.0246 544.862 40.2919 544.862 Q51.5274 544.862 58.2432 550.846 Q64.9272 556.83 64.9272 566.824 Q64.9272 576.85 58.2432 582.865 Q51.5592 588.849 40.2919 588.849 Q29.0246 588.849 22.3406 582.865 Q15.6248 576.85 15.6248 566.824 Z" fill="#000000" fill-rule="nonzero" fill-opacity="1" /><path clip-path="url(#clip190)" d="M29.7248 509.405 L35.1993 509.405 Q33.8307 511.888 33.1623 514.402 Q32.4621 516.885 32.4621 519.431 Q32.4621 525.128 36.0905 528.279 Q39.6872 531.43 46.212 531.43 Q52.7369 531.43 56.3653 528.279 Q59.9619 525.128 59.9619 519.431 Q59.9619 516.885 59.2935 514.402 Q58.5933 511.888 57.2247 509.405 L62.6355 509.405 Q63.7814 511.856 64.3543 514.498 Q64.9272 517.108 64.9272 520.068 Q64.9272 528.12 59.8664 532.863 Q54.8057 537.605 46.212 537.605 Q37.491 537.605 32.4939 532.831 Q27.4968 528.025 27.4968 519.686 Q27.4968 516.98 28.0697 514.402 Q28.6108 511.824 29.7248 509.405 Z" fill="#000000" fill-rule="nonzero" fill-opacity="1" /><path clip-path="url(#clip190)" d="M18.2347 493.427 L28.3562 493.427 L28.3562 481.364 L32.9077 481.364 L32.9077 493.427 L52.2594 493.427 Q56.6199 493.427 57.8613 492.25 Q59.1026 491.04 59.1026 487.38 L59.1026 481.364 L64.0042 481.364 L64.0042 487.38 Q64.0042 494.159 61.4897 496.737 Q58.9434 499.315 52.2594 499.315 L32.9077 499.315 L32.9077 503.612 L28.3562 503.612 L28.3562 499.315 L18.2347 499.315 L18.2347 493.427 Z" fill="#000000" fill-rule="nonzero" fill-opacity="1" /><path clip-path="url(#clip190)" d="M33.8307 453.005 Q33.2578 453.992 33.0032 455.169 Q32.7167 456.315 32.7167 457.716 Q32.7167 462.681 35.9632 465.354 Q39.1779 467.996 45.2253 467.996 L64.0042 467.996 L64.0042 473.884 L28.3562 473.884 L28.3562 467.996 L33.8944 467.996 Q30.6479 466.15 29.0883 463.19 Q27.4968 460.23 27.4968 455.997 Q27.4968 455.392 27.5923 454.66 Q27.656 453.928 27.8151 453.037 L33.8307 453.005 Z" fill="#000000" fill-rule="nonzero" fill-opacity="1" /><path clip-path="url(#clip190)" d="M44.7161 417.803 L47.5806 417.803 L47.5806 444.73 Q53.6281 444.348 56.8109 441.101 Q59.9619 437.823 59.9619 431.998 Q59.9619 428.624 59.1344 425.473 Q58.3069 422.29 56.6518 419.171 L62.1899 419.171 Q63.5267 422.322 64.227 425.632 Q64.9272 428.943 64.9272 432.348 Q64.9272 440.878 59.9619 445.875 Q54.9967 450.841 46.5303 450.841 Q37.7774 450.841 32.6531 446.13 Q27.4968 441.388 27.4968 433.367 Q27.4968 426.173 32.1438 422.004 Q36.7589 417.803 44.7161 417.803 M42.9973 423.659 Q38.1912 423.723 35.3266 426.364 Q32.4621 428.974 32.4621 433.303 Q32.4621 438.205 35.2312 441.165 Q38.0002 444.093 43.0292 444.539 L42.9973 423.659 Z" fill="#000000" fill-rule="nonzero" fill-opacity="1" /><path clip-path="url(#clip190)" d="M44.7161 377.699 L47.5806 377.699 L47.5806 404.626 Q53.6281 404.244 56.8109 400.997 Q59.9619 397.719 59.9619 391.894 Q59.9619 388.52 59.1344 385.369 Q58.3069 382.186 56.6518 379.067 L62.1899 379.067 Q63.5267 382.218 64.227 385.528 Q64.9272 388.839 64.9272 392.244 Q64.9272 400.774 59.9619 405.771 Q54.9967 410.737 46.5303 410.737 Q37.7774 410.737 32.6531 406.026 Q27.4968 401.284 27.4968 393.263 Q27.4968 386.07 32.1438 381.9 Q36.7589 377.699 44.7161 377.699 M42.9973 383.555 Q38.1912 383.619 35.3266 386.26 Q32.4621 388.87 32.4621 393.199 Q32.4621 398.101 35.2312 401.061 Q38.0002 403.989 43.0292 404.435 L42.9973 383.555 Z" fill="#000000" fill-rule="nonzero" fill-opacity="1" /><path clip-path="url(#clip190)" d="M16.4842 353.7 L16.4842 313.5 L21.895 313.5 L21.895 330.37 L64.0042 330.37 L64.0042 336.831 L21.895 336.831 L21.895 353.7 L16.4842 353.7 Z" fill="#000000" fill-rule="nonzero" fill-opacity="1" /><path clip-path="url(#clip190)" d="M28.3562 309.554 L28.3562 303.697 L64.0042 303.697 L64.0042 309.554 L28.3562 309.554 M14.479 309.554 L14.479 303.697 L21.895 303.697 L21.895 309.554 L14.479 309.554 Z" fill="#000000" fill-rule="nonzero" fill-opacity="1" /><path clip-path="url(#clip190)" d="M35.1993 263.689 Q31.2526 261.493 29.3747 258.437 Q27.4968 255.382 27.4968 251.244 Q27.4968 245.674 31.4117 242.65 Q35.2948 239.626 42.4881 239.626 L64.0042 239.626 L64.0042 245.515 L42.679 245.515 Q37.5546 245.515 35.072 247.329 Q32.5894 249.143 32.5894 252.867 Q32.5894 257.419 35.6131 260.06 Q38.6368 262.702 43.8567 262.702 L64.0042 262.702 L64.0042 268.59 L42.679 268.59 Q37.5228 268.59 35.072 270.405 Q32.5894 272.219 32.5894 276.006 Q32.5894 280.494 35.6449 283.136 Q38.6686 285.778 43.8567 285.778 L64.0042 285.778 L64.0042 291.666 L28.3562 291.666 L28.3562 285.778 L33.8944 285.778 Q30.616 283.773 29.0564 280.972 Q27.4968 278.171 27.4968 274.32 Q27.4968 270.436 29.4702 267.731 Q31.4436 264.994 35.1993 263.689 Z" fill="#000000" fill-rule="nonzero" fill-opacity="1" /><path clip-path="url(#clip190)" d="M44.7161 197.454 L47.5806 197.454 L47.5806 224.381 Q53.6281 223.999 56.8109 220.752 Q59.9619 217.474 59.9619 211.649 Q59.9619 208.275 59.1344 205.124 Q58.3069 201.941 56.6518 198.822 L62.1899 198.822 Q63.5267 201.973 64.227 205.283 Q64.9272 208.594 64.9272 211.999 Q64.9272 220.529 59.9619 225.526 Q54.9967 230.492 46.5303 230.492 Q37.7774 230.492 32.6531 225.781 Q27.4968 221.039 27.4968 213.018 Q27.4968 205.825 32.1438 201.655 Q36.7589 197.454 44.7161 197.454 M42.9973 203.31 Q38.1912 203.374 35.3266 206.016 Q32.4621 208.625 32.4621 212.954 Q32.4621 217.856 35.2312 220.816 Q38.0002 223.744 43.0292 224.19 L42.9973 203.31 Z" fill="#000000" fill-rule="nonzero" fill-opacity="1" /><path clip-path="url(#clip190)" d="M14.5426 188.764 L14.5426 183.672 Q22.0542 178.898 29.2474 176.542 Q36.4406 174.155 43.5384 174.155 Q50.668 174.155 57.8931 176.542 Q65.1182 178.898 72.5979 183.672 L72.5979 188.764 Q65.3091 184.531 58.1159 182.462 Q50.8908 180.362 43.5384 180.362 Q36.186 180.362 29.0246 182.462 Q21.8632 184.531 14.5426 188.764 Z" fill="#000000" fill-rule="nonzero" fill-opacity="1" /><path clip-path="url(#clip190)" d="M412.936 19.8221 Q404.024 19.8221 398.758 26.4655 Q393.532 33.109 393.532 44.5731 Q393.532 55.9966 398.758 62.6401 Q404.024 69.2836 412.936 69.2836 Q421.848 69.2836 427.033 62.6401 Q432.259 55.9966 432.259 44.5731 Q432.259 33.109 427.033 26.4655 Q421.848 19.8221 412.936 19.8221 M412.936 13.1786 Q425.656 13.1786 433.272 21.726 Q440.887 30.2329 440.887 44.5731 Q440.887 58.8728 433.272 67.4202 Q425.656 75.9271 412.936 75.9271 Q400.176 75.9271 392.519 67.4202 Q384.904 58.9133 384.904 44.5731 Q384.904 30.2329 392.519 21.726 Q400.176 13.1786 412.936 13.1786 Z" fill="#000000" fill-rule="nonzero" fill-opacity="1" /><path clip-path="url(#clip190)" d="M486.014 31.1241 L486.014 38.0916 Q482.855 36.3497 479.654 35.4991 Q476.495 34.6079 473.254 34.6079 Q466.003 34.6079 461.992 39.2259 Q457.982 43.8034 457.982 52.1078 Q457.982 60.4121 461.992 65.0301 Q466.003 69.6077 473.254 69.6077 Q476.495 69.6077 479.654 68.757 Q482.855 67.8658 486.014 66.1239 L486.014 73.0104 Q482.895 74.4687 479.533 75.1979 Q476.211 75.9271 472.444 75.9271 Q462.195 75.9271 456.159 69.4861 Q450.123 63.0452 450.123 52.1078 Q450.123 41.0083 456.2 34.6484 Q462.317 28.2884 472.93 28.2884 Q476.373 28.2884 479.654 29.0176 Q482.936 29.7063 486.014 31.1241 Z" fill="#000000" fill-rule="nonzero" fill-opacity="1" /><path clip-path="url(#clip190)" d="M506.35 16.5003 L506.35 29.3822 L521.703 29.3822 L521.703 35.175 L506.35 35.175 L506.35 59.8045 Q506.35 65.3542 507.849 66.9341 Q509.388 68.5139 514.047 68.5139 L521.703 68.5139 L521.703 74.7523 L514.047 74.7523 Q505.418 74.7523 502.137 71.5521 Q498.856 68.3114 498.856 59.8045 L498.856 35.175 L493.387 35.175 L493.387 29.3822 L498.856 29.3822 L498.856 16.5003 L506.35 16.5003 Z" fill="#000000" fill-rule="nonzero" fill-opacity="1" /><path clip-path="url(#clip190)" d="M557.796 36.3497 Q556.541 35.6206 555.042 35.2965 Q553.583 34.9319 551.801 34.9319 Q545.482 34.9319 542.079 39.0638 Q538.717 43.1553 538.717 50.852 L538.717 74.7523 L531.222 74.7523 L531.222 29.3822 L538.717 29.3822 L538.717 36.4308 Q541.066 32.2988 544.833 30.3139 Q548.601 28.2884 553.989 28.2884 Q554.758 28.2884 555.69 28.41 Q556.622 28.491 557.756 28.6935 L557.796 36.3497 Z" fill="#000000" fill-rule="nonzero" fill-opacity="1" /><path clip-path="url(#clip190)" d="M602.599 50.2038 L602.599 53.8496 L568.329 53.8496 Q568.815 61.5464 572.947 65.5973 Q577.119 69.6077 584.532 69.6077 Q588.826 69.6077 592.837 68.5544 Q596.888 67.5012 600.857 65.3947 L600.857 72.4433 Q596.847 74.1447 592.634 75.0359 Q588.421 75.9271 584.087 75.9271 Q573.23 75.9271 566.87 69.6077 Q560.551 63.2883 560.551 52.5128 Q560.551 41.3729 566.546 34.8509 Q572.582 28.2884 582.79 28.2884 Q591.945 28.2884 597.252 34.2028 Q602.599 40.0766 602.599 50.2038 M595.146 48.0163 Q595.065 41.8995 591.702 38.2537 Q588.381 34.6079 582.871 34.6079 Q576.633 34.6079 572.866 38.1321 Q569.139 41.6564 568.572 48.0569 L595.146 48.0163 Z" fill="#000000" fill-rule="nonzero" fill-opacity="1" /><path clip-path="url(#clip190)" d="M653.641 50.2038 L653.641 53.8496 L619.37 53.8496 Q619.856 61.5464 623.988 65.5973 Q628.161 69.6077 635.574 69.6077 Q639.868 69.6077 643.878 68.5544 Q647.929 67.5012 651.899 65.3947 L651.899 72.4433 Q647.888 74.1447 643.676 75.0359 Q639.463 75.9271 635.128 75.9271 Q624.272 75.9271 617.912 69.6077 Q611.592 63.2883 611.592 52.5128 Q611.592 41.3729 617.588 34.8509 Q623.624 28.2884 633.832 28.2884 Q642.987 28.2884 648.294 34.2028 Q653.641 40.0766 653.641 50.2038 M646.187 48.0163 Q646.106 41.8995 642.744 38.2537 Q639.422 34.6079 633.913 34.6079 Q627.674 34.6079 623.907 38.1321 Q620.18 41.6564 619.613 48.0569 L646.187 48.0163 Z" fill="#000000" fill-rule="nonzero" fill-opacity="1" /><path clip-path="url(#clip190)" d="M686.899 29.3822 L694.798 29.3822 L708.976 67.4607 L723.154 29.3822 L731.054 29.3822 L714.04 74.7523 L703.912 74.7523 L686.899 29.3822 Z" fill="#000000" fill-rule="nonzero" fill-opacity="1" /><path clip-path="url(#clip190)" d="M770.266 30.719 L770.266 37.7676 Q767.107 36.1472 763.704 35.337 Q760.301 34.5268 756.655 34.5268 Q751.106 34.5268 748.31 36.2282 Q745.556 37.9296 745.556 41.3324 Q745.556 43.9249 747.541 45.4238 Q749.526 46.8821 755.521 48.2189 L758.073 48.786 Q766.013 50.4874 769.335 53.6066 Q772.697 56.6853 772.697 62.235 Q772.697 68.5544 767.674 72.2408 Q762.691 75.9271 753.941 75.9271 Q750.295 75.9271 746.325 75.1979 Q742.396 74.5093 738.021 73.0914 L738.021 65.3947 Q742.153 67.5417 746.163 68.6354 Q750.174 69.6887 754.103 69.6887 Q759.369 69.6887 762.205 67.9063 Q765.041 66.0834 765.041 62.8021 Q765.041 59.764 762.975 58.1436 Q760.949 56.5232 754.022 55.0244 L751.43 54.4168 Q744.503 52.9584 741.424 49.9608 Q738.345 46.9226 738.345 41.6564 Q738.345 35.256 742.882 31.7722 Q747.419 28.2884 755.764 28.2884 Q759.896 28.2884 763.542 28.8961 Q767.188 29.5037 770.266 30.719 Z" fill="#000000" fill-rule="nonzero" fill-opacity="1" /><path clip-path="url(#clip190)" d="M785.619 64.463 L794.167 64.463 L794.167 74.7523 L785.619 74.7523 L785.619 64.463 Z" fill="#000000" fill-rule="nonzero" fill-opacity="1" /><path clip-path="url(#clip190)" d="M845.816 20.9968 L845.816 68.0278 L855.7 68.0278 Q868.217 68.0278 874.01 62.3565 Q879.843 56.6853 879.843 44.4515 Q879.843 32.2988 874.01 26.6681 Q868.217 20.9968 855.7 20.9968 L845.816 20.9968 M837.633 14.2723 L854.444 14.2723 Q872.025 14.2723 880.248 21.6044 Q888.472 28.8961 888.472 44.4515 Q888.472 60.088 880.208 67.4202 Q871.944 74.7523 854.444 74.7523 L837.633 74.7523 L837.633 14.2723 Z" fill="#000000" fill-rule="nonzero" fill-opacity="1" /><path clip-path="url(#clip190)" d="M901.192 29.3822 L908.645 29.3822 L908.645 74.7523 L901.192 74.7523 L901.192 29.3822 M901.192 11.7202 L908.645 11.7202 L908.645 21.1588 L901.192 21.1588 L901.192 11.7202 Z" fill="#000000" fill-rule="nonzero" fill-opacity="1" /><path clip-path="url(#clip190)" d="M950.532 36.3497 Q949.276 35.6206 947.777 35.2965 Q946.319 34.9319 944.536 34.9319 Q938.217 34.9319 934.814 39.0638 Q931.452 43.1553 931.452 50.852 L931.452 74.7523 L923.958 74.7523 L923.958 29.3822 L931.452 29.3822 L931.452 36.4308 Q933.801 32.2988 937.569 30.3139 Q941.336 28.2884 946.724 28.2884 Q947.493 28.2884 948.425 28.41 Q949.357 28.491 950.491 28.6935 L950.532 36.3497 Z" fill="#000000" fill-rule="nonzero" fill-opacity="1" /><path clip-path="url(#clip190)" d="M995.335 50.2038 L995.335 53.8496 L961.064 53.8496 Q961.55 61.5464 965.682 65.5973 Q969.854 69.6077 977.268 69.6077 Q981.561 69.6077 985.572 68.5544 Q989.623 67.5012 993.593 65.3947 L993.593 72.4433 Q989.582 74.1447 985.369 75.0359 Q981.156 75.9271 976.822 75.9271 Q965.965 75.9271 959.606 69.6077 Q953.286 63.2883 953.286 52.5128 Q953.286 41.3729 959.281 34.8509 Q965.317 28.2884 975.526 28.2884 Q984.681 28.2884 989.987 34.2028 Q995.335 40.0766 995.335 50.2038 M987.881 48.0163 Q987.8 41.8995 984.438 38.2537 Q981.116 34.6079 975.607 34.6079 Q969.368 34.6079 965.601 38.1321 Q961.874 41.6564 961.307 48.0569 L987.881 48.0163 Z" fill="#000000" fill-rule="nonzero" fill-opacity="1" /><path clip-path="url(#clip190)" d="M1040.22 31.1241 L1040.22 38.0916 Q1037.06 36.3497 1033.86 35.4991 Q1030.7 34.6079 1027.46 34.6079 Q1020.21 34.6079 1016.2 39.2259 Q1012.19 43.8034 1012.19 52.1078 Q1012.19 60.4121 1016.2 65.0301 Q1020.21 69.6077 1027.46 69.6077 Q1030.7 69.6077 1033.86 68.757 Q1037.06 67.8658 1040.22 66.1239 L1040.22 73.0104 Q1037.1 74.4687 1033.74 75.1979 Q1030.42 75.9271 1026.65 75.9271 Q1016.4 75.9271 1010.36 69.4861 Q1004.33 63.0452 1004.33 52.1078 Q1004.33 41.0083 1010.4 34.6484 Q1016.52 28.2884 1027.13 28.2884 Q1030.58 28.2884 1033.86 29.0176 Q1037.14 29.7063 1040.22 31.1241 Z" fill="#000000" fill-rule="nonzero" fill-opacity="1" /><path clip-path="url(#clip190)" d="M1060.55 16.5003 L1060.55 29.3822 L1075.91 29.3822 L1075.91 35.175 L1060.55 35.175 L1060.55 59.8045 Q1060.55 65.3542 1062.05 66.9341 Q1063.59 68.5139 1068.25 68.5139 L1075.91 68.5139 L1075.91 74.7523 L1068.25 74.7523 Q1059.62 74.7523 1056.34 71.5521 Q1053.06 68.3114 1053.06 59.8045 L1053.06 35.175 L1047.59 35.175 L1047.59 29.3822 L1053.06 29.3822 L1053.06 16.5003 L1060.55 16.5003 Z" fill="#000000" fill-rule="nonzero" fill-opacity="1" /><path clip-path="url(#clip190)" d="M1148.66 16.2573 L1148.66 24.2375 Q1144 22.0095 1139.87 20.9158 Q1135.74 19.8221 1131.89 19.8221 Q1125.21 19.8221 1121.56 22.4146 Q1117.96 25.0072 1117.96 29.7873 Q1117.96 33.7977 1120.35 35.8636 Q1122.78 37.8891 1129.5 39.1449 L1134.44 40.1576 Q1143.6 41.8995 1147.93 46.315 Q1152.31 50.6899 1152.31 58.0626 Q1152.31 66.853 1146.39 71.3901 Q1140.52 75.9271 1129.14 75.9271 Q1124.84 75.9271 1119.98 74.9549 Q1115.16 73.9826 1109.98 72.0787 L1109.98 63.6528 Q1114.96 66.448 1119.74 67.8658 Q1124.52 69.2836 1129.14 69.2836 Q1136.14 69.2836 1139.95 66.529 Q1143.76 63.7744 1143.76 58.6702 Q1143.76 54.2142 1141.01 51.7027 Q1138.29 49.1911 1132.05 47.9353 L1127.07 46.9631 Q1117.91 45.1402 1113.82 41.2513 Q1109.73 37.3625 1109.73 30.4354 Q1109.73 22.4146 1115.36 17.7966 Q1121.03 13.1786 1130.96 13.1786 Q1135.21 13.1786 1139.63 13.9482 Q1144.04 14.7179 1148.66 16.2573 Z" fill="#000000" fill-rule="nonzero" fill-opacity="1" /><path clip-path="url(#clip190)" d="M1182.32 34.6079 Q1176.33 34.6079 1172.85 39.3069 Q1169.36 43.9654 1169.36 52.1078 Q1169.36 60.2501 1172.8 64.9491 Q1176.29 69.6077 1182.32 69.6077 Q1188.28 69.6077 1191.76 64.9086 Q1195.25 60.2096 1195.25 52.1078 Q1195.25 44.0465 1191.76 39.3474 Q1188.28 34.6079 1182.32 34.6079 M1182.32 28.2884 Q1192.05 28.2884 1197.6 34.6079 Q1203.15 40.9273 1203.15 52.1078 Q1203.15 63.2477 1197.6 69.6077 Q1192.05 75.9271 1182.32 75.9271 Q1172.56 75.9271 1167.01 69.6077 Q1161.5 63.2477 1161.5 52.1078 Q1161.5 40.9273 1167.01 34.6079 Q1172.56 28.2884 1182.32 28.2884 Z" fill="#000000" fill-rule="nonzero" fill-opacity="1" /><path clip-path="url(#clip190)" d="M1215.5 11.7202 L1222.95 11.7202 L1222.95 74.7523 L1215.5 74.7523 L1215.5 11.7202 Z" fill="#000000" fill-rule="nonzero" fill-opacity="1" /><path clip-path="url(#clip190)" d="M1237.78 56.8473 L1237.78 29.3822 L1245.23 29.3822 L1245.23 56.5638 Q1245.23 63.0047 1247.75 66.2454 Q1250.26 69.4456 1255.28 69.4456 Q1261.32 69.4456 1264.8 65.5973 Q1268.32 61.7489 1268.32 55.1054 L1268.32 29.3822 L1275.78 29.3822 L1275.78 74.7523 L1268.32 74.7523 L1268.32 67.7848 Q1265.61 71.9167 1262.01 73.9421 Q1258.44 75.9271 1253.7 75.9271 Q1245.88 75.9271 1241.83 71.066 Q1237.78 66.2049 1237.78 56.8473 M1256.54 28.2884 L1256.54 28.2884 Z" fill="#000000" fill-rule="nonzero" fill-opacity="1" /><path clip-path="url(#clip190)" d="M1298.5 16.5003 L1298.5 29.3822 L1313.86 29.3822 L1313.86 35.175 L1298.5 35.175 L1298.5 59.8045 Q1298.5 65.3542 1300 66.9341 Q1301.54 68.5139 1306.2 68.5139 L1313.86 68.5139 L1313.86 74.7523 L1306.2 74.7523 Q1297.57 74.7523 1294.29 71.5521 Q1291.01 68.3114 1291.01 59.8045 L1291.01 35.175 L1285.54 35.175 L1285.54 29.3822 L1291.01 29.3822 L1291.01 16.5003 L1298.5 16.5003 Z" fill="#000000" fill-rule="nonzero" fill-opacity="1" /><path clip-path="url(#clip190)" d="M1323.66 29.3822 L1331.11 29.3822 L1331.11 74.7523 L1323.66 74.7523 L1323.66 29.3822 M1323.66 11.7202 L1331.11 11.7202 L1331.11 21.1588 L1323.66 21.1588 L1323.66 11.7202 Z" fill="#000000" fill-rule="nonzero" fill-opacity="1" /><path clip-path="url(#clip190)" d="M1364.29 34.6079 Q1358.3 34.6079 1354.81 39.3069 Q1351.33 43.9654 1351.33 52.1078 Q1351.33 60.2501 1354.77 64.9491 Q1358.26 69.6077 1364.29 69.6077 Q1370.25 69.6077 1373.73 64.9086 Q1377.21 60.2096 1377.21 52.1078 Q1377.21 44.0465 1373.73 39.3474 Q1370.25 34.6079 1364.29 34.6079 M1364.29 28.2884 Q1374.01 28.2884 1379.56 34.6079 Q1385.11 40.9273 1385.11 52.1078 Q1385.11 63.2477 1379.56 69.6077 Q1374.01 75.9271 1364.29 75.9271 Q1354.53 75.9271 1348.98 69.6077 Q1343.47 63.2477 1343.47 52.1078 Q1343.47 40.9273 1348.98 34.6079 Q1354.53 28.2884 1364.29 28.2884 Z" fill="#000000" fill-rule="nonzero" fill-opacity="1" /><path clip-path="url(#clip190)" d="M1435.18 47.3682 L1435.18 74.7523 L1427.73 74.7523 L1427.73 47.6113 Q1427.73 41.1703 1425.22 37.9701 Q1422.7 34.7699 1417.68 34.7699 Q1411.65 34.7699 1408.16 38.6182 Q1404.68 42.4666 1404.68 49.1101 L1404.68 74.7523 L1397.18 74.7523 L1397.18 29.3822 L1404.68 29.3822 L1404.68 36.4308 Q1407.35 32.3393 1410.96 30.3139 Q1414.6 28.2884 1419.34 28.2884 Q1427.16 28.2884 1431.17 33.1495 Q1435.18 37.9701 1435.18 47.3682 Z" fill="#000000" fill-rule="nonzero" fill-opacity="1" /><path clip-path="url(#clip190)" d="M1451.95 64.463 L1460.5 64.463 L1460.5 71.4306 L1453.86 84.3935 L1448.63 84.3935 L1451.95 71.4306 L1451.95 64.463 Z" fill="#000000" fill-rule="nonzero" fill-opacity="1" /><path clip-path="url(#clip190)" d="M1539.37 16.2573 L1539.37 24.2375 Q1534.71 22.0095 1530.58 20.9158 Q1526.45 19.8221 1522.6 19.8221 Q1515.92 19.8221 1512.27 22.4146 Q1508.67 25.0072 1508.67 29.7873 Q1508.67 33.7977 1511.06 35.8636 Q1513.49 37.8891 1520.21 39.1449 L1525.15 40.1576 Q1534.31 41.8995 1538.64 46.315 Q1543.02 50.6899 1543.02 58.0626 Q1543.02 66.853 1537.1 71.3901 Q1531.23 75.9271 1519.85 75.9271 Q1515.55 75.9271 1510.69 74.9549 Q1505.87 73.9826 1500.68 72.0787 L1500.68 63.6528 Q1505.67 66.448 1510.45 67.8658 Q1515.23 69.2836 1519.85 69.2836 Q1526.85 69.2836 1530.66 66.529 Q1534.47 63.7744 1534.47 58.6702 Q1534.47 54.2142 1531.71 51.7027 Q1529 49.1911 1522.76 47.9353 L1517.78 46.9631 Q1508.62 45.1402 1504.53 41.2513 Q1500.44 37.3625 1500.44 30.4354 Q1500.44 22.4146 1506.07 17.7966 Q1511.74 13.1786 1521.67 13.1786 Q1525.92 13.1786 1530.34 13.9482 Q1534.75 14.7179 1539.37 16.2573 Z" fill="#000000" fill-rule="nonzero" fill-opacity="1" /><path clip-path="url(#clip190)" d="M1562.66 67.9468 L1562.66 92.0092 L1555.17 92.0092 L1555.17 29.3822 L1562.66 29.3822 L1562.66 36.2687 Q1565.01 32.2178 1568.58 30.2734 Q1572.18 28.2884 1577.17 28.2884 Q1585.43 28.2884 1590.57 34.8509 Q1595.76 41.4134 1595.76 52.1078 Q1595.76 62.8021 1590.57 69.3646 Q1585.43 75.9271 1577.17 75.9271 Q1572.18 75.9271 1568.58 73.9826 Q1565.01 71.9977 1562.66 67.9468 M1588.02 52.1078 Q1588.02 43.8844 1584.62 39.2259 Q1581.26 34.5268 1575.34 34.5268 Q1569.43 34.5268 1566.03 39.2259 Q1562.66 43.8844 1562.66 52.1078 Q1562.66 60.3311 1566.03 65.0301 Q1569.43 69.6887 1575.34 69.6887 Q1581.26 69.6887 1584.62 65.0301 Q1588.02 60.3311 1588.02 52.1078 Z" fill="#000000" fill-rule="nonzero" fill-opacity="1" /><path clip-path="url(#clip190)" d="M1646.92 50.2038 L1646.92 53.8496 L1612.65 53.8496 Q1613.14 61.5464 1617.27 65.5973 Q1621.44 69.6077 1628.86 69.6077 Q1633.15 69.6077 1637.16 68.5544 Q1641.21 67.5012 1645.18 65.3947 L1645.18 72.4433 Q1641.17 74.1447 1636.96 75.0359 Q1632.74 75.9271 1628.41 75.9271 Q1617.55 75.9271 1611.19 69.6077 Q1604.87 63.2883 1604.87 52.5128 Q1604.87 41.3729 1610.87 34.8509 Q1616.91 28.2884 1627.11 28.2884 Q1636.27 28.2884 1641.58 34.2028 Q1646.92 40.0766 1646.92 50.2038 M1639.47 48.0163 Q1639.39 41.8995 1636.03 38.2537 Q1632.7 34.6079 1627.19 34.6079 Q1620.96 34.6079 1617.19 38.1321 Q1613.46 41.6564 1612.89 48.0569 L1639.47 48.0163 Z" fill="#000000" fill-rule="nonzero" fill-opacity="1" /><path clip-path="url(#clip190)" d="M1697.96 50.2038 L1697.96 53.8496 L1663.69 53.8496 Q1664.18 61.5464 1668.31 65.5973 Q1672.48 69.6077 1679.9 69.6077 Q1684.19 69.6077 1688.2 68.5544 Q1692.25 67.5012 1696.22 65.3947 L1696.22 72.4433 Q1692.21 74.1447 1688 75.0359 Q1683.79 75.9271 1679.45 75.9271 Q1668.59 75.9271 1662.23 69.6077 Q1655.92 63.2883 1655.92 52.5128 Q1655.92 41.3729 1661.91 34.8509 Q1667.95 28.2884 1678.15 28.2884 Q1687.31 28.2884 1692.62 34.2028 Q1697.96 40.0766 1697.96 50.2038 M1690.51 48.0163 Q1690.43 41.8995 1687.07 38.2537 Q1683.75 34.6079 1678.24 34.6079 Q1672 34.6079 1668.23 38.1321 Q1664.5 41.6564 1663.94 48.0569 L1690.51 48.0163 Z" fill="#000000" fill-rule="nonzero" fill-opacity="1" /><path clip-path="url(#clip190)" d="M1740.05 36.2687 L1740.05 11.7202 L1747.51 11.7202 L1747.51 74.7523 L1740.05 74.7523 L1740.05 67.9468 Q1737.7 71.9977 1734.1 73.9826 Q1730.53 75.9271 1725.51 75.9271 Q1717.29 75.9271 1712.1 69.3646 Q1706.96 62.8021 1706.96 52.1078 Q1706.96 41.4134 1712.1 34.8509 Q1717.29 28.2884 1725.51 28.2884 Q1730.53 28.2884 1734.1 30.2734 Q1737.7 32.2178 1740.05 36.2687 M1714.65 52.1078 Q1714.65 60.3311 1718.02 65.0301 Q1721.42 69.6887 1727.33 69.6887 Q1733.25 69.6887 1736.65 65.0301 Q1740.05 60.3311 1740.05 52.1078 Q1740.05 43.8844 1736.65 39.2259 Q1733.25 34.5268 1727.33 34.5268 Q1721.42 34.5268 1718.02 39.2259 Q1714.65 43.8844 1714.65 52.1078 Z" fill="#000000" fill-rule="nonzero" fill-opacity="1" /><path clip-path="url(#clip190)" d="M1762.09 56.8473 L1762.09 29.3822 L1769.54 29.3822 L1769.54 56.5638 Q1769.54 63.0047 1772.05 66.2454 Q1774.57 69.4456 1779.59 69.4456 Q1785.63 69.4456 1789.11 65.5973 Q1792.63 61.7489 1792.63 55.1054 L1792.63 29.3822 L1800.09 29.3822 L1800.09 74.7523 L1792.63 74.7523 L1792.63 67.7848 Q1789.92 71.9167 1786.31 73.9421 Q1782.75 75.9271 1778.01 75.9271 Q1770.19 75.9271 1766.14 71.066 Q1762.09 66.2049 1762.09 56.8473 M1780.85 28.2884 L1780.85 28.2884 Z" fill="#000000" fill-rule="nonzero" fill-opacity="1" /><path clip-path="url(#clip190)" d="M1822.65 67.9468 L1822.65 92.0092 L1815.16 92.0092 L1815.16 29.3822 L1822.65 29.3822 L1822.65 36.2687 Q1825 32.2178 1828.57 30.2734 Q1832.17 28.2884 1837.15 28.2884 Q1845.42 28.2884 1850.56 34.8509 Q1855.75 41.4134 1855.75 52.1078 Q1855.75 62.8021 1850.56 69.3646 Q1845.42 75.9271 1837.15 75.9271 Q1832.17 75.9271 1828.57 73.9826 Q1825 71.9977 1822.65 67.9468 M1848.01 52.1078 Q1848.01 43.8844 1844.61 39.2259 Q1841.24 34.5268 1835.33 34.5268 Q1829.42 34.5268 1826.01 39.2259 Q1822.65 43.8844 1822.65 52.1078 Q1822.65 60.3311 1826.01 65.0301 Q1829.42 69.6887 1835.33 69.6887 Q1841.24 69.6887 1844.61 65.0301 Q1848.01 60.3311 1848.01 52.1078 Z" fill="#000000" fill-rule="nonzero" fill-opacity="1" /><path clip-path="url(#clip190)" d="M1912.38 11.8013 Q1906.95 21.1183 1904.32 30.2329 Q1901.68 39.3474 1901.68 48.705 Q1901.68 58.0626 1904.32 67.2581 Q1906.99 76.4132 1912.38 85.6898 L1905.9 85.6898 Q1899.82 76.1701 1896.78 66.9746 Q1893.78 57.779 1893.78 48.705 Q1893.78 39.6715 1896.78 30.5164 Q1899.78 21.3614 1905.9 11.8013 L1912.38 11.8013 Z" fill="#000000" fill-rule="nonzero" fill-opacity="1" /><path clip-path="url(#clip190)" d="M1956.4 52.7411 Q1956.4 56.881 1954.27 61.0209 Q1952.14 65.1608 1948.65 68.358 Q1945.17 71.5142 1940.41 73.5636 Q1935.66 75.6131 1930.7 75.777 L1927.5 88.2788 Q1926.89 91.312 1926.56 91.6399 Q1926.23 91.9678 1925.74 91.9678 Q1924.72 91.9678 1924.72 91.0251 Q1924.72 90.7381 1926.56 83.647 L1928.53 75.777 Q1921.07 75.3672 1916.72 71.0633 Q1912.38 66.7594 1912.38 60.57 Q1912.38 56.3891 1914.51 52.2492 Q1916.68 48.0683 1920.17 44.9121 Q1923.69 41.7559 1928.45 39.7475 Q1933.2 37.739 1938.08 37.575 L1942.96 18.1871 Q1943.2 17.0804 1943.41 16.7935 Q1943.61 16.5065 1944.23 16.5065 Q1944.68 16.5065 1944.92 16.7115 Q1945.17 16.9164 1945.17 17.1214 L1945.21 17.3263 L1944.96 18.515 L1940.25 37.575 Q1944.43 37.862 1947.67 39.3376 Q1950.91 40.8132 1952.75 43.0266 Q1954.6 45.199 1955.5 47.6584 Q1956.4 50.1178 1956.4 52.7411 M1937.59 39.4196 Q1933.08 39.8294 1929.27 42.0429 Q1925.45 44.2563 1922.99 47.5354 Q1920.54 50.7736 1919.18 54.6676 Q1917.83 58.5206 1917.83 62.3326 Q1917.83 65.3248 1918.81 67.6202 Q1919.84 69.9156 1921.52 71.2272 Q1923.2 72.4979 1925.04 73.1947 Q1926.93 73.8505 1928.94 73.9325 L1937.59 39.4196 M1950.91 50.9785 Q1950.91 45.6499 1947.83 42.6577 Q1944.76 39.6655 1939.76 39.4196 L1931.11 73.9325 Q1934.76 73.6456 1937.96 72.129 Q1941.19 70.5714 1943.53 68.276 Q1945.87 65.9396 1947.55 63.0704 Q1949.23 60.1601 1950.05 57.0859 Q1950.91 53.9707 1950.91 50.9785 Z" fill="#000000" fill-rule="nonzero" fill-opacity="1" /><path clip-path="url(#clip190)" d="M1985.2 62.0046 Q1985.28 60.9799 1986.88 60.9799 L2038.32 60.9799 Q2040.74 60.9799 2040.78 61.9227 Q2040.78 62.9474 2038.48 62.9064 L1987.45 62.9064 Q1985.2 62.9474 1985.2 62.0046 M1985.2 45.6089 Q1985.2 44.5842 1986.96 44.6252 L2038.24 44.6252 Q2040.74 44.6252 2040.78 45.6089 Q2040.78 46.5517 2038.65 46.5517 L1986.88 46.5517 Q1985.2 46.5517 1985.2 45.6089 Z" fill="#000000" fill-rule="nonzero" fill-opacity="1" /><path clip-path="url(#clip190)" d="M2073.16 47.9043 Q2073.16 35.5666 2076.27 28.8443 Q2080.62 18.8429 2090.86 18.8429 Q2093.04 18.8429 2095.29 19.4578 Q2097.59 20.0316 2100.45 22.286 Q2103.36 24.5404 2105.13 28.2295 Q2108.49 35.3616 2108.49 47.9043 Q2108.49 60.1601 2105.37 66.8414 Q2100.82 76.5968 2090.78 76.5968 Q2087.01 76.5968 2083.16 74.6703 Q2079.35 72.7438 2076.93 68.112 Q2073.16 61.1849 2073.16 47.9043 M2080.12 46.8796 Q2080.12 59.5453 2081.03 64.587 Q2082.05 70.0385 2084.84 72.4159 Q2087.67 74.7523 2090.78 74.7523 Q2094.14 74.7523 2096.93 72.252 Q2099.76 69.7106 2100.62 64.2591 Q2101.56 58.8895 2101.52 46.8796 Q2101.52 35.1977 2100.7 30.5249 Q2099.59 25.0733 2096.64 22.9009 Q2093.73 20.6875 2090.78 20.6875 Q2089.67 20.6875 2088.49 21.0154 Q2087.34 21.3433 2085.66 22.286 Q2083.98 23.2288 2082.67 25.5652 Q2081.39 27.9016 2080.78 31.4266 Q2080.12 35.9765 2080.12 46.8796 Z" fill="#000000" fill-rule="nonzero" fill-opacity="1" /><path clip-path="url(#clip190)" d="M2116 73.3997 Q2114.73 72.047 2114.73 70.2845 Q2114.73 68.5219 2116 67.2513 Q2117.27 65.9396 2119.19 65.9396 Q2121.04 65.9396 2122.27 67.1693 Q2123.54 68.358 2123.54 70.3255 Q2123.54 72.252 2122.19 73.5226 Q2120.87 74.7523 2119.19 74.7523 Q2117.27 74.7523 2116 73.3997 Z" fill="#000000" fill-rule="nonzero" fill-opacity="1" /><path clip-path="url(#clip190)" d="M2129.33 26.8358 L2129.33 24.2125 Q2139.41 24.2125 2144.61 18.8429 Q2146.05 18.8429 2146.29 19.1709 Q2146.54 19.4988 2146.54 21.0154 L2146.54 68.112 Q2146.54 70.6124 2147.77 71.3912 Q2149 72.17 2154.37 72.17 L2157.03 72.17 L2157.03 74.7523 Q2154.08 74.5064 2143.43 74.5064 Q2132.77 74.5064 2129.86 74.7523 L2129.86 72.17 L2132.52 72.17 Q2137.81 72.17 2139.08 71.4322 Q2140.35 70.6534 2140.35 68.112 L2140.35 24.6224 Q2135.97 26.8358 2129.33 26.8358 Z" fill="#000000" fill-rule="nonzero" fill-opacity="1" /><path clip-path="url(#clip190)" d="M2170.9 11.8013 L2177.38 11.8013 Q2183.45 21.3614 2186.45 30.5164 Q2189.49 39.6715 2189.49 48.705 Q2189.49 57.779 2186.45 66.9746 Q2183.45 76.1701 2177.38 85.6898 L2170.9 85.6898 Q2176.28 76.4132 2178.92 67.2581 Q2181.59 58.0626 2181.59 48.705 Q2181.59 39.3474 2178.92 30.2329 Q2176.28 21.1183 2170.9 11.8013 Z" fill="#000000" fill-rule="nonzero" fill-opacity="1" /><polyline clip-path="url(#clip192)" style="stroke:#009af9; stroke-linecap:round; stroke-linejoin:round; stroke-width:4; stroke-opacity:1; fill:none" points="281.952,1374.46 784.574,1255.93 1287.2,1003.93 1789.82,580.907 2292.44,159.909 "/>
<path clip-path="url(#clip190)" d="M292.674 270.066 L558.217 270.066 L558.217 166.386 L292.674 166.386  Z" fill="#ffffff" fill-rule="evenodd" fill-opacity="1"/>
<polyline clip-path="url(#clip190)" style="stroke:#000000; stroke-linecap:round; stroke-linejoin:round; stroke-width:4; stroke-opacity:1; fill:none" points="292.674,270.066 558.217,270.066 558.217,166.386 292.674,166.386 292.674,270.066 "/>
<polyline clip-path="url(#clip190)" style="stroke:#009af9; stroke-linecap:round; stroke-linejoin:round; stroke-width:4; stroke-opacity:1; fill:none" points="316.353,218.226 458.428,218.226 "/>
<path clip-path="url(#clip190)" d="M495.95 237.914 Q494.144 242.543 492.431 243.955 Q490.718 245.367 487.848 245.367 L484.445 245.367 L484.445 241.803 L486.945 241.803 Q488.704 241.803 489.677 240.969 Q490.649 240.136 491.829 237.034 L492.593 235.09 L482.107 209.58 L486.621 209.58 L494.723 229.858 L502.825 209.58 L507.339 209.58 L495.95 237.914 Z" fill="#000000" fill-rule="nonzero" fill-opacity="1" /><path clip-path="url(#clip190)" d="M514.63 231.571 L522.269 231.571 L522.269 205.206 L513.959 206.872 L513.959 202.613 L522.223 200.946 L526.899 200.946 L526.899 231.571 L534.537 231.571 L534.537 235.506 L514.63 235.506 L514.63 231.571 Z" fill="#000000" fill-rule="nonzero" fill-opacity="1" /></svg>
